PowerhouseFilarOcto-RegularItalic.ufo
<glyph name="exclam" format="2">
  <advance width="300"/>
  <unicode hex="0021"/>
  <outline>
    <contour>
      <point x="281" y="700" type="line"/>
      <point x="178" y="700" type="line"/>
      <point x="118" y="227" type="line"/>
      <point x="175" y="227" type="line"/>
    </contour>
    <component base="period" xScale="-1" yScale="-1" xOffset="236" yOffset="128" identifier="E3C5D1DD"/>
  </outline>
</glyph>
<glyph name="quotedbl" format="2">
  <advance width="500"/>
  <unicode hex="0022"/>
  <outline>
    <contour>
      <point x="186" y="700" type="line"/>
      <point x="156" y="412" type="line"/>
      <point x="223" y="412" type="line"/>
      <point x="295" y="700" type="line"/>
    </contour>
    <contour>
      <point x="366" y="700" type="line"/>
      <point x="336" y="412" type="line"/>
      <point x="403" y="412" type="line"/>
      <point x="475" y="700" type="line"/>
    </contour>
  </outline>
</glyph>
<glyph name="ampersand" format="2">
  <advance width="680"/>
  <unicode hex="0026"/>
  <outline>
    <contour>
      <point x="299" y="351" type="curve"/>
      <point x="271" y="412" type="line"/>
      <point x="116" y="366"/>
      <point x="35" y="286"/>
      <point x="35" y="166" type="curve" smooth="yes"/>
      <point x="35" y="59"/>
      <point x="116" y="-12"/>
      <point x="244" y="-12" type="curve" smooth="yes"/>
      <point x="428" y="-12"/>
      <point x="569" y="134"/>
      <point x="638" y="341" type="curve"/>
      <point x="558" y="355" type="line"/>
      <point x="494" y="172"/>
      <point x="383" y="66"/>
      <point x="256" y="66" type="curve" smooth="yes"/>
      <point x="182" y="66"/>
      <point x="127" y="102"/>
      <point x="127" y="176" type="curve" smooth="yes"/>
      <point x="127" y="253"/>
      <point x="176" y="314"/>
    </contour>
    <contour>
      <point x="611" y="0" type="line"/>
      <point x="300" y="427" type="line" smooth="yes"/>
      <point x="276" y="460"/>
      <point x="266" y="488"/>
      <point x="266" y="520" type="curve" smooth="yes"/>
      <point x="266" y="573"/>
      <point x="295" y="638"/>
      <point x="373" y="638" type="curve" smooth="yes"/>
      <point x="421" y="638"/>
      <point x="454" y="613"/>
      <point x="454" y="562" type="curve" smooth="yes"/>
      <point x="454" y="487"/>
      <point x="393" y="453"/>
      <point x="283" y="413" type="curve"/>
      <point x="313" y="353" type="line"/>
      <point x="445" y="398"/>
      <point x="536" y="459"/>
      <point x="536" y="569" type="curve" smooth="yes"/>
      <point x="536" y="652"/>
      <point x="478" y="712"/>
      <point x="377" y="712" type="curve" smooth="yes"/>
      <point x="254" y="712"/>
      <point x="181" y="621"/>
      <point x="181" y="518" type="curve" smooth="yes"/>
      <point x="181" y="462"/>
      <point x="205" y="414"/>
      <point x="229" y="382" type="curve" smooth="yes"/>
      <point x="510" y="0" type="line"/>
    </contour>
  </outline>
</glyph>
<glyph name="quotesingle" format="2">
  <advance width="300"/>
  <unicode hex="0027"/>
  <outline>
    <contour>
      <point x="176" y="700" type="line"/>
      <point x="146" y="412" type="line"/>
      <point x="213" y="412" type="line"/>
      <point x="285" y="700" type="line"/>
    </contour>
  </outline>
</glyph>
<glyph name="asterisk" format="2">
  <advance width="450"/>
  <unicode hex="002A"/>
  <outline>
    <contour>
      <point x="149" y="326" type="line"/>
      <point x="264" y="453" type="line"/>
      <point x="332" y="328" type="line"/>
      <point x="392" y="366" type="line"/>
      <point x="321" y="495" type="line"/>
      <point x="467" y="540" type="line"/>
      <point x="458" y="604" type="line"/>
      <point x="317" y="561" type="line"/>
      <point x="341" y="700" type="line"/>
      <point x="271" y="700" type="line"/>
      <point x="247" y="562" type="line"/>
      <point x="119" y="606" type="line"/>
      <point x="89" y="543" type="line"/>
      <point x="215" y="500" type="line"/>
      <point x="98" y="370" type="line"/>
    </contour>
  </outline>
</glyph>
<glyph name="comma" format="2">
  <advance width="300"/>
  <unicode hex="002C"/>
  <outline>
    <contour>
      <point x="75" y="128" type="line"/>
      <point x="53" y="0" type="line"/>
      <point x="106" y="0" type="line"/>
      <point x="103" y="-14" type="line" smooth="yes"/>
      <point x="91" y="-69"/>
      <point x="64" y="-91"/>
      <point x="18" y="-91" type="curve"/>
      <point x="9" y="-140" type="line"/>
      <point x="110" y="-140"/>
      <point x="148" y="-71"/>
      <point x="158" y="-14" type="curve" smooth="yes"/>
      <point x="183" y="128" type="line"/>
    </contour>
  </outline>
</glyph>
<glyph name="zero" format="2">
  <advance width="600"/>
  <unicode hex="0030"/>
  <outline>
    <contour>
      <point x="372" y="712" type="curve" smooth="yes"/>
      <point x="171" y="712"/>
      <point x="60" y="482"/>
      <point x="60" y="255" type="curve" smooth="yes"/>
      <point x="60" y="86"/>
      <point x="136" y="-12"/>
      <point x="265" y="-12" type="curve" smooth="yes"/>
      <point x="467" y="-12"/>
      <point x="578" y="217"/>
      <point x="578" y="444" type="curve" smooth="yes"/>
      <point x="578" y="613"/>
      <point x="501" y="712"/>
    </contour>
    <contour>
      <point x="363" y="636" type="curve" smooth="yes"/>
      <point x="444" y="636"/>
      <point x="488" y="571"/>
      <point x="488" y="449" type="curve" smooth="yes"/>
      <point x="488" y="279"/>
      <point x="417" y="64"/>
      <point x="274" y="64" type="curve" smooth="yes"/>
      <point x="194" y="64"/>
      <point x="150" y="129"/>
      <point x="150" y="251" type="curve" smooth="yes"/>
      <point x="150" y="420"/>
      <point x="221" y="636"/>
    </contour>
  </outline>
</glyph>
<glyph name="one" format="2">
  <advance width="450"/>
  <unicode hex="0031"/>
  <outline>
    <contour>
      <point x="298" y="700" type="line"/>
      <point x="278" y="588"/>
      <point x="239" y="555"/>
      <point x="98" y="555" type="curve"/>
      <point x="87" y="490" type="line"/>
      <point x="307" y="490" type="line"/>
      <point x="259" y="540" type="line"/>
      <point x="163" y="0" type="line"/>
      <point x="253" y="0" type="line"/>
      <point x="377" y="700" type="line"/>
    </contour>
    <contour>
      <point x="163" y="0" type="line"/>
      <point x="253" y="0" type="line"/>
      <point x="266" y="75" type="line"/>
      <point x="177" y="75" type="line"/>
    </contour>
  </outline>
</glyph>
<glyph name="three" format="2">
  <advance width="600"/>
  <unicode hex="0033"/>
  <outline>
    <contour>
      <point x="65" y="219" type="line"/>
      <point x="59" y="197"/>
      <point x="57" y="176"/>
      <point x="57" y="157" type="curve" smooth="yes"/>
      <point x="57" y="44"/>
      <point x="152" y="-12"/>
      <point x="270" y="-12" type="curve" smooth="yes"/>
      <point x="432" y="-12"/>
      <point x="537" y="88"/>
      <point x="537" y="218" type="curve" smooth="yes"/>
      <point x="537" y="296"/>
      <point x="495" y="347"/>
      <point x="427" y="364" type="curve"/>
      <point x="426" y="358" type="line"/>
      <point x="493" y="374"/>
      <point x="575" y="430"/>
      <point x="575" y="538" type="curve" smooth="yes"/>
      <point x="575" y="638"/>
      <point x="502" y="712"/>
      <point x="374" y="712" type="curve" smooth="yes"/>
      <point x="241" y="712"/>
      <point x="133" y="635"/>
      <point x="122" y="501" type="curve"/>
      <point x="211" y="507" type="line"/>
      <point x="217" y="578"/>
      <point x="279" y="636"/>
      <point x="364" y="636" type="curve" smooth="yes"/>
      <point x="432" y="636"/>
      <point x="482" y="601"/>
      <point x="482" y="528" type="curve" smooth="yes"/>
      <point x="482" y="453"/>
      <point x="430" y="400"/>
      <point x="352" y="400" type="curve" smooth="yes"/>
      <point x="295" y="400" type="line"/>
      <point x="281" y="321" type="line"/>
      <point x="333" y="321" type="line" smooth="yes"/>
      <point x="408" y="321"/>
      <point x="445" y="277"/>
      <point x="445" y="214" type="curve" smooth="yes"/>
      <point x="445" y="133"/>
      <point x="385" y="64"/>
      <point x="280" y="64" type="curve" smooth="yes"/>
      <point x="195" y="64"/>
      <point x="146" y="106"/>
      <point x="146" y="169" type="curve" smooth="yes"/>
      <point x="146" y="181"/>
      <point x="147" y="194"/>
      <point x="151" y="207" type="curve"/>
    </contour>
  </outline>
</glyph>
<glyph name="question" format="2">
  <advance width="500"/>
  <unicode hex="003F"/>
  <outline>
    <contour>
      <point x="194" y="227" type="line"/>
      <point x="275" y="227" type="line"/>
      <point x="277" y="237" type="line" smooth="yes"/>
      <point x="286" y="281"/>
      <point x="308" y="315"/>
      <point x="372" y="349" type="curve" smooth="yes"/>
      <point x="465" y="398"/>
      <point x="513" y="470"/>
      <point x="513" y="553" type="curve" smooth="yes"/>
      <point x="513" y="657"/>
      <point x="430" y="712"/>
      <point x="316" y="712" type="curve" smooth="yes"/>
      <point x="197" y="712"/>
      <point x="116" y="652"/>
      <point x="78" y="545" type="curve"/>
      <point x="162" y="521" type="line"/>
      <point x="187" y="590"/>
      <point x="231" y="634"/>
      <point x="308" y="634" type="curve" smooth="yes"/>
      <point x="376" y="634"/>
      <point x="421" y="604"/>
      <point x="421" y="545" type="curve" smooth="yes"/>
      <point x="421" y="492"/>
      <point x="398" y="449"/>
      <point x="317" y="407" type="curve" smooth="yes"/>
      <point x="240" y="367"/>
      <point x="208" y="320"/>
      <point x="197" y="247" type="curve" smooth="yes"/>
    </contour>
    <contour>
      <point x="142" y="0" type="line"/>
      <point x="247" y="0" type="line"/>
      <point x="269" y="124" type="line"/>
      <point x="164" y="124" type="line"/>
    </contour>
  </outline>
</glyph>
<glyph name="at" format="2">
  <advance width="760"/>
  <unicode hex="0040"/>
  <outline>
    <contour>
      <point x="48" y="250" type="curve" smooth="yes"/>
      <point x="11" y="22"/>
      <point x="112" y="-129"/>
      <point x="341" y="-129" type="curve" smooth="yes"/>
      <point x="414" y="-129"/>
      <point x="493" y="-112"/>
      <point x="558" y="-77" type="curve"/>
      <point x="540" y="-18" type="line"/>
      <point x="476" y="-47"/>
      <point x="414" y="-63"/>
      <point x="349" y="-63" type="curve" smooth="yes"/>
      <point x="132" y="-63"/>
      <point x="93" y="98"/>
      <point x="120" y="240" type="curve" smooth="yes"/>
      <point x="151" y="414"/>
      <point x="279" y="569"/>
      <point x="470" y="569" type="curve" smooth="yes"/>
      <point x="595" y="569"/>
      <point x="675" y="501"/>
      <point x="675" y="367" type="curve" smooth="yes"/>
      <point x="675" y="290"/>
      <point x="640" y="125"/>
      <point x="548" y="125" type="curve" smooth="yes"/>
      <point x="516" y="125"/>
      <point x="512" y="148"/>
      <point x="521" y="180" type="curve" smooth="yes"/>
      <point x="597" y="451" type="line"/>
      <point x="519" y="451" type="line"/>
      <point x="505" y="401" type="line"/>
      <point x="492" y="435"/>
      <point x="456" y="457"/>
      <point x="407" y="457" type="curve" smooth="yes"/>
      <point x="291" y="457"/>
      <point x="225" y="341"/>
      <point x="208" y="243" type="curve" smooth="yes"/>
      <point x="193" y="155"/>
      <point x="214" y="52"/>
      <point x="327" y="52" type="curve" smooth="yes"/>
      <point x="372" y="52"/>
      <point x="410" y="72"/>
      <point x="439" y="108" type="curve"/>
      <point x="447" y="75"/>
      <point x="478" y="52"/>
      <point x="527" y="52" type="curve" smooth="yes"/>
      <point x="681" y="52"/>
      <point x="748" y="235"/>
      <point x="748" y="368" type="curve" smooth="yes"/>
      <point x="748" y="545"/>
      <point x="633" y="635"/>
      <point x="476" y="635" type="curve" smooth="yes"/>
      <point x="243" y="635"/>
      <point x="85" y="458"/>
    </contour>
    <contour>
      <point x="470" y="274" type="curve" smooth="yes"/>
      <point x="459" y="210"/>
      <point x="422" y="120"/>
      <point x="350" y="120" type="curve" smooth="yes"/>
      <point x="280" y="120"/>
      <point x="280" y="193"/>
      <point x="289" y="237" type="curve" smooth="yes"/>
      <point x="300" y="302"/>
      <point x="338" y="389"/>
      <point x="410" y="389" type="curve" smooth="yes"/>
      <point x="478" y="389"/>
      <point x="479" y="318"/>
    </contour>
  </outline>
</glyph>
<glyph name="A" format="2">
  <advance width="680"/>
  <unicode hex="0041"/>
  <outline>
    <contour>
      <point x="174" y="289" type="line"/>
      <point x="160" y="210" type="line"/>
      <point x="502" y="210" type="line"/>
      <point x="516" y="289" type="line"/>
    </contour>
    <contour>
      <point x="517" y="0" type="line"/>
      <point x="608" y="0" type="line"/>
      <point x="466" y="700" type="line"/>
      <point x="374" y="700" type="line"/>
      <point x="-14" y="0" type="line"/>
      <point x="84" y="0" type="line"/>
      <point x="432" y="632" type="line"/>
      <point x="391" y="632" type="line"/>
    </contour>
  </outline>
</glyph>
<glyph name="B" format="2">
  <advance width="680"/>
  <unicode hex="0042"/>
  <guideline x="333.14" y="1.56" angle="90" name="center" identifier="fwD9PzVs1T"/>
  <outline>
    <contour>
      <point x="168" y="700" type="line"/>
      <point x="44" y="0" type="line"/>
      <point x="135" y="0" type="line"/>
      <point x="259" y="700" type="line"/>
    </contour>
    <contour>
      <point x="363" y="0" type="line" smooth="yes"/>
      <point x="513" y="0"/>
      <point x="616" y="103"/>
      <point x="616" y="226" type="curve" smooth="yes"/>
      <point x="616" y="304"/>
      <point x="571" y="347"/>
      <point x="522" y="370" type="curve"/>
      <point x="519" y="353" type="line"/>
      <point x="597" y="375"/>
      <point x="657" y="449"/>
      <point x="657" y="541" type="curve" smooth="yes"/>
      <point x="657" y="636"/>
      <point x="593" y="700"/>
      <point x="487" y="700" type="curve" smooth="yes"/>
      <point x="202" y="700" type="line"/>
      <point x="187" y="619" type="line"/>
      <point x="465" y="619" type="line" smooth="yes"/>
      <point x="529" y="619"/>
      <point x="567" y="585"/>
      <point x="567" y="527" type="curve" smooth="yes"/>
      <point x="567" y="463"/>
      <point x="522" y="400"/>
      <point x="431" y="400" type="curve" smooth="yes"/>
      <point x="148" y="400" type="line"/>
      <point x="134" y="319" type="line"/>
      <point x="414" y="319" type="line" smooth="yes"/>
      <point x="479" y="319"/>
      <point x="524" y="285"/>
      <point x="524" y="218" type="curve" smooth="yes"/>
      <point x="524" y="142"/>
      <point x="466" y="81"/>
      <point x="372" y="81" type="curve" smooth="yes"/>
      <point x="93" y="81" type="line"/>
      <point x="78" y="0" type="line"/>
    </contour>
  </outline>
</glyph>
<glyph name="G" format="2">
  <advance width="760"/>
  <unicode hex="0047"/>
  <guideline x="404" y="700" angle="90" name="center" identifier="KOds3kqRLL"/>
  <outline>
    <contour>
      <point x="587" y="144" type="line"/>
      <point x="562" y="0" type="line"/>
      <point x="637" y="0" type="line"/>
      <point x="702" y="367" type="line"/>
      <point x="449" y="367" type="line"/>
      <point x="436" y="294" type="line"/>
      <point x="659" y="294" type="line"/>
      <point x="616" y="313" type="line"/>
      <point x="609" y="276" type="line" smooth="yes"/>
      <point x="587" y="151"/>
      <point x="483" y="66"/>
      <point x="362" y="66" type="curve" smooth="yes"/>
      <point x="242" y="66"/>
      <point x="165" y="153"/>
      <point x="165" y="291" type="curve" smooth="yes"/>
      <point x="165" y="466"/>
      <point x="277" y="630"/>
      <point x="446" y="630" type="curve" smooth="yes"/>
      <point x="563" y="630"/>
      <point x="623" y="553"/>
      <point x="631" y="467" type="curve"/>
      <point x="713" y="489" type="line"/>
      <point x="701" y="611"/>
      <point x="603" y="712"/>
      <point x="455" y="712" type="curve" smooth="yes"/>
      <point x="232" y="712"/>
      <point x="73" y="513"/>
      <point x="73" y="286" type="curve" smooth="yes"/>
      <point x="73" y="108"/>
      <point x="181" y="-12"/>
      <point x="346" y="-12" type="curve" smooth="yes"/>
      <point x="463" y="-12"/>
      <point x="548" y="47"/>
      <point x="609" y="137" type="curve"/>
    </contour>
  </outline>
</glyph>
<glyph name="H" format="2">
  <advance width="760"/>
  <unicode hex="0048"/>
  <outline>
    <contour>
      <point x="169" y="320" type="line"/>
      <point x="618" y="320" type="line"/>
      <point x="633" y="402" type="line"/>
      <point x="184" y="402" type="line"/>
    </contour>
    <contour>
      <point x="640" y="700" type="line"/>
      <point x="517" y="0" type="line"/>
      <point x="608" y="0" type="line"/>
      <point x="731" y="700" type="line"/>
    </contour>
    <contour>
      <point x="189" y="700" type="line"/>
      <point x="66" y="0" type="line"/>
      <point x="157" y="0" type="line"/>
      <point x="280" y="700" type="line"/>
    </contour>
  </outline>
</glyph>
<glyph name="I" format="2">
  <advance width="300"/>
  <unicode hex="0049"/>
  <outline>
    <contour>
      <point x="184" y="700" type="line"/>
      <point x="61" y="0" type="line"/>
      <point x="152" y="0" type="line"/>
      <point x="276" y="700" type="line"/>
    </contour>
    <contour>
      <point x="61" y="0" type="line"/>
      <point x="152" y="0" type="line"/>
      <point x="166" y="82" type="line"/>
      <point x="76" y="82" type="line"/>
    </contour>
    <contour>
      <point x="170" y="618" type="line"/>
      <point x="262" y="618" type="line"/>
      <point x="276" y="700" type="line"/>
      <point x="184" y="700" type="line"/>
    </contour>
  </outline>
</glyph>
<glyph name="K" format="2">
  <advance width="680"/>
  <unicode hex="004B"/>
  <guideline x="348" y="698" angle="90" name="center" identifier="RtvjLcqbOa"/>
  <outline>
    <contour>
      <point x="150" y="293" type="line"/>
      <point x="139" y="183" type="line"/>
      <point x="309" y="336" type="line"/>
      <point x="338" y="360" type="line"/>
      <point x="717" y="700" type="line"/>
      <point x="596" y="700" type="line"/>
    </contour>
    <contour>
      <point x="178" y="700" type="line"/>
      <point x="54" y="0" type="line"/>
      <point x="145" y="0" type="line"/>
      <point x="269" y="700" type="line"/>
    </contour>
    <contour>
      <point x="259" y="355" type="line"/>
      <point x="519" y="0" type="line"/>
      <point x="628" y="0" type="line"/>
      <point x="322" y="416" type="line"/>
    </contour>
  </outline>
</glyph>
<glyph name="M" format="2">
  <advance width="880"/>
  <unicode hex="004D"/>
  <outline>
    <contour>
      <point x="243" y="613" type="line"/>
      <point x="378" y="0" type="line"/>
      <point x="415" y="0" type="line"/>
      <point x="765" y="612" type="line"/>
      <point x="756" y="612" type="line"/>
      <point x="648" y="0" type="line"/>
      <point x="737" y="0" type="line"/>
      <point x="861" y="700" type="line"/>
      <point x="728" y="700" type="line"/>
      <point x="395" y="117" type="line"/>
      <point x="431" y="117" type="line"/>
      <point x="306" y="700" type="line"/>
      <point x="181" y="700" type="line"/>
      <point x="57" y="0" type="line"/>
      <point x="145" y="0" type="line"/>
      <point x="253" y="613" type="line"/>
    </contour>
  </outline>
</glyph>
<glyph name="O" format="2">
  <advance width="760"/>
  <unicode hex="004F"/>
  <outline>
    <contour>
      <point x="636" y="411" type="curve" smooth="yes"/>
      <point x="636" y="234"/>
      <point x="526" y="69"/>
      <point x="359" y="69" type="curve" smooth="yes"/>
      <point x="237" y="69"/>
      <point x="160" y="154"/>
      <point x="160" y="290" type="curve" smooth="yes"/>
      <point x="160" y="466"/>
      <point x="270" y="631"/>
      <point x="438" y="631" type="curve" smooth="yes"/>
      <point x="560" y="631"/>
      <point x="636" y="546"/>
    </contour>
    <contour>
      <point x="68" y="286" type="curve" smooth="yes"/>
      <point x="68" y="107"/>
      <point x="180" y="-12"/>
      <point x="351" y="-12" type="curve" smooth="yes"/>
      <point x="577" y="-12"/>
      <point x="728" y="189"/>
      <point x="728" y="415" type="curve" smooth="yes"/>
      <point x="728" y="593"/>
      <point x="616" y="712"/>
      <point x="446" y="712" type="curve" smooth="yes"/>
      <point x="219" y="712"/>
      <point x="68" y="512"/>
    </contour>
  </outline>
</glyph>
<glyph name="P" format="2">
  <advance width="680"/>
  <unicode hex="0050"/>
  <guideline x="334" y="700" angle="90" name="center" identifier="sSynuIPHvK"/>
  <outline>
    <contour>
      <point x="177" y="700" type="line"/>
      <point x="53" y="0" type="line"/>
      <point x="144" y="0" type="line"/>
      <point x="268" y="700" type="line"/>
    </contour>
    <contour>
      <point x="496" y="618" type="line" smooth="yes"/>
      <point x="566" y="618"/>
      <point x="606" y="591"/>
      <point x="606" y="526" type="curve" smooth="yes"/>
      <point x="606" y="457"/>
      <point x="562" y="398"/>
      <point x="456" y="398" type="curve" smooth="yes"/>
      <point x="164" y="398" type="line"/>
      <point x="150" y="316" type="line"/>
      <point x="452" y="316" type="line" smooth="yes"/>
      <point x="625" y="316"/>
      <point x="698" y="422"/>
      <point x="698" y="531" type="curve" smooth="yes"/>
      <point x="698" y="637"/>
      <point x="622" y="700"/>
      <point x="513" y="700" type="curve" smooth="yes"/>
      <point x="219" y="700" type="line"/>
      <point x="205" y="618" type="line"/>
    </contour>
  </outline>
</glyph>
<glyph name="V" format="2">
  <advance width="680"/>
  <unicode hex="0056"/>
  <outline>
    <contour>
      <point x="200" y="700" type="line"/>
      <point x="109" y="700" type="line"/>
      <point x="250" y="0" type="line"/>
      <point x="348" y="0" type="line"/>
      <point x="732" y="700" type="line"/>
      <point x="634" y="700" type="line"/>
      <point x="289" y="60" type="line"/>
      <point x="324" y="60" type="line"/>
    </contour>
  </outline>
</glyph>
<glyph name="W" format="2">
  <advance width="880"/>
  <unicode hex="0057"/>
  <outline>
    <contour>
      <point x="637" y="0" type="line"/>
      <point x="926" y="700" type="line"/>
      <point x="829" y="700" type="line"/>
      <point x="565" y="36" type="line"/>
      <point x="620" y="36" type="line"/>
      <point x="572" y="700" type="line"/>
      <point x="469" y="700" type="line"/>
      <point x="183" y="36" type="line"/>
      <point x="239" y="36" type="line"/>
      <point x="205" y="700" type="line"/>
      <point x="114" y="700" type="line"/>
      <point x="158" y="0" type="line"/>
      <point x="251" y="0" type="line"/>
      <point x="530" y="647" type="line"/>
      <point x="498" y="647" type="line"/>
      <point x="544" y="0" type="line"/>
    </contour>
  </outline>
</glyph>
<glyph name="X" format="2">
  <advance width="680"/>
  <unicode hex="0058"/>
  <outline>
    <contour>
      <point x="123" y="700" type="line"/>
      <point x="317" y="344" type="line"/>
      <point x="329" y="329" type="line"/>
      <point x="506" y="0" type="line"/>
      <point x="612" y="0" type="line"/>
      <point x="396" y="394" type="line"/>
      <point x="381" y="402" type="line"/>
      <point x="228" y="700" type="line"/>
    </contour>
    <contour>
      <point x="719" y="700" type="line"/>
      <point x="605" y="700" type="line"/>
      <point x="346" y="398" type="line"/>
      <point x="322" y="387" type="line"/>
      <point x="-18" y="0" type="line"/>
      <point x="98" y="0" type="line"/>
      <point x="384" y="333" type="line"/>
      <point x="410" y="346" type="line"/>
    </contour>
  </outline>
</glyph>
<glyph name="Y" format="2">
  <advance width="680"/>
  <unicode hex="0059"/>
  <outline>
    <contour>
      <point x="383" y="372" type="line"/>
      <point x="205" y="700" type="line"/>
      <point x="107" y="700" type="line"/>
      <point x="307" y="324" type="line"/>
      <point x="250" y="0" type="line"/>
      <point x="341" y="0" type="line"/>
      <point x="398" y="324" type="line"/>
      <point x="733" y="700" type="line"/>
      <point x="627" y="700" type="line"/>
      <point x="332" y="372" type="line"/>
    </contour>
  </outline>
</glyph>
<glyph name="Z" format="2">
  <advance width="600"/>
  <unicode hex="005A"/>
  <outline>
    <contour>
      <point x="5" y="0" type="line"/>
      <point x="511" y="0" type="line"/>
      <point x="525" y="82" type="line"/>
      <point x="107" y="82" type="line"/>
      <point x="94" y="26" type="line"/>
      <point x="617" y="639" type="line"/>
      <point x="628" y="700" type="line"/>
      <point x="126" y="700" type="line"/>
      <point x="112" y="618" type="line"/>
      <point x="543" y="618" type="line"/>
      <point x="526" y="660" type="line"/>
      <point x="16" y="62" type="line"/>
    </contour>
  </outline>
</glyph>
<glyph name="backslash" format="2">
  <advance width="600"/>
  <unicode hex="005C"/>
  <outline>
    <contour>
      <point x="226" y="745" type="line"/>
      <point x="141" y="745" type="line"/>
      <point x="424" y="-113" type="line"/>
      <point x="509" y="-113" type="line"/>
    </contour>
  </outline>
</glyph>
<glyph name="underscore" format="2">
  <advance width="450"/>
  <unicode hex="005F"/>
  <outline>
    <contour>
      <point x="-58" y="-140" type="line"/>
      <point x="372" y="-140" type="line"/>
      <point x="384" y="-70" type="line"/>
      <point x="-46" y="-70" type="line"/>
    </contour>
  </outline>
</glyph>
<glyph name="a" format="2">
  <advance width="550"/>
  <unicode hex="0061"/>
  <guideline x="25" y="136" angle="80" identifier="FxCzHQPTRI"/>
  <guideline x="234" y="286" angle="4.9166" identifier="UADswFWSQZ"/>
  <guideline x="237" y="221" angle="5.3454" identifier="KNaF3wkNAN"/>
  <outline>
    <contour>
      <point x="349" y="96" type="line"/>
      <point x="348" y="87"/>
      <point x="347" y="79"/>
      <point x="347" y="71" type="curve" smooth="yes"/>
      <point x="347" y="10"/>
      <point x="386" y="-10"/>
      <point x="430" y="-10" type="curve" smooth="yes"/>
      <point x="438" y="-10"/>
      <point x="445" y="-10"/>
      <point x="456" y="-8" type="curve"/>
      <point x="468" y="64" type="line"/>
      <point x="465" y="64"/>
      <point x="460" y="64"/>
      <point x="456" y="64" type="curve" smooth="yes"/>
      <point x="438" y="64"/>
      <point x="431" y="74"/>
      <point x="431" y="90" type="curve" smooth="yes"/>
      <point x="431" y="93"/>
      <point x="431" y="94"/>
      <point x="432" y="100" type="curve" smooth="yes"/>
      <point x="475" y="339" type="line" smooth="yes"/>
      <point x="477" y="351"/>
      <point x="478" y="362"/>
      <point x="478" y="372" type="curve" smooth="yes"/>
      <point x="478" y="455"/>
      <point x="415" y="502"/>
      <point x="302" y="502" type="curve" smooth="yes"/>
      <point x="171" y="502"/>
      <point x="111" y="428"/>
      <point x="94" y="355" type="curve"/>
      <point x="180" y="339" type="line"/>
      <point x="191" y="385"/>
      <point x="211" y="429"/>
      <point x="293" y="429" type="curve" smooth="yes"/>
      <point x="359" y="429"/>
      <point x="390" y="405"/>
      <point x="390" y="362" type="curve" smooth="yes"/>
      <point x="390" y="354"/>
      <point x="390" y="348"/>
      <point x="388" y="338" type="curve" smooth="yes"/>
      <point x="359" y="174" type="line" smooth="yes"/>
      <point x="348" y="113"/>
      <point x="282" y="59"/>
      <point x="204" y="59" type="curve" smooth="yes"/>
      <point x="153" y="59"/>
      <point x="122" y="81"/>
      <point x="122" y="128" type="curve" smooth="yes"/>
      <point x="122" y="181"/>
      <point x="161" y="215"/>
      <point x="232" y="221" type="curve" smooth="yes"/>
      <point x="403" y="237" type="line"/>
      <point x="415" y="302" type="line"/>
      <point x="229" y="286" type="line" smooth="yes"/>
      <point x="114" y="276"/>
      <point x="31" y="222"/>
      <point x="31" y="120" type="curve" smooth="yes"/>
      <point x="31" y="36"/>
      <point x="91" y="-12"/>
      <point x="184" y="-12" type="curve" smooth="yes"/>
      <point x="266" y="-12"/>
      <point x="328" y="27"/>
      <point x="370" y="89" type="curve"/>
    </contour>
  </outline>
</glyph>
<glyph name="c" format="2">
  <advance width="550"/>
  <unicode hex="0063"/>
  <guideline x="47" y="245" angle="80" identifier="gKtch1jl5k"/>
  <outline>
    <contour>
      <point x="508" y="338" type="line"/>
      <point x="499" y="441"/>
      <point x="426" y="502"/>
      <point x="320" y="502" type="curve" smooth="yes"/>
      <point x="152" y="502"/>
      <point x="51" y="362"/>
      <point x="51" y="198" type="curve" smooth="yes"/>
      <point x="51" y="67"/>
      <point x="130" y="-12"/>
      <point x="254" y="-12" type="curve" smooth="yes"/>
      <point x="354" y="-12"/>
      <point x="434" y="38"/>
      <point x="477" y="133" type="curve"/>
      <point x="398" y="160" type="line"/>
      <point x="372" y="94"/>
      <point x="326" y="57"/>
      <point x="262" y="57" type="curve" smooth="yes"/>
      <point x="184" y="57"/>
      <point x="140" y="111"/>
      <point x="140" y="202" type="curve" smooth="yes"/>
      <point x="140" y="307"/>
      <point x="193" y="431"/>
      <point x="314" y="431" type="curve" smooth="yes"/>
      <point x="384" y="431"/>
      <point x="424" y="392"/>
      <point x="428" y="320" type="curve"/>
    </contour>
  </outline>
</glyph>
<glyph name="e" format="2">
  <advance width="550"/>
  <unicode hex="0065"/>
  <outline>
    <contour>
      <point x="45" y="200" type="curve" smooth="yes"/>
      <point x="45" y="65"/>
      <point x="127" y="-12"/>
      <point x="249" y="-12" type="curve" smooth="yes"/>
      <point x="356" y="-12"/>
      <point x="437" y="44"/>
      <point x="480" y="134" type="curve"/>
      <point x="407" y="161" type="line"/>
      <point x="379" y="99"/>
      <point x="329" y="58"/>
      <point x="258" y="58" type="curve" smooth="yes"/>
      <point x="180" y="58"/>
      <point x="133" y="105"/>
      <point x="133" y="199" type="curve" smooth="yes"/>
      <point x="133" y="307"/>
      <point x="190" y="432"/>
      <point x="308" y="432" type="curve" smooth="yes"/>
      <point x="379" y="432"/>
      <point x="421" y="391"/>
      <point x="421" y="304" type="curve" smooth="yes"/>
      <point x="421" y="286"/>
      <point x="419" y="265"/>
      <point x="415" y="242" type="curve"/>
      <point x="445" y="292" type="line"/>
      <point x="107" y="292" type="line"/>
      <point x="96" y="226" type="line"/>
      <point x="496" y="226" type="line"/>
      <point x="498" y="241" type="line" smooth="yes"/>
      <point x="501" y="263"/>
      <point x="503" y="278"/>
      <point x="503" y="298" type="curve" smooth="yes"/>
      <point x="503" y="419"/>
      <point x="437" y="502"/>
      <point x="318" y="502" type="curve" smooth="yes"/>
      <point x="148" y="502"/>
      <point x="45" y="356"/>
    </contour>
  </outline>
</glyph>
<glyph name="f" format="2">
  <advance width="450"/>
  <unicode hex="0066"/>
  <outline>
    <contour>
      <point x="60" y="422" type="line"/>
      <point x="448" y="422" type="line"/>
      <point x="460" y="490" type="line"/>
      <point x="72" y="490" type="line"/>
    </contour>
    <contour>
      <point x="312" y="552" type="line" smooth="yes"/>
      <point x="320" y="600"/>
      <point x="362" y="629"/>
      <point x="424" y="629" type="curve" smooth="yes"/>
      <point x="448" y="629"/>
      <point x="465" y="626"/>
      <point x="483" y="622" type="curve"/>
      <point x="495" y="692" type="line"/>
      <point x="479" y="697"/>
      <point x="454" y="702"/>
      <point x="417" y="702" type="curve" smooth="yes"/>
      <point x="317" y="702"/>
      <point x="239" y="646"/>
      <point x="225" y="564" type="curve" smooth="yes"/>
      <point x="126" y="0" type="line"/>
      <point x="215" y="0" type="line"/>
    </contour>
  </outline>
</glyph>
<glyph name="h" format="2">
  <advance width="550"/>
  <unicode hex="0068"/>
  <outline>
    <contour>
      <point x="158" y="700" type="line"/>
      <point x="35" y="0" type="line"/>
      <point x="123" y="0" type="line"/>
      <point x="178" y="315" type="line" smooth="yes"/>
      <point x="191" y="388"/>
      <point x="246" y="431"/>
      <point x="312" y="431" type="curve" smooth="yes"/>
      <point x="374" y="431"/>
      <point x="402" y="392"/>
      <point x="402" y="342" type="curve" smooth="yes"/>
      <point x="402" y="333"/>
      <point x="401" y="323"/>
      <point x="399" y="313" type="curve" smooth="yes"/>
      <point x="344" y="0" type="line"/>
      <point x="432" y="0" type="line"/>
      <point x="488" y="322" type="line" smooth="yes"/>
      <point x="490" y="334"/>
      <point x="491" y="345"/>
      <point x="491" y="356" type="curve" smooth="yes"/>
      <point x="491" y="434"/>
      <point x="440" y="502"/>
      <point x="349" y="502" type="curve" smooth="yes"/>
      <point x="277" y="502"/>
      <point x="211" y="461"/>
      <point x="169" y="398" type="curve"/>
      <point x="193" y="398" type="line"/>
      <point x="246" y="700" type="line"/>
    </contour>
  </outline>
</glyph>
<glyph name="k" format="2">
  <advance width="550"/>
  <unicode hex="006B"/>
  <outline>
    <contour>
      <point x="50" y="0" type="line"/>
      <point x="138" y="0" type="line"/>
      <point x="262" y="700" type="line"/>
      <point x="174" y="700" type="line"/>
    </contour>
    <contour>
      <point x="131" y="236" type="line"/>
      <point x="122" y="144" type="line"/>
      <point x="264" y="258" type="line"/>
      <point x="296" y="275" type="line"/>
      <point x="562" y="490" type="line"/>
      <point x="447" y="490" type="line"/>
    </contour>
    <contour>
      <point x="230" y="266" type="line"/>
      <point x="394" y="0" type="line"/>
      <point x="490" y="0" type="line"/>
      <point x="295" y="316" type="line"/>
    </contour>
  </outline>
</glyph>
<glyph name="l" format="2">
  <advance width="300"/>
  <unicode hex="006C"/>
  <outline>
    <contour>
      <point x="187" y="700" type="line"/>
      <point x="63" y="0" type="line"/>
      <point x="151" y="0" type="line"/>
      <point x="275" y="700" type="line"/>
    </contour>
    <contour>
      <point x="176" y="631" type="line"/>
      <point x="262" y="631" type="line"/>
      <point x="275" y="700" type="line"/>
      <point x="187" y="700" type="line"/>
    </contour>
    <contour>
      <point x="63" y="0" type="line"/>
      <point x="151" y="0" type="line"/>
      <point x="162" y="69" type="line"/>
      <point x="76" y="69" type="line"/>
    </contour>
  </outline>
</glyph>
<glyph name="m" format="2">
  <advance width="880"/>
  <unicode hex="006D"/>
  <outline>
    <contour>
      <point x="61" y="0" type="line"/>
      <point x="149" y="0" type="line"/>
      <point x="203" y="309" type="line" smooth="yes"/>
      <point x="216" y="384"/>
      <point x="270" y="431"/>
      <point x="331" y="431" type="curve" smooth="yes"/>
      <point x="404" y="431"/>
      <point x="419" y="365"/>
      <point x="409" y="313" type="curve" smooth="yes"/>
      <point x="354" y="0" type="line"/>
      <point x="442" y="0" type="line"/>
      <point x="498" y="318" type="line" smooth="yes"/>
      <point x="510" y="388"/>
      <point x="564" y="432"/>
      <point x="623" y="432" type="curve" smooth="yes"/>
      <point x="697" y="432"/>
      <point x="712" y="364"/>
      <point x="702" y="312" type="curve" smooth="yes"/>
      <point x="647" y="0" type="line"/>
      <point x="735" y="0" type="line"/>
      <point x="793" y="327" type="line" smooth="yes"/>
      <point x="807" y="416"/>
      <point x="760" y="502"/>
      <point x="660" y="502" type="curve" smooth="yes"/>
      <point x="599" y="502"/>
      <point x="537" y="471"/>
      <point x="494" y="418" type="curve"/>
      <point x="476" y="468"/>
      <point x="432" y="501"/>
      <point x="370" y="501" type="curve" smooth="yes"/>
      <point x="318" y="501"/>
      <point x="266" y="477"/>
      <point x="225" y="436" type="curve"/>
      <point x="235" y="490" type="line"/>
      <point x="147" y="490" type="line"/>
    </contour>
  </outline>
</glyph>
<glyph name="o" format="2">
  <advance width="550"/>
  <unicode hex="006F"/>
  <outline>
    <contour>
      <point x="423" y="286" type="curve" smooth="yes"/>
      <point x="423" y="178"/>
      <point x="364" y="58"/>
      <point x="248" y="58" type="curve" smooth="yes"/>
      <point x="172" y="58"/>
      <point x="127" y="113"/>
      <point x="127" y="205" type="curve" smooth="yes"/>
      <point x="127" y="311"/>
      <point x="186" y="432"/>
      <point x="302" y="432" type="curve" smooth="yes"/>
      <point x="379" y="432"/>
      <point x="423" y="377"/>
    </contour>
    <contour>
      <point x="240" y="-12" type="curve" smooth="yes"/>
      <point x="401" y="-12"/>
      <point x="512" y="125"/>
      <point x="512" y="289" type="curve" smooth="yes"/>
      <point x="512" y="420"/>
      <point x="427" y="502"/>
      <point x="310" y="502" type="curve" smooth="yes"/>
      <point x="149" y="502"/>
      <point x="38" y="365"/>
      <point x="38" y="202" type="curve" smooth="yes"/>
      <point x="38" y="70"/>
      <point x="123" y="-12"/>
    </contour>
  </outline>
</glyph>
<glyph name="r" format="2">
  <advance width="450"/>
  <unicode hex="0072"/>
  <guideline x="192" y="602" angle="90" name="top" identifier="pAI58YIoZD"/>
  <guideline x="125" y="7" angle="90" name="stem" identifier="hi3D3jrrqJ"/>
  <outline>
    <contour>
      <point x="190" y="239" type="line" smooth="yes"/>
      <point x="210" y="350"/>
      <point x="287" y="413"/>
      <point x="402" y="413" type="curve" smooth="yes"/>
      <point x="420" y="413"/>
      <point x="437" y="412"/>
      <point x="447" y="410" type="curve"/>
      <point x="463" y="498" type="line"/>
      <point x="458" y="499"/>
      <point x="444" y="500"/>
      <point x="428" y="500" type="curve" smooth="yes"/>
      <point x="303" y="500"/>
      <point x="234" y="434"/>
      <point x="193" y="350" type="curve"/>
      <point x="210" y="350" type="line"/>
      <point x="234" y="490" type="line"/>
      <point x="146" y="490" type="line"/>
      <point x="60" y="0" type="line"/>
      <point x="148" y="0" type="line"/>
    </contour>
  </outline>
</glyph>
<glyph name="s" format="2">
  <advance width="500"/>
  <unicode hex="0073"/>
  <guideline x="506" y="144" angle="80" identifier="A3HgAJlLz5"/>
  <guideline x="102" y="346" angle="80" identifier="gxtwt8IGDx"/>
  <guideline x="187" y="355" angle="80" identifier="jGwhRVO46c"/>
  <outline>
    <contour>
      <point x="27" y="164" type="line"/>
      <point x="26" y="158"/>
      <point x="26" y="151"/>
      <point x="26" y="144" type="curve" smooth="yes"/>
      <point x="26" y="51"/>
      <point x="97" y="-12"/>
      <point x="225" y="-12" type="curve" smooth="yes"/>
      <point x="387" y="-12"/>
      <point x="432" y="78"/>
      <point x="432" y="148" type="curve" smooth="yes"/>
      <point x="432" y="205"/>
      <point x="400" y="255"/>
      <point x="317" y="273" type="curve" smooth="yes"/>
      <point x="240" y="290" type="line" smooth="yes"/>
      <point x="183" y="303"/>
      <point x="159" y="319"/>
      <point x="159" y="353" type="curve" smooth="yes"/>
      <point x="159" y="398"/>
      <point x="196" y="435"/>
      <point x="272" y="435" type="curve" smooth="yes"/>
      <point x="338" y="435"/>
      <point x="374" y="402"/>
      <point x="374" y="358" type="curve" smooth="yes"/>
      <point x="374" y="355"/>
      <point x="374" y="352"/>
      <point x="374" y="349" type="curve"/>
      <point x="458" y="343" type="line"/>
      <point x="459" y="349"/>
      <point x="460" y="355"/>
      <point x="460" y="362" type="curve" smooth="yes"/>
      <point x="460" y="439"/>
      <point x="397" y="502"/>
      <point x="278" y="502" type="curve" smooth="yes"/>
      <point x="156" y="502"/>
      <point x="74" y="440"/>
      <point x="74" y="338" type="curve" smooth="yes"/>
      <point x="74" y="281"/>
      <point x="103" y="241"/>
      <point x="193" y="221" type="curve" smooth="yes"/>
      <point x="270" y="204" type="line" smooth="yes"/>
      <point x="325" y="192"/>
      <point x="344" y="166"/>
      <point x="344" y="132" type="curve" smooth="yes"/>
      <point x="344" y="87"/>
      <point x="314" y="55"/>
      <point x="233" y="55" type="curve" smooth="yes"/>
      <point x="156" y="55"/>
      <point x="117" y="88"/>
      <point x="117" y="142" type="curve" smooth="yes"/>
      <point x="117" y="145"/>
      <point x="117" y="148"/>
      <point x="118" y="154" type="curve"/>
    </contour>
  </outline>
</glyph>
<glyph name="t" format="2">
  <advance width="450"/>
  <unicode hex="0074"/>
  <guideline x="203" y="692" angle="90" name="center" identifier="061XwS4fv0"/>
  <outline>
    <contour>
      <point x="61" y="422" type="line"/>
      <point x="428" y="422" type="line"/>
      <point x="440" y="490" type="line"/>
      <point x="73" y="490" type="line"/>
    </contour>
    <contour>
      <point x="137" y="125" type="line" smooth="yes"/>
      <point x="135" y="114"/>
      <point x="134" y="103"/>
      <point x="134" y="93" type="curve" smooth="yes"/>
      <point x="134" y="24"/>
      <point x="182" y="-12"/>
      <point x="276" y="-12" type="curve" smooth="yes"/>
      <point x="307" y="-12"/>
      <point x="333" y="-9"/>
      <point x="353" y="-5" type="curve"/>
      <point x="366" y="66" type="line"/>
      <point x="344" y="64"/>
      <point x="323" y="63"/>
      <point x="298" y="63" type="curve" smooth="yes"/>
      <point x="255" y="63"/>
      <point x="226" y="74"/>
      <point x="226" y="116" type="curve" smooth="yes"/>
      <point x="226" y="122"/>
      <point x="227" y="129"/>
      <point x="228" y="136" type="curve" smooth="yes"/>
      <point x="318" y="646" type="line"/>
      <point x="230" y="646" type="line"/>
    </contour>
  </outline>
</glyph>
<glyph name="u" format="2">
  <advance width="550"/>
  <unicode hex="0075"/>
  <outline>
    <contour>
      <point x="429" y="0" type="line"/>
      <point x="515" y="490" type="line"/>
      <point x="427" y="490" type="line"/>
      <point x="372" y="175" type="line" smooth="yes"/>
      <point x="359" y="102"/>
      <point x="304" y="59"/>
      <point x="238" y="59" type="curve" smooth="yes"/>
      <point x="174" y="59"/>
      <point x="148" y="98"/>
      <point x="148" y="147" type="curve" smooth="yes"/>
      <point x="148" y="157"/>
      <point x="149" y="167"/>
      <point x="151" y="177" type="curve" smooth="yes"/>
      <point x="206" y="490" type="line"/>
      <point x="118" y="490" type="line"/>
      <point x="62" y="168" type="line" smooth="yes"/>
      <point x="60" y="156"/>
      <point x="59" y="144"/>
      <point x="59" y="133" type="curve" smooth="yes"/>
      <point x="59" y="55"/>
      <point x="110" y="-12"/>
      <point x="202" y="-12" type="curve" smooth="yes"/>
      <point x="274" y="-12"/>
      <point x="339" y="29"/>
      <point x="381" y="92" type="curve"/>
      <point x="357" y="92" type="line"/>
      <point x="341" y="0" type="line"/>
    </contour>
  </outline>
</glyph>
<glyph name="v" format="2">
  <advance width="550"/>
  <unicode hex="0076"/>
  <outline>
    <contour>
      <point x="185" y="0" type="line"/>
      <point x="281" y="0" type="line"/>
      <point x="566" y="490" type="line"/>
      <point x="469" y="490" type="line"/>
      <point x="218" y="50" type="line"/>
      <point x="259" y="50" type="line"/>
      <point x="159" y="490" type="line"/>
      <point x="70" y="490" type="line"/>
    </contour>
  </outline>
</glyph>
<glyph name="w" format="2">
  <advance width="760"/>
  <unicode hex="0077"/>
  <outline>
    <contour>
      <point x="145" y="0" type="line"/>
      <point x="221" y="0" type="line"/>
      <point x="417" y="404" type="line"/>
      <point x="395" y="404" type="line"/>
      <point x="453" y="0" type="line"/>
      <point x="530" y="0" type="line"/>
      <point x="774" y="490" type="line"/>
      <point x="683" y="490" type="line"/>
      <point x="473" y="50" type="line"/>
      <point x="520" y="50" type="line"/>
      <point x="458" y="490" type="line"/>
      <point x="375" y="490" type="line"/>
      <point x="171" y="56" type="line"/>
      <point x="213" y="56" type="line"/>
      <point x="156" y="490" type="line"/>
      <point x="71" y="490" type="line"/>
    </contour>
  </outline>
</glyph>
<glyph name="x" format="2">
  <advance width="500"/>
  <unicode hex="0078"/>
  <outline>
    <contour>
      <point x="68" y="490" type="line"/>
      <point x="211" y="223" type="line"/>
      <point x="227" y="223" type="line"/>
      <point x="348" y="0" type="line"/>
      <point x="442" y="0" type="line"/>
      <point x="291" y="270" type="line"/>
      <point x="274" y="275" type="line"/>
      <point x="162" y="490" type="line"/>
    </contour>
    <contour>
      <point x="513" y="490" type="line"/>
      <point x="409" y="490" type="line"/>
      <point x="229" y="275" type="line"/>
      <point x="214" y="272" type="line"/>
      <point x="-29" y="0" type="line"/>
      <point x="77" y="0" type="line"/>
      <point x="274" y="224" type="line"/>
      <point x="281" y="221" type="line"/>
    </contour>
  </outline>
</glyph>
<glyph name="y" format="2">
  <advance width="550"/>
  <unicode hex="0079"/>
  <outline>
    <contour>
      <point x="166" y="-180" type="line"/>
      <point x="565" y="490" type="line"/>
      <point x="466" y="490" type="line"/>
      <point x="217" y="57" type="line"/>
      <point x="198" y="28" type="line"/>
      <point x="68" y="-180" type="line"/>
    </contour>
    <contour>
      <point x="71" y="490" type="line"/>
      <point x="206" y="-60" type="line"/>
      <point x="269" y="47" type="line"/>
      <point x="161" y="490" type="line"/>
    </contour>
  </outline>
</glyph>
<glyph name="z" format="2">
  <advance width="500"/>
  <unicode hex="007A"/>
  <outline>
    <contour>
      <point x="28" y="62" type="line"/>
      <point x="17" y="0" type="line"/>
      <point x="398" y="0" type="line"/>
      <point x="411" y="73" type="line"/>
      <point x="82" y="73" type="line"/>
      <point x="104" y="34" type="line"/>
      <point x="472" y="436" type="line"/>
      <point x="481" y="490" type="line"/>
      <point x="102" y="490" type="line"/>
      <point x="89" y="417" type="line"/>
      <point x="421" y="417" type="line"/>
      <point x="400" y="469" type="line"/>
    </contour>
  </outline>
</glyph>
<glyph name="asciitilde" format="2">
  <advance width="550"/>
  <unicode hex="007E"/>
  <outline>
    <contour>
      <point x="363" y="246" type="curve" smooth="yes"/>
      <point x="423" y="246"/>
      <point x="487" y="303" name="inserted"/>
      <point x="509" y="391" type="curve"/>
      <point x="436" y="391" type="line"/>
      <point x="425" y="357"/>
      <point x="399" y="328" name="inserted"/>
      <point x="368" y="328" type="curve" smooth="yes"/>
      <point x="325" y="328"/>
      <point x="274" y="386" name="inserted"/>
      <point x="210" y="386" type="curve" smooth="yes"/>
      <point x="150" y="386"/>
      <point x="89" y="330" name="inserted"/>
      <point x="67" y="242" type="curve"/>
      <point x="140" y="242" type="line"/>
      <point x="151" y="276"/>
      <point x="177" y="304" name="inserted"/>
      <point x="208" y="304" type="curve" smooth="yes"/>
      <point x="251" y="304"/>
      <point x="302" y="246" name="inserted"/>
    </contour>
  </outline>
</glyph>
<glyph name="brokenbar" format="2">
  <advance width="300"/>
  <unicode hex="00A6"/>
  <outline>
    <contour>
      <point x="197" y="745" type="line"/>
      <point x="132" y="377" type="line"/>
      <point x="215" y="377" type="line"/>
      <point x="280" y="745" type="line"/>
    </contour>
    <contour>
      <point x="111" y="255" type="line"/>
      <point x="46" y="-113" type="line"/>
      <point x="129" y="-113" type="line"/>
      <point x="194" y="255" type="line"/>
    </contour>
  </outline>
</glyph>
<glyph name="section" format="2">
  <advance width="550"/>
  <unicode hex="00A7"/>
  <outline>
    <contour>
      <point x="391" y="125" type="line"/>
      <point x="476" y="181"/>
      <point x="503" y="238"/>
      <point x="503" y="292" type="curve" smooth="yes"/>
      <point x="503" y="354"/>
      <point x="468" y="399"/>
      <point x="384" y="432" type="curve" smooth="yes"/>
      <point x="302" y="464" type="line" smooth="yes"/>
      <point x="243" y="487"/>
      <point x="216" y="503"/>
      <point x="216" y="544" type="curve" smooth="yes"/>
      <point x="216" y="597"/>
      <point x="254" y="645"/>
      <point x="339" y="645" type="curve" smooth="yes"/>
      <point x="401" y="645"/>
      <point x="439" y="616"/>
      <point x="439" y="572" type="curve" smooth="yes"/>
      <point x="439" y="566"/>
      <point x="438" y="560"/>
      <point x="437" y="554" type="curve"/>
      <point x="521" y="545" type="line"/>
      <point x="522" y="552"/>
      <point x="523" y="560"/>
      <point x="523" y="567" type="curve" smooth="yes"/>
      <point x="523" y="656"/>
      <point x="459" y="712"/>
      <point x="345" y="712" type="curve" smooth="yes"/>
      <point x="215" y="712"/>
      <point x="131" y="639"/>
      <point x="131" y="530" type="curve" smooth="yes"/>
      <point x="131" y="467"/>
      <point x="164" y="430"/>
      <point x="254" y="395" type="curve" smooth="yes"/>
      <point x="336" y="363" type="line" smooth="yes"/>
      <point x="391" y="342"/>
      <point x="414" y="316"/>
      <point x="414" y="277" type="curve" smooth="yes"/>
      <point x="414" y="249"/>
      <point x="404" y="211"/>
      <point x="337" y="162" type="curve"/>
    </contour>
    <contour>
      <point x="22" y="58" type="line"/>
      <point x="21" y="49"/>
      <point x="20" y="41"/>
      <point x="20" y="33" type="curve" smooth="yes"/>
      <point x="20" y="-66"/>
      <point x="102" y="-126"/>
      <point x="223" y="-126" type="curve" smooth="yes"/>
      <point x="378" y="-126"/>
      <point x="446" y="-37"/>
      <point x="446" y="55" type="curve" smooth="yes"/>
      <point x="446" y="121"/>
      <point x="406" y="164"/>
      <point x="322" y="197" type="curve" smooth="yes"/>
      <point x="240" y="229" type="line" smooth="yes"/>
      <point x="181" y="252"/>
      <point x="154" y="268"/>
      <point x="154" y="313" type="curve" smooth="yes"/>
      <point x="154" y="346"/>
      <point x="168" y="385"/>
      <point x="244" y="429" type="curve"/>
      <point x="197" y="470" type="line"/>
      <point x="101" y="417"/>
      <point x="69" y="350"/>
      <point x="69" y="296" type="curve" smooth="yes"/>
      <point x="69" y="241"/>
      <point x="100" y="195"/>
      <point x="192" y="159" type="curve" smooth="yes"/>
      <point x="274" y="127" type="line" smooth="yes"/>
      <point x="330" y="105"/>
      <point x="356" y="82"/>
      <point x="356" y="40" type="curve" smooth="yes"/>
      <point x="356" y="-15"/>
      <point x="324" y="-59"/>
      <point x="232" y="-59" type="curve" smooth="yes"/>
      <point x="156" y="-59"/>
      <point x="112" y="-30"/>
      <point x="112" y="29" type="curve" smooth="yes"/>
      <point x="112" y="34"/>
      <point x="112" y="39"/>
      <point x="113" y="45" type="curve"/>
    </contour>
  </outline>
</glyph>
<glyph name="copyright" format="2">
  <advance width="760"/>
  <unicode hex="00A9"/>
  <outline>
    <contour>
      <point x="361" y="48" type="curve" smooth="yes"/>
      <point x="572" y="48"/>
      <point x="738" y="218"/>
      <point x="738" y="424" type="curve" smooth="yes"/>
      <point x="738" y="586"/>
      <point x="621" y="710"/>
      <point x="447" y="710" type="curve" smooth="yes"/>
      <point x="236" y="710"/>
      <point x="70" y="540"/>
      <point x="70" y="334" type="curve" smooth="yes"/>
      <point x="70" y="172"/>
      <point x="187" y="48"/>
    </contour>
    <contour>
      <point x="383" y="196" type="curve" smooth="yes"/>
      <point x="462" y="196"/>
      <point x="524" y="239"/>
      <point x="551" y="303" type="curve"/>
      <point x="491" y="327" type="line"/>
      <point x="473" y="283"/>
      <point x="437" y="257"/>
      <point x="390" y="257" type="curve" smooth="yes"/>
      <point x="337" y="257"/>
      <point x="300" y="293"/>
      <point x="300" y="358" type="curve" smooth="yes"/>
      <point x="300" y="438"/>
      <point x="353" y="502"/>
      <point x="424" y="502" type="curve" smooth="yes"/>
      <point x="473" y="502"/>
      <point x="505" y="474"/>
      <point x="509" y="427" type="curve"/>
      <point x="572" y="441" type="line"/>
      <point x="566" y="511"/>
      <point x="513" y="562"/>
      <point x="430" y="562" type="curve" smooth="yes"/>
      <point x="315" y="562"/>
      <point x="229" y="472"/>
      <point x="229" y="353" type="curve" smooth="yes"/>
      <point x="229" y="259"/>
      <point x="291" y="196"/>
    </contour>
    <contour>
      <point x="367" y="97" type="curve" smooth="yes"/>
      <point x="221" y="97"/>
      <point x="123" y="195"/>
      <point x="123" y="334" type="curve" smooth="yes"/>
      <point x="123" y="504"/>
      <point x="256" y="662"/>
      <point x="441" y="662" type="curve" smooth="yes"/>
      <point x="587" y="662"/>
      <point x="686" y="563"/>
      <point x="686" y="424" type="curve" smooth="yes"/>
      <point x="686" y="254"/>
      <point x="552" y="97"/>
    </contour>
  </outline>
</glyph>
<glyph name="ordfeminine" format="2">
  <advance width="450"/>
  <unicode hex="00AA"/>
  <outline>
    <contour>
      <point x="286" y="712" type="curve" smooth="yes"/>
      <point x="177" y="712"/>
      <point x="128" y="654"/>
      <point x="114" y="595" type="curve"/>
      <point x="193" y="581" type="line"/>
      <point x="202" y="615"/>
      <point x="222" y="648"/>
      <point x="281" y="648" type="curve" smooth="yes"/>
      <point x="336" y="648"/>
      <point x="362" y="623"/>
      <point x="354" y="580" type="curve" smooth="yes"/>
      <point x="331" y="451" type="line" smooth="yes"/>
      <point x="323" y="405"/>
      <point x="266" y="364"/>
      <point x="207" y="364" type="curve" smooth="yes"/>
      <point x="177" y="364"/>
      <point x="146" y="377"/>
      <point x="146" y="411" type="curve" smooth="yes"/>
      <point x="146" y="454"/>
      <point x="174" y="479"/>
      <point x="228" y="483" type="curve" smooth="yes"/>
      <point x="363" y="495" type="line"/>
      <point x="373" y="553" type="line"/>
      <point x="224" y="541" type="line" smooth="yes"/>
      <point x="128" y="533"/>
      <point x="66" y="482"/>
      <point x="66" y="402" type="curve" smooth="yes"/>
      <point x="66" y="341"/>
      <point x="112" y="301"/>
      <point x="194" y="301" type="curve" smooth="yes"/>
      <point x="261" y="301"/>
      <point x="308" y="333"/>
      <point x="342" y="382" type="curve"/>
      <point x="320" y="387" type="line"/>
      <point x="310" y="319"/>
      <point x="351.73077" y="305.0"/>
      <point x="393" y="305" type="curve" smooth="yes"/>
      <point x="404" y="305"/>
      <point x="411" y="306"/>
      <point x="415" y="307" type="curve"/>
      <point x="426" y="370" type="line"/>
      <point x="424" y="370"/>
      <point x="421" y="370"/>
      <point x="418" y="370" type="curve" smooth="yes"/>
      <point x="399" y="370"/>
      <point x="395" y="380"/>
      <point x="398" y="398" type="curve" smooth="yes"/>
      <point x="430" y="581" type="line" smooth="yes"/>
      <point x="445" y="664"/>
      <point x="395.70149" y="712.0"/>
    </contour>
  </outline>
</glyph>
<glyph name="registered" format="2">
  <advance width="550"/>
  <unicode hex="00AE"/>
  <outline>
    <contour>
      <point x="543" y="514" type="curve" smooth="yes"/>
      <point x="543" y="623"/>
      <point x="464" y="705"/>
      <point x="346" y="705" type="curve" smooth="yes"/>
      <point x="200" y="705"/>
      <point x="91" y="588"/>
      <point x="91" y="450" type="curve" smooth="yes"/>
      <point x="91" y="341"/>
      <point x="170" y="259"/>
      <point x="288" y="259" type="curve" smooth="yes"/>
      <point x="434" y="259"/>
      <point x="543" y="376"/>
    </contour>
    <contour>
      <point x="338" y="660" type="curve" smooth="yes"/>
      <point x="436" y="660"/>
      <point x="494" y="599"/>
      <point x="494" y="511" type="curve" smooth="yes"/>
      <point x="494" y="406"/>
      <point x="417" y="304"/>
      <point x="296" y="304" type="curve" smooth="yes"/>
      <point x="198" y="304"/>
      <point x="140" y="365"/>
      <point x="140" y="453" type="curve" smooth="yes"/>
      <point x="140" y="558"/>
      <point x="217" y="660"/>
    </contour>
    <contour>
      <point x="249" y="589" type="line"/>
      <point x="211" y="375" type="line"/>
      <point x="262" y="375" type="line"/>
      <point x="300" y="589" type="line"/>
    </contour>
    <contour>
      <point x="295" y="462" type="line"/>
      <point x="309" y="432"/>
      <point x="332" y="399"/>
      <point x="350" y="375" type="curve"/>
      <point x="406" y="375" type="line"/>
      <point x="406" y="377" type="line"/>
      <point x="390" y="400"/>
      <point x="363" y="433"/>
      <point x="350" y="462" type="curve"/>
    </contour>
    <contour>
      <point x="335" y="494" type="curve" smooth="yes"/>
      <point x="251" y="494" type="line"/>
      <point x="244" y="453" type="line"/>
      <point x="325" y="453" type="line" smooth="yes"/>
      <point x="392" y="453"/>
      <point x="421" y="486"/>
      <point x="421" y="528" type="curve" smooth="yes"/>
      <point x="421" y="564"/>
      <point x="398" y="589"/>
      <point x="350" y="589" type="curve" smooth="yes"/>
      <point x="269" y="589" type="line"/>
      <point x="261" y="546" type="line"/>
      <point x="344" y="546" type="line" smooth="yes"/>
      <point x="360" y="546"/>
      <point x="369" y="538"/>
      <point x="369" y="524" type="curve" smooth="yes"/>
      <point x="369" y="511"/>
      <point x="361" y="494"/>
    </contour>
  </outline>
</glyph>
<glyph name="degree" format="2">
  <advance width="450"/>
  <unicode hex="00B0"/>
  <outline>
    <contour>
      <point x="431" y="580" type="curve" smooth="yes"/>
      <point x="431" y="655"/>
      <point x="376" y="708"/>
      <point x="300" y="708" type="curve" smooth="yes"/>
      <point x="206" y="708"/>
      <point x="129" y="636"/>
      <point x="129" y="538" type="curve" smooth="yes"/>
      <point x="129" y="463"/>
      <point x="184" y="410"/>
      <point x="260" y="410" type="curve" smooth="yes"/>
      <point x="354" y="410"/>
      <point x="431" y="482"/>
    </contour>
    <contour>
      <point x="291" y="642" type="curve" smooth="yes"/>
      <point x="332" y="642"/>
      <point x="361" y="614"/>
      <point x="361" y="573" type="curve" smooth="yes"/>
      <point x="361" y="518"/>
      <point x="317" y="476"/>
      <point x="269" y="476" type="curve" smooth="yes"/>
      <point x="228" y="476"/>
      <point x="199" y="504"/>
      <point x="199" y="545" type="curve" smooth="yes"/>
      <point x="199" y="600"/>
      <point x="243" y="642"/>
    </contour>
  </outline>
</glyph>
<glyph name="ordmasculine" format="2">
  <advance width="450"/>
  <unicode hex="00BA"/>
  <outline>
    <contour>
      <point x="387" y="538" type="curve" smooth="yes"/>
      <point x="387" y="456"/>
      <point x="340" y="367"/>
      <point x="251" y="367" type="curve" smooth="yes"/>
      <point x="191" y="367"/>
      <point x="155" y="406"/>
      <point x="155" y="474" type="curve" smooth="yes"/>
      <point x="155" y="556"/>
      <point x="202" y="646"/>
      <point x="291" y="646" type="curve" smooth="yes"/>
      <point x="351" y="646"/>
      <point x="387" y="606"/>
    </contour>
    <contour>
      <point x="76" y="471" type="curve" smooth="yes"/>
      <point x="76" y="365"/>
      <point x="144" y="301"/>
      <point x="245" y="301" type="curve" smooth="yes"/>
      <point x="382" y="301"/>
      <point x="466" y="420"/>
      <point x="466" y="542" type="curve" smooth="yes"/>
      <point x="466" y="648"/>
      <point x="398" y="712"/>
      <point x="297" y="712" type="curve" smooth="yes"/>
      <point x="160" y="712"/>
      <point x="76" y="593"/>
    </contour>
  </outline>
</glyph>
<glyph name="AE" format="2">
  <advance width="760"/>
  <unicode hex="00C6"/>
  <guideline x="697" y="700" angle="90" name="center" identifier="l4Ljxl2SyM"/>
  <outline>
    <contour>
      <point x="-4" y="0" type="line"/>
      <point x="92" y="0" type="line"/>
      <point x="407" y="618" type="line"/>
      <point x="460" y="618" type="line"/>
      <point x="474" y="700" type="line"/>
      <point x="357" y="700" type="line"/>
    </contour>
    <contour>
      <point x="178" y="222" type="line"/>
      <point x="417" y="222" type="line"/>
      <point x="431" y="304" type="line"/>
      <point x="192" y="304" type="line"/>
    </contour>
    <contour>
      <point x="372" y="0" type="line"/>
      <point x="683" y="0" type="line"/>
      <point x="697" y="82" type="line"/>
      <point x="386" y="82" type="line"/>
    </contour>
    <contour>
      <point x="333" y="0" type="line"/>
      <point x="421" y="0" type="line"/>
      <point x="544" y="700" type="line"/>
      <point x="456" y="700" type="line"/>
    </contour>
    <contour>
      <point x="433" y="315" type="line"/>
      <point x="632" y="315" type="line"/>
      <point x="647" y="396" type="line"/>
      <point x="448" y="396" type="line"/>
    </contour>
    <contour>
      <point x="477" y="618" type="line"/>
      <point x="774" y="618" type="line"/>
      <point x="788" y="700" type="line"/>
      <point x="491" y="700" type="line"/>
    </contour>
  </outline>
</glyph>
<glyph name="Icircumflex" format="2">
  <advance width="300"/>
  <unicode hex="00CE"/>
  <outline>
    <contour>
      <point x="218" y="892" type="line"/>
      <point x="88" y="771" type="line"/>
      <point x="166" y="771" type="line"/>
      <point x="286" y="855" type="line"/>
      <point x="234" y="855" type="line"/>
      <point x="324" y="771" type="line"/>
      <point x="394" y="771" type="line"/>
      <point x="308" y="892" type="line"/>
    </contour>
    <component base="I" identifier="4C35807B"/>
  </outline>
</glyph>
<glyph name="Idieresis" format="2">
  <advance width="300"/>
  <unicode hex="00CF"/>
  <outline>
    <contour>
      <point x="117" y="878" type="line"/>
      <point x="98" y="771" type="line"/>
      <point x="198" y="771" type="line"/>
      <point x="217" y="878" type="line"/>
    </contour>
    <contour>
      <point x="306" y="878" type="line"/>
      <point x="287" y="771" type="line"/>
      <point x="387" y="771" type="line"/>
      <point x="406" y="878" type="line"/>
    </contour>
    <component base="I" identifier="268F9CEF"/>
  </outline>
</glyph>
<glyph name="germandbls" format="2">
  <advance width="550"/>
  <unicode hex="00DF"/>
  <outline>
    <contour>
      <point x="125" y="524" type="curve" smooth="yes"/>
      <point x="32" y="0" type="line"/>
      <point x="120" y="0" type="line"/>
      <point x="213" y="523" type="line" smooth="yes"/>
      <point x="225" y="589"/>
      <point x="270" y="637"/>
      <point x="339" y="637" type="curve" smooth="yes"/>
      <point x="402" y="637"/>
      <point x="440" y="599"/>
      <point x="440" y="540" type="curve" smooth="yes"/>
      <point x="440" y="476"/>
      <point x="399" y="411"/>
      <point x="301" y="411" type="curve" smooth="yes"/>
      <point x="268" y="411" type="line"/>
      <point x="254" y="335" type="line"/>
      <point x="282" y="335" type="line" smooth="yes"/>
      <point x="361" y="335"/>
      <point x="415" y="290"/>
      <point x="415" y="205" type="curve" smooth="yes"/>
      <point x="415" y="129"/>
      <point x="371" y="64"/>
      <point x="281" y="64" type="curve"/>
      <point x="246" y="64"/>
      <point x="220" y="73"/>
      <point x="204" y="80" type="curve"/>
      <point x="190" y="4" type="line"/>
      <point x="205" y="-2"/>
      <point x="234" y="-12"/>
      <point x="280" y="-12" type="curve" smooth="yes"/>
      <point x="437" y="-12"/>
      <point x="505" y="104"/>
      <point x="505" y="212" type="curve" smooth="yes"/>
      <point x="505" y="309"/>
      <point x="452" y="359"/>
      <point x="380" y="376" type="curve"/>
      <point x="379" y="370" type="line"/>
      <point x="459" y="389"/>
      <point x="530" y="453"/>
      <point x="530" y="553" type="curve" smooth="yes"/>
      <point x="530" y="647"/>
      <point x="464" y="712"/>
      <point x="350" y="712" type="curve" smooth="yes"/>
      <point x="233" y="712"/>
      <point x="145" y="637"/>
    </contour>
  </outline>
</glyph>
<glyph name="ae" format="2">
  <advance width="760"/>
  <unicode hex="00E6"/>
  <outline>
    <contour>
      <point x="44" y="126" type="curve" smooth="yes"/>
      <point x="44" y="39"/>
      <point x="104" y="-12"/>
      <point x="192" y="-12" type="curve" smooth="yes"/>
      <point x="298" y="-12"/>
      <point x="373" y="61"/>
      <point x="398" y="206" type="curve" smooth="yes"/>
      <point x="418" y="324" type="line" smooth="yes"/>
      <point x="421" y="339"/>
      <point x="422" y="353"/>
      <point x="422" y="366" type="curve" smooth="yes"/>
      <point x="422" y="453"/>
      <point x="366" y="502"/>
      <point x="277" y="502" type="curve" smooth="yes"/>
      <point x="164" y="502"/>
      <point x="114" y="428"/>
      <point x="99" y="357" type="curve"/>
      <point x="178" y="342" type="line"/>
      <point x="187" y="386"/>
      <point x="210" y="430"/>
      <point x="274" y="430" type="curve" smooth="yes"/>
      <point x="322" y="430"/>
      <point x="347" y="406"/>
      <point x="347" y="366" type="curve" smooth="yes"/>
      <point x="347" y="358"/>
      <point x="346" y="349"/>
      <point x="344" y="340" type="curve" smooth="yes"/>
      <point x="313" y="157" type="line" smooth="yes"/>
      <point x="301" y="93"/>
      <point x="257" y="59"/>
      <point x="205" y="59" type="curve" smooth="yes"/>
      <point x="159" y="59"/>
      <point x="129" y="87"/>
      <point x="129" y="128" type="curve" smooth="yes"/>
      <point x="129" y="194"/>
      <point x="176" y="221"/>
      <point x="244" y="224" type="curve" smooth="yes"/>
      <point x="357" y="229" type="line"/>
      <point x="369" y="296" type="line"/>
      <point x="249" y="290" type="line" smooth="yes"/>
      <point x="132" y="285"/>
      <point x="44" y="233"/>
    </contour>
    <contour>
      <point x="336" y="186" type="curve" smooth="yes"/>
      <point x="336" y="62"/>
      <point x="396" y="-12"/>
      <point x="491" y="-12" type="curve" smooth="yes"/>
      <point x="580" y="-12"/>
      <point x="638" y="44"/>
      <point x="672" y="133" type="curve"/>
      <point x="605" y="154" type="line"/>
      <point x="583" y="94"/>
      <point x="551" y="59"/>
      <point x="500" y="59" type="curve" smooth="yes"/>
      <point x="444" y="59"/>
      <point x="410" y="101"/>
      <point x="410" y="181" type="curve" smooth="yes"/>
      <point x="410" y="277"/>
      <point x="447" y="431"/>
      <point x="547" y="431" type="curve" smooth="yes"/>
      <point x="592" y="431"/>
      <point x="619" y="398"/>
      <point x="619" y="328" type="curve" smooth="yes"/>
      <point x="619" y="304"/>
      <point x="617" y="277"/>
      <point x="611" y="246" type="curve"/>
      <point x="636" y="292" type="line"/>
      <point x="385" y="292" type="line"/>
      <point x="374" y="226" type="line"/>
      <point x="686" y="226" type="line"/>
      <point x="689" y="241" type="line" smooth="yes"/>
      <point x="695" y="270"/>
      <point x="696" y="296"/>
      <point x="696" y="322" type="curve" smooth="yes"/>
      <point x="696" y="429"/>
      <point x="648" y="502"/>
      <point x="554" y="502" type="curve" smooth="yes"/>
      <point x="403" y="502"/>
      <point x="336" y="327"/>
    </contour>
  </outline>
</glyph>
<glyph name="icircumflex" format="2">
  <advance width="300"/>
  <unicode hex="00EE"/>
  <outline>
    <contour>
      <point x="188" y="700" type="line"/>
      <point x="69" y="570" type="line"/>
      <point x="143" y="570" type="line"/>
      <point x="257" y="671" type="line"/>
      <point x="205" y="671" type="line"/>
      <point x="285" y="570" type="line"/>
      <point x="351" y="570" type="line"/>
      <point x="276" y="700" type="line"/>
    </contour>
    <component base="dotlessi" identifier="61D76FD6"/>
  </outline>
</glyph>
<glyph name="idieresis" format="2">
  <advance width="300"/>
  <unicode hex="00EF"/>
  <outline>
    <contour>
      <point x="96" y="700" type="line"/>
      <point x="78" y="597" type="line"/>
      <point x="174" y="597" type="line"/>
      <point x="192" y="700" type="line"/>
    </contour>
    <contour>
      <point x="267" y="700" type="line"/>
      <point x="249" y="597" type="line"/>
      <point x="345" y="597" type="line"/>
      <point x="363" y="700" type="line"/>
    </contour>
    <component base="dotlessi" identifier="5D022478"/>
  </outline>
</glyph>
<glyph name="eth" format="2">
  <advance width="550"/>
  <unicode hex="00F0"/>
  <outline>
    <contour>
      <point x="422" y="280" type="curve" smooth="yes"/>
      <point x="422" y="171"/>
      <point x="363" y="58"/>
      <point x="251" y="58" type="curve" smooth="yes"/>
      <point x="169" y="58"/>
      <point x="127" y="110"/>
      <point x="127" y="199" type="curve" smooth="yes"/>
      <point x="127" y="308"/>
      <point x="186" y="422"/>
      <point x="299" y="422" type="curve" smooth="yes"/>
      <point x="380" y="422"/>
      <point x="422" y="369"/>
    </contour>
    <contour>
      <point x="519" y="353" type="curve" smooth="yes"/>
      <point x="519" y="533"/>
      <point x="408" y="658"/>
      <point x="288" y="713" type="curve"/>
      <point x="191" y="693" type="line"/>
      <point x="347" y="619"/>
      <point x="410" y="529"/>
      <point x="431" y="417" type="curve"/>
      <point x="440" y="417" type="line"/>
      <point x="404" y="477"/>
      <point x="353" y="490"/>
      <point x="305" y="490" type="curve" smooth="yes"/>
      <point x="130" y="490"/>
      <point x="38" y="345"/>
      <point x="38" y="196" type="curve" smooth="yes"/>
      <point x="38" y="66"/>
      <point x="120" y="-12"/>
      <point x="245" y="-12" type="curve" smooth="yes"/>
      <point x="435" y="-12"/>
      <point x="519" y="157"/>
    </contour>
    <contour>
      <point x="201" y="518" type="line"/>
      <point x="525" y="637" type="line"/>
      <point x="507" y="693" type="line"/>
      <point x="183" y="574" type="line"/>
    </contour>
  </outline>
</glyph>
<glyph name="Aogonek" format="2">
  <advance width="680"/>
  <unicode hex="0104"/>
  <outline>
    <contour>
      <point x="174" y="289" type="line"/>
      <point x="160" y="210" type="line"/>
      <point x="502" y="210" type="line"/>
      <point x="516" y="289" type="line"/>
    </contour>
    <contour>
      <point x="525" y="-42" type="line"/>
      <point x="608" y="0" type="line"/>
      <point x="466" y="700" type="line"/>
      <point x="374" y="700" type="line"/>
      <point x="-14" y="0" type="line"/>
      <point x="84" y="0" type="line"/>
      <point x="432" y="632" type="line"/>
      <point x="391" y="632" type="line"/>
    </contour>
    <contour>
      <point x="517" y="-197" type="curve"/>
      <point x="534" y="-197"/>
      <point x="562" y="-195"/>
      <point x="586" y="-189" type="curve"/>
      <point x="597" y="-129" type="line"/>
      <point x="579" y="-131"/>
      <point x="563" y="-134"/>
      <point x="545" y="-134" type="curve" smooth="yes"/>
      <point x="518" y="-134"/>
      <point x="500" y="-127"/>
      <point x="500" y="-106" type="curve" smooth="yes"/>
      <point x="500" y="-70"/>
      <point x="551" y="-31"/>
      <point x="607" y="0" type="curve"/>
      <point x="523" y="0" type="line"/>
      <point x="474" y="-26"/>
      <point x="422" y="-63"/>
      <point x="422" y="-123" type="curve" smooth="yes"/>
      <point x="422" y="-165"/>
      <point x="447" y="-197"/>
    </contour>
  </outline>
</glyph>
<glyph name="aogonek" format="2">
  <advance width="550"/>
  <unicode hex="0105"/>
  <outline>
    <contour>
      <point x="365" y="-205" type="curve" smooth="yes"/>
      <point x="382" y="-205"/>
      <point x="410" y="-203"/>
      <point x="434" y="-197" type="curve"/>
      <point x="445" y="-137" type="line"/>
      <point x="427" y="-139"/>
      <point x="411" y="-142"/>
      <point x="393" y="-142" type="curve" smooth="yes"/>
      <point x="366" y="-142"/>
      <point x="348" y="-135"/>
      <point x="348" y="-114" type="curve" smooth="yes"/>
      <point x="348" y="-78"/>
      <point x="399" y="-39"/>
      <point x="455" y="-8" type="curve"/>
      <point x="396" y="4" type="line"/>
      <point x="341" y="-22"/>
      <point x="270" y="-61"/>
      <point x="270" y="-131" type="curve" smooth="yes"/>
      <point x="270" y="-173"/>
      <point x="295" y="-205"/>
    </contour>
    <component base="a"/>
  </outline>
</glyph>
<glyph name="dcroat" format="2">
  <advance width="600"/>
  <unicode hex="0111"/>
  <outline>
    <contour>
      <point x="324" y="554" type="line"/>
      <point x="632" y="554" type="line"/>
      <point x="644" y="619" type="line"/>
      <point x="336" y="619" type="line"/>
    </contour>
    <component base="d" identifier="A9DBEBD0"/>
  </outline>
</glyph>
<glyph name="eogonek" format="2">
  <advance width="550"/>
  <unicode hex="0119"/>
  <outline>
    <contour>
      <point x="45" y="200" type="curve" smooth="yes"/>
      <point x="45" y="65"/>
      <point x="127" y="-12"/>
      <point x="248" y="-13" type="curve" smooth="yes"/>
      <point x="249" y="-13"/>
      <point x="250" y="-13"/>
      <point x="251" y="-13" type="curve"/>
      <point x="245" y="3" type="line"/>
      <point x="195" y="-23"/>
      <point x="138" y="-61"/>
      <point x="138" y="-123" type="curve" smooth="yes"/>
      <point x="138" y="-165"/>
      <point x="163" y="-197"/>
      <point x="233" y="-197" type="curve" smooth="yes"/>
      <point x="250" y="-197"/>
      <point x="278" y="-195"/>
      <point x="302" y="-189" type="curve"/>
      <point x="313" y="-129" type="line"/>
      <point x="295" y="-131"/>
      <point x="279" y="-134"/>
      <point x="261" y="-134" type="curve" smooth="yes"/>
      <point x="234" y="-134"/>
      <point x="216" y="-127"/>
      <point x="216" y="-106" type="curve" smooth="yes"/>
      <point x="216" y="-72"/>
      <point x="264" y="-21"/>
      <point x="321" y="-4" type="curve" smooth="yes"/>
      <point x="392" y="17"/>
      <point x="446" y="64"/>
      <point x="480" y="134" type="curve"/>
      <point x="407" y="161" type="line"/>
      <point x="379" y="99"/>
      <point x="329" y="58"/>
      <point x="258" y="58" type="curve" smooth="yes"/>
      <point x="171" y="58"/>
      <point x="126" y="113"/>
      <point x="134" y="226" type="curve"/>
      <point x="496" y="226" type="line"/>
      <point x="498" y="241" type="line" smooth="yes"/>
      <point x="501" y="263"/>
      <point x="503" y="278"/>
      <point x="503" y="298" type="curve" smooth="yes"/>
      <point x="503" y="419"/>
      <point x="437" y="502"/>
      <point x="318" y="502" type="curve" smooth="yes"/>
      <point x="148" y="502"/>
      <point x="45" y="356"/>
    </contour>
    <contour>
      <point x="147" y="292" type="line"/>
      <point x="170" y="368"/>
      <point x="224" y="432"/>
      <point x="308" y="432" type="curve" smooth="yes"/>
      <point x="376" y="432"/>
      <point x="425" y="394"/>
      <point x="421" y="292" type="curve"/>
    </contour>
  </outline>
</glyph>
<glyph name="Hbar" format="2">
  <advance width="760"/>
  <unicode hex="0126"/>
  <outline>
    <contour>
      <point x="88" y="500" type="line"/>
      <point x="762" y="500" type="line"/>
      <point x="776" y="578" type="line"/>
      <point x="102" y="578" type="line"/>
    </contour>
    <contour>
      <point x="180" y="300" type="line"/>
      <point x="601" y="300" type="line"/>
      <point x="615" y="382" type="line"/>
      <point x="194" y="382" type="line"/>
    </contour>
    <contour>
      <point x="626" y="700" type="line"/>
      <point x="503" y="0" type="line"/>
      <point x="594" y="0" type="line"/>
      <point x="717" y="700" type="line"/>
    </contour>
    <contour>
      <point x="203" y="700" type="line"/>
      <point x="80" y="0" type="line"/>
      <point x="171" y="0" type="line"/>
      <point x="294" y="700" type="line"/>
    </contour>
  </outline>
</glyph>
<glyph name="hbar" format="2">
  <advance width="550"/>
  <unicode hex="0127"/>
  <outline>
    <contour>
      <point x="365" y="554" type="line"/>
      <point x="377" y="619" type="line"/>
      <point x="69" y="619" type="line"/>
      <point x="57" y="554" type="line"/>
    </contour>
    <component base="h" identifier="983B9201"/>
  </outline>
</glyph>
<glyph name="Itilde" format="2">
  <advance width="300"/>
  <unicode hex="0128"/>
  <outline>
    <contour>
      <point x="203" y="878" type="curve" smooth="yes"/>
      <point x="155" y="878"/>
      <point x="122" y="836"/>
      <point x="108" y="771" type="curve"/>
      <point x="165" y="771" type="line"/>
      <point x="173" y="799"/>
      <point x="182" y="812"/>
      <point x="198" y="812" type="curve" smooth="yes"/>
      <point x="226" y="812"/>
      <point x="258" y="778"/>
      <point x="301" y="778" type="curve" smooth="yes"/>
      <point x="349" y="778"/>
      <point x="382" y="820"/>
      <point x="396" y="885" type="curve"/>
      <point x="338" y="885" type="line"/>
      <point x="331" y="857"/>
      <point x="322" y="844"/>
      <point x="306" y="844" type="curve" smooth="yes"/>
      <point x="278" y="844"/>
      <point x="246" y="878"/>
    </contour>
    <component base="I" identifier="7D476058"/>
  </outline>
</glyph>
<glyph name="itilde" format="2">
  <advance width="300"/>
  <unicode hex="0129"/>
  <outline>
    <contour>
      <point x="173" y="677" type="curve" smooth="yes"/>
      <point x="124" y="677"/>
      <point x="93" y="635"/>
      <point x="79" y="570" type="curve"/>
      <point x="137" y="570" type="line"/>
      <point x="145" y="598"/>
      <point x="152" y="612"/>
      <point x="169" y="612" type="curve" smooth="yes"/>
      <point x="196" y="612"/>
      <point x="227" y="579"/>
      <point x="269" y="579" type="curve" smooth="yes"/>
      <point x="318" y="579"/>
      <point x="349" y="621"/>
      <point x="363" y="686" type="curve"/>
      <point x="304" y="686" type="line"/>
      <point x="297" y="658"/>
      <point x="290" y="644"/>
      <point x="273" y="644" type="curve" smooth="yes"/>
      <point x="246" y="644"/>
      <point x="215" y="677"/>
    </contour>
    <component base="dotlessi" identifier="DEE141D0"/>
  </outline>
</glyph>
<glyph name="Imacron" format="2">
  <advance width="300"/>
  <unicode hex="012A"/>
  <outline>
    <contour>
      <point x="119" y="776" type="line"/>
      <point x="373" y="776" type="line"/>
      <point x="385" y="844" type="line"/>
      <point x="131" y="844" type="line"/>
    </contour>
    <component base="I" identifier="061A812D"/>
  </outline>
</glyph>
<glyph name="imacron" format="2">
  <advance width="300"/>
  <unicode hex="012B"/>
  <outline>
    <contour>
      <point x="91" y="604" type="line"/>
      <point x="339" y="604" type="line"/>
      <point x="351" y="670" type="line"/>
      <point x="103" y="670" type="line"/>
    </contour>
    <component base="dotlessi" identifier="9E8946E0"/>
  </outline>
</glyph>
<glyph name="Ibreve" format="2">
  <advance width="300"/>
  <unicode hex="012C"/>
  <outline>
    <contour>
      <point x="129" y="892" type="line"/>
      <point x="117" y="822"/>
      <point x="160" y="761"/>
      <point x="248" y="761" type="curve" smooth="yes"/>
      <point x="337" y="761"/>
      <point x="387" y="822"/>
      <point x="399" y="892" type="curve"/>
      <point x="333" y="892" type="line"/>
      <point x="326" y="854"/>
      <point x="301" y="823"/>
      <point x="255" y="823" type="curve" smooth="yes"/>
      <point x="209" y="823"/>
      <point x="190" y="854"/>
      <point x="195" y="892" type="curve"/>
    </contour>
    <component base="I" identifier="A85477AC"/>
  </outline>
</glyph>
<glyph name="ibreve" format="2">
  <advance width="300"/>
  <unicode hex="012D"/>
  <outline>
    <contour>
      <point x="100" y="700" type="line"/>
      <point x="88" y="626"/>
      <point x="129" y="565"/>
      <point x="217" y="565" type="curve" smooth="yes"/>
      <point x="306" y="565"/>
      <point x="354" y="626"/>
      <point x="366" y="700" type="curve"/>
      <point x="300" y="700" type="line"/>
      <point x="294" y="658"/>
      <point x="268" y="627"/>
      <point x="223" y="627" type="curve" smooth="yes"/>
      <point x="178" y="627"/>
      <point x="160" y="658"/>
      <point x="166" y="700" type="curve"/>
    </contour>
    <component base="dotlessi" identifier="D3550E00"/>
  </outline>
</glyph>
<glyph name="dotlessi" format="2">
  <advance width="300"/>
  <unicode hex="0131"/>
  <outline>
    <contour>
      <point x="75" y="69" type="line"/>
      <point x="63" y="0" type="line"/>
      <point x="151" y="0" type="line"/>
      <point x="163" y="69" type="line"/>
    </contour>
    <contour>
      <point x="149" y="490" type="line"/>
      <point x="137" y="421" type="line"/>
      <point x="225" y="421" type="line"/>
      <point x="237" y="490" type="line"/>
    </contour>
    <contour>
      <point x="149" y="490" type="line"/>
      <point x="63" y="0" type="line"/>
      <point x="151" y="0" type="line"/>
      <point x="237" y="490" type="line"/>
    </contour>
  </outline>
</glyph>
<glyph name="IJ" format="2">
  <advance width="760"/>
  <unicode hex="0132"/>
  <outline>
    <contour>
      <point x="189" y="700" type="line"/>
      <point x="65" y="0" type="line"/>
      <point x="156" y="0" type="line"/>
      <point x="280" y="700" type="line"/>
    </contour>
    <contour>
      <point x="650" y="187" type="curve" smooth="yes"/>
      <point x="741" y="700" type="line"/>
      <point x="651" y="700" type="line"/>
      <point x="561" y="192" type="line" smooth="yes"/>
      <point x="548" y="120"/>
      <point x="518" y="69"/>
      <point x="446" y="69" type="curve" smooth="yes"/>
      <point x="351" y="69"/>
      <point x="336" y="141"/>
      <point x="344" y="190" type="curve"/>
      <point x="251" y="202" type="line"/>
      <point x="229" y="86"/>
      <point x="304" y="-12"/>
      <point x="439" y="-12" type="curve" smooth="yes"/>
      <point x="556" y="-12"/>
      <point x="628" y="61"/>
    </contour>
  </outline>
</glyph>
<glyph name="ij" format="2">
  <advance width="500"/>
  <unicode hex="0133"/>
  <outline>
    <contour>
      <point x="51" y="69" type="line"/>
      <point x="39" y="0" type="line"/>
      <point x="127" y="0" type="line"/>
      <point x="139" y="69" type="line"/>
    </contour>
    <contour>
      <point x="125" y="490" type="line"/>
      <point x="113" y="421" type="line"/>
      <point x="201" y="421" type="line"/>
      <point x="213" y="490" type="line"/>
    </contour>
    <contour>
      <point x="125" y="490" type="line"/>
      <point x="39" y="0" type="line"/>
      <point x="127" y="0" type="line"/>
      <point x="213" y="490" type="line"/>
    </contour>
    <contour>
      <point x="158" y="700" type="line"/>
      <point x="140" y="597" type="line"/>
      <point x="236" y="597" type="line"/>
      <point x="254" y="700" type="line"/>
    </contour>
    <contour>
      <point x="362" y="-73" type="curve" smooth="yes"/>
      <point x="461" y="490" type="line"/>
      <point x="373" y="490" type="line"/>
      <point x="275" y="-65" type="line" smooth="yes"/>
      <point x="269" y="-101"/>
      <point x="248" y="-113"/>
      <point x="217" y="-113" type="curve" smooth="yes"/>
      <point x="196" y="-113"/>
      <point x="185" y="-111"/>
      <point x="172" y="-109" type="curve"/>
      <point x="160" y="-180" type="line"/>
      <point x="173" y="-184"/>
      <point x="197" y="-189"/>
      <point x="223" y="-189" type="curve" smooth="yes"/>
      <point x="285" y="-189"/>
      <point x="346" y="-165"/>
    </contour>
    <contour>
      <point x="362" y="428" type="line"/>
      <point x="450" y="428" type="line"/>
      <point x="461" y="490" type="line"/>
      <point x="373" y="490" type="line"/>
    </contour>
    <contour>
      <point x="406" y="700" type="line"/>
      <point x="388" y="597" type="line"/>
      <point x="484" y="597" type="line"/>
      <point x="502" y="700" type="line"/>
    </contour>
  </outline>
</glyph>
<glyph name="jcircumflex" format="2">
  <advance width="300"/>
  <unicode hex="0135"/>
  <outline>
    <contour>
      <point x="188" y="700" type="line"/>
      <point x="69" y="570" type="line"/>
      <point x="143" y="570" type="line"/>
      <point x="257" y="671" type="line"/>
      <point x="205" y="671" type="line"/>
      <point x="285" y="570" type="line"/>
      <point x="351" y="570" type="line"/>
      <point x="276" y="700" type="line"/>
    </contour>
    <component base="dotlessj" identifier="31206F1B"/>
  </outline>
</glyph>
<glyph name="ldot" format="2">
  <advance width="300"/>
  <unicode hex="0140"/>
  <outline>
    <contour>
      <point x="287" y="431" type="line"/>
      <point x="267" y="319" type="line"/>
      <point x="360" y="319" type="line"/>
      <point x="380" y="431" type="line"/>
    </contour>
    <component base="l" identifier="5530C750"/>
  </outline>
</glyph>
<glyph name="Lslash" format="2">
  <advance width="600"/>
  <unicode hex="0141"/>
  <outline>
    <contour>
      <point x="31" y="212" type="line"/>
      <point x="433" y="380" type="line"/>
      <point x="448" y="466" type="line"/>
      <point x="47" y="297" type="line"/>
    </contour>
    <component base="L" identifier="53E71B4B"/>
  </outline>
</glyph>
<glyph name="lslash" format="2">
  <advance width="300"/>
  <unicode hex="0142"/>
  <outline>
    <contour>
      <point x="22" y="320" type="line"/>
      <point x="7" y="240" type="line"/>
      <point x="324" y="421" type="line"/>
      <point x="337" y="500" type="line"/>
    </contour>
    <component base="l" identifier="D58DBB10"/>
  </outline>
</glyph>
<glyph name="eng" format="2">
  <advance width="550"/>
  <unicode hex="014B"/>
  <outline>
    <contour>
      <point x="419" y="-76" type="curve" smooth="yes"/>
      <point x="488" y="322" type="line" smooth="yes"/>
      <point x="490" y="334"/>
      <point x="491" y="345"/>
      <point x="491" y="356" type="curve" smooth="yes"/>
      <point x="491" y="434"/>
      <point x="440" y="502"/>
      <point x="349" y="502" type="curve" smooth="yes"/>
      <point x="293" y="502"/>
      <point x="240" y="477"/>
      <point x="200" y="436" type="curve"/>
      <point x="209" y="490" type="line"/>
      <point x="121" y="490" type="line"/>
      <point x="35" y="0" type="line"/>
      <point x="123" y="0" type="line"/>
      <point x="178" y="315" type="line" smooth="yes"/>
      <point x="191" y="388"/>
      <point x="246" y="431"/>
      <point x="312" y="431" type="curve" smooth="yes"/>
      <point x="374" y="431"/>
      <point x="402" y="392"/>
      <point x="402" y="342" type="curve" smooth="yes"/>
      <point x="402" y="333"/>
      <point x="401" y="323"/>
      <point x="399" y="313" type="curve" smooth="yes"/>
      <point x="332" y="-68" type="line" smooth="yes"/>
      <point x="327" y="-99"/>
      <point x="304" y="-113"/>
      <point x="271" y="-113" type="curve" smooth="yes"/>
      <point x="259" y="-113"/>
      <point x="250" y="-111"/>
      <point x="239" y="-108" type="curve"/>
      <point x="227" y="-179" type="line"/>
      <point x="237" y="-183"/>
      <point x="255" y="-189"/>
      <point x="284" y="-189" type="curve" smooth="yes"/>
      <point x="345" y="-189"/>
      <point x="404" y="-161"/>
    </contour>
  </outline>
</glyph>
<glyph name="OE" format="2">
  <advance width="760"/>
  <unicode hex="0152"/>
  <outline>
    <contour>
      <point x="53" y="369" type="curve" smooth="yes"/>
      <point x="17" y="139"/>
      <point x="72.51974" y="-12.0"/>
      <point x="218" y="-12" type="curve" smooth="yes"/>
      <point x="275" y="-12"/>
      <point x="323" y="14"/>
      <point x="363" y="60" type="curve"/>
      <point x="352" y="0" type="line"/>
      <point x="702" y="0" type="line"/>
      <point x="716" y="82" type="line"/>
      <point x="454" y="82" type="line"/>
      <point x="495" y="315" type="line"/>
      <point x="651" y="315" type="line"/>
      <point x="666" y="396" type="line"/>
      <point x="510" y="396" type="line"/>
      <point x="549" y="618" type="line"/>
      <point x="793" y="618" type="line"/>
      <point x="807" y="700" type="line"/>
      <point x="475" y="700" type="line"/>
      <point x="462" y="628" type="line"/>
      <point x="437" y="682"/>
      <point x="390" y="712"/>
      <point x="325" y="712" type="curve" smooth="yes"/>
      <point x="160" y="712"/>
      <point x="81" y="530"/>
    </contour>
    <contour>
      <point x="412" y="338" type="curve" smooth="yes"/>
      <point x="384" y="203"/>
      <point x="339" y="69"/>
      <point x="235" y="69" type="curve" smooth="yes"/>
      <point x="157" y="69"/>
      <point x="105" y="153"/>
      <point x="142" y="357" type="curve" smooth="yes"/>
      <point x="165" y="482"/>
      <point x="217" y="631"/>
      <point x="324" y="631" type="curve" smooth="yes"/>
      <point x="408" y="631"/>
      <point x="450" y="522"/>
    </contour>
  </outline>
</glyph>
<glyph name="oe" format="2">
  <advance width="760"/>
  <unicode hex="0153"/>
  <outline>
    <contour>
      <point x="575" y="502" type="curve" smooth="yes"/>
      <point x="417" y="502"/>
      <point x="355" y="299"/>
      <point x="355" y="175" type="curve" smooth="yes"/>
      <point x="355" y="59"/>
      <point x="409" y="-12"/>
      <point x="506" y="-12" type="curve" smooth="yes"/>
      <point x="597" y="-12"/>
      <point x="656" y="47"/>
      <point x="692" y="136" type="curve"/>
      <point x="625" y="158" type="line"/>
      <point x="602" y="94"/>
      <point x="569" y="59"/>
      <point x="515" y="59" type="curve" smooth="yes"/>
      <point x="459" y="59"/>
      <point x="427" y="99"/>
      <point x="427" y="176" type="curve" smooth="yes"/>
      <point x="427" y="255"/>
      <point x="466" y="431"/>
      <point x="565" y="431" type="curve" smooth="yes"/>
      <point x="612" y="431"/>
      <point x="641" y="397"/>
      <point x="641" y="323" type="curve" smooth="yes"/>
      <point x="641" y="301"/>
      <point x="638" y="275"/>
      <point x="633" y="246" type="curve"/>
      <point x="658" y="292" type="line"/>
      <point x="405" y="292" type="line"/>
      <point x="394" y="226" type="line"/>
      <point x="708" y="226" type="line"/>
      <point x="710" y="242" type="line" smooth="yes"/>
      <point x="714" y="269"/>
      <point x="717" y="293"/>
      <point x="717" y="316" type="curve" smooth="yes"/>
      <point x="717" y="427"/>
      <point x="666" y="502"/>
    </contour>
    <contour>
      <point x="354" y="315" type="curve" smooth="yes"/>
      <point x="354" y="233"/>
      <point x="317" y="59"/>
      <point x="217" y="59" type="curve" smooth="yes"/>
      <point x="165" y="59"/>
      <point x="133" y="99"/>
      <point x="133" y="178" type="curve" smooth="yes"/>
      <point x="133" y="254"/>
      <point x="172" y="431"/>
      <point x="273" y="431" type="curve" smooth="yes"/>
      <point x="325" y="431"/>
      <point x="354" y="392"/>
    </contour>
    <contour>
      <point x="278" y="502" type="curve" smooth="yes"/>
      <point x="121" y="502"/>
      <point x="49" y="315"/>
      <point x="49" y="183" type="curve" smooth="yes"/>
      <point x="49" y="62"/>
      <point x="110" y="-12"/>
      <point x="210" y="-12" type="curve" smooth="yes"/>
      <point x="366" y="-12"/>
      <point x="429" y="190"/>
      <point x="429" y="315" type="curve" smooth="yes"/>
      <point x="429" y="433"/>
      <point x="372" y="502"/>
    </contour>
  </outline>
</glyph>
<glyph name="tbar" format="2">
  <advance width="450"/>
  <unicode hex="0167"/>
  <outline>
    <contour>
      <point x="31" y="252" type="line"/>
      <point x="398" y="252" type="line"/>
      <point x="410" y="320" type="line"/>
      <point x="43" y="320" type="line"/>
    </contour>
    <component base="t" identifier="4DBA1780"/>
  </outline>
</glyph>
<glyph name="Uogonek" format="2">
  <advance width="760"/>
  <unicode hex="0172"/>
  <outline>
    <contour>
      <point x="656" y="248" type="curve" smooth="yes"/>
      <point x="736" y="700" type="line"/>
      <point x="646" y="700" type="line"/>
      <point x="568" y="257" type="line" smooth="yes"/>
      <point x="548" y="141"/>
      <point x="477" y="71"/>
      <point x="360" y="71" type="curve" smooth="yes"/>
      <point x="255" y="71"/>
      <point x="195" y="128"/>
      <point x="195" y="223" type="curve" smooth="yes"/>
      <point x="195" y="238"/>
      <point x="196" y="253"/>
      <point x="199" y="270" type="curve" smooth="yes"/>
      <point x="275" y="700" type="line"/>
      <point x="184" y="700" type="line"/>
      <point x="107" y="267" type="line" smooth="yes"/>
      <point x="104" y="247"/>
      <point x="102" y="229"/>
      <point x="102" y="211" type="curve" smooth="yes"/>
      <point x="102" y="85"/>
      <point x="184" y="-1"/>
      <point x="324" y="-11" type="curve"/>
      <point x="282" y="-36"/>
      <point x="243" y="-71"/>
      <point x="243" y="-123" type="curve" smooth="yes"/>
      <point x="243" y="-165"/>
      <point x="268" y="-197"/>
      <point x="338" y="-197" type="curve" smooth="yes"/>
      <point x="355" y="-197"/>
      <point x="383" y="-195"/>
      <point x="407" y="-189" type="curve"/>
      <point x="418" y="-129" type="line"/>
      <point x="400" y="-131"/>
      <point x="384" y="-134"/>
      <point x="366" y="-134" type="curve" smooth="yes"/>
      <point x="339" y="-134"/>
      <point x="321" y="-127"/>
      <point x="321" y="-106" type="curve" smooth="yes"/>
      <point x="321" y="-73"/>
      <point x="368" y="-24"/>
      <point x="424" y="-9" type="curve" smooth="yes"/>
      <point x="554" y="25"/>
      <point x="631" y="106"/>
    </contour>
  </outline>
</glyph>
<glyph name="Oopen" format="2">
  <advance width="760"/>
  <unicode hex="0186"/>
  <outline>
    <contour>
      <point x="351" y="-12" type="curve" smooth="yes"/>
      <point x="576" y="-12"/>
      <point x="725" y="189"/>
      <point x="725" y="417" type="curve" smooth="yes"/>
      <point x="725" y="596"/>
      <point x="615" y="712"/>
      <point x="447" y="712" type="curve" smooth="yes"/>
      <point x="306" y="712"/>
      <point x="180" y="626"/>
      <point x="120" y="499" type="curve"/>
      <point x="207" y="467" type="line"/>
      <point x="250" y="565"/>
      <point x="336" y="631"/>
      <point x="439" y="631" type="curve" smooth="yes"/>
      <point x="558" y="631"/>
      <point x="632" y="547"/>
      <point x="632" y="413" type="curve" smooth="yes"/>
      <point x="632" y="235"/>
      <point x="522" y="69"/>
      <point x="358" y="69" type="curve" smooth="yes"/>
      <point x="246" y="69"/>
      <point x="178" y="143"/>
      <point x="168" y="247" type="curve"/>
      <point x="77" y="226" type="line"/>
      <point x="91" y="88"/>
      <point x="196" y="-12"/>
    </contour>
  </outline>
</glyph>
<glyph name="fhook" format="2">
  <advance width="500"/>
  <unicode hex="0192"/>
  <outline>
    <contour>
      <point x="148" y="382" type="line"/>
      <point x="445" y="382" type="line"/>
      <point x="457" y="452" type="line"/>
      <point x="160" y="452" type="line"/>
    </contour>
    <contour>
      <point x="209" y="104" type="curve" smooth="yes"/>
      <point x="416" y="584" type="line" smooth="yes"/>
      <point x="433" y="623"/>
      <point x="458" y="640"/>
      <point x="495" y="640" type="curve" smooth="yes"/>
      <point x="504" y="640"/>
      <point x="518" y="639"/>
      <point x="529" y="637" type="curve"/>
      <point x="541" y="707" type="line"/>
      <point x="525" y="711"/>
      <point x="506" y="712"/>
      <point x="489" y="712" type="curve" smooth="yes"/>
      <point x="400" y="712"/>
      <point x="355" y="660"/>
      <point x="327" y="595" type="curve" smooth="yes"/>
      <point x="120" y="116" type="line" smooth="yes"/>
      <point x="103" y="77"/>
      <point x="79" y="60"/>
      <point x="42" y="60" type="curve" smooth="yes"/>
      <point x="34" y="60"/>
      <point x="20" y="61"/>
      <point x="8" y="63" type="curve"/>
      <point x="-4" y="-7" type="line"/>
      <point x="12" y="-11"/>
      <point x="32" y="-12"/>
      <point x="50" y="-12" type="curve" smooth="yes"/>
      <point x="137" y="-12"/>
      <point x="181" y="39"/>
    </contour>
  </outline>
</glyph>
<glyph name="khook" format="2">
  <advance width="550"/>
  <unicode hex="0199"/>
  <outline>
    <contour>
      <point x="117" y="236" type="line"/>
      <point x="108" y="144" type="line"/>
      <point x="250" y="258" type="line"/>
      <point x="282" y="275" type="line"/>
      <point x="548" y="490" type="line"/>
      <point x="433" y="490" type="line"/>
    </contour>
    <contour>
      <point x="216" y="266" type="line"/>
      <point x="380" y="0" type="line"/>
      <point x="476" y="0" type="line"/>
      <point x="281" y="316" type="line"/>
    </contour>
    <contour>
      <point x="226" y="576" type="line" smooth="yes"/>
      <point x="233" y="615"/>
      <point x="259" y="629"/>
      <point x="285" y="629" type="curve" smooth="yes"/>
      <point x="304" y="629"/>
      <point x="325" y="622"/>
      <point x="338" y="614" type="curve"/>
      <point x="354" y="687" type="line"/>
      <point x="338" y="697"/>
      <point x="311" y="706"/>
      <point x="279" y="706" type="curve" smooth="yes"/>
      <point x="207" y="706"/>
      <point x="152" y="656"/>
      <point x="140" y="586" type="curve" smooth="yes"/>
      <point x="36" y="0" type="line"/>
      <point x="124" y="0" type="line"/>
    </contour>
  </outline>
</glyph>
<glyph name="yhook" format="2">
  <advance width="550"/>
  <unicode hex="01B4"/>
  <outline>
    <contour>
      <point x="206" y="-60" type="line"/>
      <point x="269" y="47" type="line"/>
      <point x="161" y="490" type="line"/>
      <point x="71" y="490" type="line"/>
    </contour>
    <contour>
      <point x="498" y="377" type="line" smooth="yes"/>
      <point x="518" y="411"/>
      <point x="530" y="424"/>
      <point x="551" y="424" type="curve" smooth="yes"/>
      <point x="566" y="424"/>
      <point x="580" y="417"/>
      <point x="590" y="411" type="curve"/>
      <point x="606" y="485" type="line"/>
      <point x="593" y="494"/>
      <point x="573" y="502"/>
      <point x="545" y="502" type="curve" smooth="yes"/>
      <point x="488" y="502"/>
      <point x="454" y="467"/>
      <point x="416" y="402" type="curve" smooth="yes"/>
      <point x="217" y="57" type="line"/>
      <point x="198" y="28" type="line"/>
      <point x="68" y="-180" type="line"/>
      <point x="166" y="-180" type="line"/>
    </contour>
  </outline>
</glyph>
<glyph name="Icaron" format="2">
  <advance width="300"/>
  <unicode hex="01CF"/>
  <outline>
    <contour>
      <point x="286" y="771" type="line"/>
      <point x="416" y="892" type="line"/>
      <point x="340" y="892" type="line"/>
      <point x="220" y="808" type="line"/>
      <point x="272" y="808" type="line"/>
      <point x="182" y="892" type="line"/>
      <point x="110" y="892" type="line"/>
      <point x="196" y="771" type="line"/>
    </contour>
    <component base="I" identifier="DFA20527"/>
  </outline>
</glyph>
<glyph name="icaron" format="2">
  <advance width="300"/>
  <unicode hex="01D0"/>
  <outline>
    <contour>
      <point x="254" y="570" type="line"/>
      <point x="375" y="700" type="line"/>
      <point x="302" y="700" type="line"/>
      <point x="186" y="599" type="line"/>
      <point x="238" y="599" type="line"/>
      <point x="156" y="700" type="line"/>
      <point x="89" y="700" type="line"/>
      <point x="166" y="570" type="line"/>
    </contour>
    <component base="dotlessi" identifier="C6ABC57F"/>
  </outline>
</glyph>
<glyph name="Oogonek" format="2">
  <advance width="760"/>
  <unicode hex="01EA"/>
  <outline>
    <contour>
      <point x="728" y="415" type="curve" smooth="yes"/>
      <point x="728" y="593"/>
      <point x="616" y="712"/>
      <point x="446" y="712" type="curve" smooth="yes"/>
      <point x="219" y="712"/>
      <point x="68" y="512"/>
      <point x="68" y="286" type="curve" smooth="yes"/>
      <point x="68" y="118"/>
      <point x="166" y="3"/>
      <point x="319" y="-11" type="curve"/>
      <point x="277" y="-36"/>
      <point x="237" y="-71"/>
      <point x="237" y="-123" type="curve" smooth="yes"/>
      <point x="237" y="-165"/>
      <point x="262" y="-197"/>
      <point x="332" y="-197" type="curve" smooth="yes"/>
      <point x="349" y="-197"/>
      <point x="377" y="-195"/>
      <point x="401" y="-189" type="curve"/>
      <point x="412" y="-129" type="line"/>
      <point x="394" y="-131"/>
      <point x="378" y="-134"/>
      <point x="360" y="-134" type="curve" smooth="yes"/>
      <point x="333" y="-134"/>
      <point x="315" y="-127"/>
      <point x="315" y="-106" type="curve" smooth="yes"/>
      <point x="315" y="-73"/>
      <point x="361" y="-24"/>
      <point x="418" y="-10" type="curve" smooth="yes"/>
      <point x="608" y="36"/>
      <point x="728" y="209"/>
    </contour>
    <contour>
      <point x="359" y="69" type="curve" smooth="yes"/>
      <point x="237" y="69"/>
      <point x="160" y="154"/>
      <point x="160" y="290" type="curve" smooth="yes"/>
      <point x="160" y="466"/>
      <point x="270" y="631"/>
      <point x="438" y="631" type="curve" smooth="yes"/>
      <point x="560" y="631"/>
      <point x="636" y="546"/>
      <point x="636" y="411" type="curve" smooth="yes"/>
      <point x="636" y="234"/>
      <point x="526" y="69"/>
    </contour>
  </outline>
</glyph>
<glyph name="oogonek" format="2">
  <advance width="550"/>
  <unicode hex="01EB"/>
  <outline>
    <contour>
      <point x="38" y="202" type="curve" smooth="yes"/>
      <point x="38" y="80"/>
      <point x="110" y="1"/>
      <point x="213" y="-11" type="curve"/>
      <point x="171" y="-37"/>
      <point x="132" y="-72"/>
      <point x="132" y="-123" type="curve" smooth="yes"/>
      <point x="132" y="-165"/>
      <point x="157" y="-197"/>
      <point x="227" y="-197" type="curve" smooth="yes"/>
      <point x="244" y="-197"/>
      <point x="272" y="-195"/>
      <point x="296" y="-189" type="curve"/>
      <point x="307" y="-129" type="line"/>
      <point x="289" y="-131"/>
      <point x="273" y="-134"/>
      <point x="255" y="-134" type="curve" smooth="yes"/>
      <point x="228" y="-134"/>
      <point x="210" y="-127"/>
      <point x="210" y="-106" type="curve" smooth="yes"/>
      <point x="210" y="-71"/>
      <point x="257" y="-25"/>
      <point x="316" y="-4" type="curve" smooth="yes"/>
      <point x="436" y="38"/>
      <point x="512" y="152"/>
      <point x="512" y="289" type="curve" smooth="yes"/>
      <point x="512" y="420"/>
      <point x="427" y="502"/>
      <point x="310" y="502" type="curve" smooth="yes"/>
      <point x="149" y="502"/>
      <point x="38" y="365"/>
    </contour>
    <contour>
      <point x="302" y="432" type="curve" smooth="yes"/>
      <point x="379" y="432"/>
      <point x="423" y="377"/>
      <point x="423" y="286" type="curve" smooth="yes"/>
      <point x="423" y="178"/>
      <point x="364" y="58"/>
      <point x="248" y="58" type="curve" smooth="yes"/>
      <point x="172" y="58"/>
      <point x="127" y="113"/>
      <point x="127" y="205" type="curve" smooth="yes"/>
      <point x="127" y="311"/>
      <point x="186" y="432"/>
    </contour>
  </outline>
</glyph>
<glyph name="dotlessj" format="2">
  <advance width="300"/>
  <unicode hex="0237"/>
  <outline>
    <contour>
      <point x="138" y="-73" type="curve" smooth="yes"/>
      <point x="237" y="490" type="line"/>
      <point x="149" y="490" type="line"/>
      <point x="51" y="-65" type="line" smooth="yes"/>
      <point x="45" y="-101"/>
      <point x="24" y="-113"/>
      <point x="-7" y="-113" type="curve" smooth="yes"/>
      <point x="-28" y="-113"/>
      <point x="-39" y="-111"/>
      <point x="-52" y="-109" type="curve"/>
      <point x="-64" y="-180" type="line"/>
      <point x="-51" y="-184"/>
      <point x="-27" y="-189"/>
      <point x="-1" y="-189" type="curve" smooth="yes"/>
      <point x="61" y="-189"/>
      <point x="122" y="-165"/>
    </contour>
    <contour>
      <point x="138" y="428" type="line"/>
      <point x="226" y="428" type="line"/>
      <point x="237" y="490" type="line"/>
      <point x="149" y="490" type="line"/>
    </contour>
  </outline>
</glyph>
<glyph name="oopen" format="2">
  <advance width="550"/>
  <unicode hex="0254"/>
  <outline>
    <contour>
      <point x="66" y="356" type="curve"/>
      <point x="148" y="331" type="line"/>
      <point x="173" y="397"/>
      <point x="230" y="432"/>
      <point x="292" y="432" type="curve" smooth="yes"/>
      <point x="368" y="432"/>
      <point x="407" y="381"/>
      <point x="407" y="293" type="curve" smooth="yes"/>
      <point x="407" y="183"/>
      <point x="356" y="58"/>
      <point x="238" y="58" type="curve" smooth="yes"/>
      <point x="172" y="58"/>
      <point x="121" y="98"/>
      <point x="118" y="170" type="curve"/>
      <point x="30" y="153" type="line"/>
      <point x="37" y="50"/>
      <point x="120" y="-12"/>
      <point x="231" y="-12" type="curve" smooth="yes"/>
      <point x="410" y="-12"/>
      <point x="497" y="140"/>
      <point x="497" y="295" type="curve" smooth="yes"/>
      <point x="497" y="426"/>
      <point x="422" y="502"/>
      <point x="296" y="502" type="curve" smooth="yes"/>
      <point x="195" y="502"/>
      <point x="106" y="447"/>
    </contour>
  </outline>
</glyph>
<glyph name="schwa" format="2">
  <advance width="550"/>
  <unicode hex="0259"/>
  <outline>
    <contour>
      <point x="510" y="292" type="curve" smooth="yes"/>
      <point x="510" y="423"/>
      <point x="431" y="502"/>
      <point x="309" y="502" type="curve" smooth="yes"/>
      <point x="207" y="502"/>
      <point x="116" y="447"/>
      <point x="74" y="357" type="curve"/>
      <point x="149" y="330" type="line"/>
      <point x="178" y="392"/>
      <point x="238" y="432"/>
      <point x="304" y="432" type="curve" smooth="yes"/>
      <point x="378" y="432"/>
      <point x="422" y="383"/>
      <point x="422" y="294" type="curve" smooth="yes"/>
      <point x="422" y="184"/>
      <point x="366" y="58"/>
      <point x="252" y="58" type="curve" smooth="yes"/>
      <point x="180" y="58"/>
      <point x="130" y="108"/>
      <point x="130" y="198" type="curve" smooth="yes"/>
      <point x="130" y="213"/>
      <point x="132" y="230"/>
      <point x="135" y="248" type="curve"/>
      <point x="102" y="198" type="line"/>
      <point x="447" y="198" type="line"/>
      <point x="458" y="264" type="line"/>
      <point x="51" y="264" type="line"/>
      <point x="49" y="250" type="line" smooth="yes"/>
      <point x="46" y="229"/>
      <point x="45" y="217"/>
      <point x="45" y="199" type="curve" smooth="yes"/>
      <point x="45" y="75"/>
      <point x="120" y="-12"/>
      <point x="246" y="-12" type="curve" smooth="yes"/>
      <point x="419" y="-12"/>
      <point x="510" y="144"/>
    </contour>
  </outline>
</glyph>
<glyph name="eopen" format="2">
  <advance width="500"/>
  <unicode hex="025B"/>
  <outline>
    <contour>
      <point x="444" y="144" type="curve"/>
      <point x="354" y="139" type="line"/>
      <point x="342" y="92"/>
      <point x="299" y="59"/>
      <point x="227" y="59" type="curve" smooth="yes"/>
      <point x="159" y="59"/>
      <point x="111" y="86"/>
      <point x="111" y="136" type="curve" smooth="yes"/>
      <point x="111" y="181"/>
      <point x="150" y="218"/>
      <point x="228" y="218" type="curve" smooth="yes"/>
      <point x="289" y="218" type="line"/>
      <point x="302" y="288" type="line"/>
      <point x="242" y="288" type="line" smooth="yes"/>
      <point x="192" y="288"/>
      <point x="161" y="307"/>
      <point x="161" y="346" type="curve" smooth="yes"/>
      <point x="161" y="391"/>
      <point x="201" y="431"/>
      <point x="278" y="431" type="curve" smooth="yes"/>
      <point x="346" y="431"/>
      <point x="386" y="402"/>
      <point x="386" y="357" type="curve" smooth="yes"/>
      <point x="386" y="353"/>
      <point x="386" y="349"/>
      <point x="385" y="344" type="curve"/>
      <point x="471" y="337" type="line"/>
      <point x="474" y="347"/>
      <point x="475" y="356"/>
      <point x="475" y="366" type="curve" smooth="yes"/>
      <point x="475" y="451"/>
      <point x="396" y="502"/>
      <point x="286" y="502" type="curve" smooth="yes"/>
      <point x="152" y="502"/>
      <point x="71" y="429"/>
      <point x="71" y="350" type="curve" smooth="yes"/>
      <point x="71" y="295"/>
      <point x="118" y="269"/>
      <point x="153" y="257" type="curve"/>
      <point x="154" y="262" type="line"/>
      <point x="85" y="251"/>
      <point x="18" y="202"/>
      <point x="18" y="129" type="curve" smooth="yes"/>
      <point x="18" y="39"/>
      <point x="110" y="-12"/>
      <point x="221" y="-12" type="curve" smooth="yes"/>
      <point x="336" y="-12"/>
      <point x="427" y="37"/>
    </contour>
  </outline>
</glyph>
<glyph name="istroke" format="2">
  <advance width="300"/>
  <unicode hex="0268"/>
  <outline>
    <contour>
      <point x="288" y="264" type="line"/>
      <point x="300" y="332" type="line"/>
      <point x="30" y="332" type="line"/>
      <point x="18" y="264" type="line"/>
    </contour>
    <component base="i" xOffset="-25" identifier="1C3CE73E"/>
  </outline>
</glyph>
<glyph name="nhookleft" format="2">
  <advance width="550"/>
  <unicode hex="0272"/>
  <outline>
    <contour>
      <point x="-78" y="-180" type="line"/>
      <point x="-68" y="-183"/>
      <point x="-50" y="-189"/>
      <point x="-23" y="-189" type="curve" smooth="yes"/>
      <point x="32" y="-189"/>
      <point x="95" y="-170"/>
      <point x="110" y="-82" type="curve" smooth="yes"/>
      <point x="179" y="315" type="line" smooth="yes"/>
      <point x="192" y="388"/>
      <point x="247" y="431"/>
      <point x="313" y="431" type="curve" smooth="yes"/>
      <point x="375" y="431"/>
      <point x="403" y="392"/>
      <point x="403" y="342" type="curve" smooth="yes"/>
      <point x="403" y="333"/>
      <point x="402" y="323"/>
      <point x="400" y="313" type="curve" smooth="yes"/>
      <point x="345" y="0" type="line"/>
      <point x="433" y="0" type="line"/>
      <point x="489" y="322" type="line" smooth="yes"/>
      <point x="491" y="334"/>
      <point x="492" y="345"/>
      <point x="492" y="356" type="curve" smooth="yes"/>
      <point x="492" y="434"/>
      <point x="441" y="502"/>
      <point x="350" y="502" type="curve" smooth="yes"/>
      <point x="294" y="502"/>
      <point x="241" y="477"/>
      <point x="201" y="436" type="curve"/>
      <point x="210" y="490" type="line"/>
      <point x="122" y="490" type="line"/>
      <point x="23" y="-74" type="line" smooth="yes"/>
      <point x="18" y="-104"/>
      <point x="0" y="-113"/>
      <point x="-32" y="-113" type="curve" smooth="yes"/>
      <point x="-47" y="-113"/>
      <point x="-55" y="-111"/>
      <point x="-66" y="-108" type="curve"/>
    </contour>
  </outline>
</glyph>
<glyph name="nretroflex" format="2">
  <advance width="550"/>
  <unicode hex="0273"/>
  <outline>
    <contour>
      <point x="121" y="490" type="line"/>
      <point x="35" y="0" type="line"/>
      <point x="123" y="0" type="line"/>
      <point x="178" y="315" type="line" smooth="yes"/>
      <point x="191" y="388"/>
      <point x="246" y="431"/>
      <point x="312" y="431" type="curve" smooth="yes"/>
      <point x="374" y="431"/>
      <point x="402" y="392"/>
      <point x="402" y="342" type="curve" smooth="yes"/>
      <point x="402" y="333"/>
      <point x="401" y="323"/>
      <point x="399" y="313" type="curve" smooth="yes"/>
      <point x="330" y="-81" type="line" smooth="yes"/>
      <point x="328" y="-91"/>
      <point x="327" y="-99"/>
      <point x="327" y="-108" type="curve" smooth="yes"/>
      <point x="327" y="-174"/>
      <point x="381" y="-190"/>
      <point x="431" y="-190" type="curve" smooth="yes"/>
      <point x="453" y="-190"/>
      <point x="463" y="-188"/>
      <point x="476" y="-185" type="curve"/>
      <point x="488" y="-113" type="line"/>
      <point x="478" y="-115"/>
      <point x="472" y="-115"/>
      <point x="462" y="-115" type="curve" smooth="yes"/>
      <point x="435" y="-115"/>
      <point x="417" y="-107"/>
      <point x="417" y="-87" type="curve" smooth="yes"/>
      <point x="417" y="-86"/>
      <point x="417" y="-84"/>
      <point x="418" y="-79" type="curve" smooth="yes"/>
      <point x="488" y="322" type="line" smooth="yes"/>
      <point x="490" y="334"/>
      <point x="491" y="345"/>
      <point x="491" y="356" type="curve" smooth="yes"/>
      <point x="491" y="434"/>
      <point x="440" y="502"/>
      <point x="349" y="502" type="curve" smooth="yes"/>
      <point x="293" y="502"/>
      <point x="240" y="477"/>
      <point x="200" y="436" type="curve"/>
      <point x="209" y="490" type="line"/>
    </contour>
  </outline>
</glyph>
<glyph name="vturned" format="2">
  <advance width="550"/>
  <unicode hex="028C"/>
  <outline>
    <contour>
      <point x="366" y="490" type="line"/>
      <point x="270" y="490" type="line"/>
      <point x="-16" y="0" type="line"/>
      <point x="80" y="0" type="line"/>
      <point x="332" y="440" type="line"/>
      <point x="291" y="440" type="line"/>
      <point x="390" y="0" type="line"/>
      <point x="480" y="0" type="line"/>
    </contour>
  </outline>
</glyph>
<glyph name="ringhalfleftmod" format="2">
  <advance width="300"/>
  <unicode hex="02BF"/>
  <outline>
    <contour>
      <point x="289" y="629" type="curve" smooth="yes"/>
      <point x="308" y="629" type="line"/>
      <point x="321" y="700" type="line"/>
      <point x="306" y="700" type="line" smooth="yes"/>
      <point x="175" y="700"/>
      <point x="111" y="613"/>
      <point x="111" y="517" type="curve" smooth="yes"/>
      <point x="111" y="427"/>
      <point x="170" y="375"/>
      <point x="256" y="375" type="curve" smooth="yes"/>
      <point x="263" y="375" type="line"/>
      <point x="276" y="446" type="line"/>
      <point x="267" y="446" type="line" smooth="yes"/>
      <point x="217" y="446"/>
      <point x="188" y="478"/>
      <point x="188" y="524" type="curve" smooth="yes"/>
      <point x="188" y="580"/>
      <point x="231" y="629"/>
    </contour>
  </outline>
</glyph>
<glyph name="circumflexcmb" format="2">
  <advance width="600"/>
  <unicode hex="0302"/>
  <outline>
    <contour>
      <point x="338" y="700" type="line"/>
      <point x="214" y="570" type="line"/>
      <point x="288" y="570" type="line"/>
      <point x="407" y="671" type="line"/>
      <point x="355" y="671" type="line"/>
      <point x="440" y="570" type="line"/>
      <point x="506" y="570" type="line"/>
      <point x="426" y="700" type="line"/>
    </contour>
  </outline>
</glyph>
<glyph name="dotbelowcmb" format="2">
  <advance width="600"/>
  <unicode hex="0323"/>
  <outline>
    <contour>
      <point x="196" y="-77" type="line"/>
      <point x="178" y="-180" type="line"/>
      <point x="274" y="-180" type="line"/>
      <point x="292" y="-77" type="line"/>
    </contour>
  </outline>
</glyph>
<glyph name="commaaccentbelowcmb" format="2">
  <advance width="600"/>
  <unicode hex="0326"/>
  <outline>
    <contour>
      <point x="194" y="-77" type="line"/>
      <point x="176" y="-180" type="line"/>
      <point x="222" y="-180" type="line"/>
      <point x="221" y="-186" type="line" smooth="yes"/>
      <point x="216" y="-217"/>
      <point x="195" y="-236"/>
      <point x="154" y="-236" type="curve"/>
      <point x="146" y="-281" type="line"/>
      <point x="237" y="-281"/>
      <point x="265" y="-223"/>
      <point x="271" y="-186" type="curve" smooth="yes"/>
      <point x="290" y="-77" type="line"/>
    </contour>
  </outline>
</glyph>
<glyph name="cedillacmb" format="2">
  <advance width="600"/>
  <unicode hex="0327"/>
  <outline>
    <contour>
      <point x="97" y="-203" type="line"/>
      <point x="121" y="-213"/>
      <point x="161" y="-222"/>
      <point x="204" y="-222" type="curve" smooth="yes"/>
      <point x="298" y="-222"/>
      <point x="349" y="-175"/>
      <point x="349" y="-121" type="curve" smooth="yes"/>
      <point x="349" y="-78"/>
      <point x="316" y="-51"/>
      <point x="255" y="-51" type="curve" smooth="yes"/>
      <point x="241" y="-51"/>
      <point x="220" y="-51"/>
      <point x="192" y="-62" type="curve"/>
      <point x="215" y="-80" type="line"/>
      <point x="293" y="8" type="line"/>
      <point x="231" y="8" type="line"/>
      <point x="152" y="-79" type="line"/>
      <point x="167" y="-111" type="line"/>
      <point x="184" y="-107"/>
      <point x="207" y="-106"/>
      <point x="222" y="-106" type="curve" smooth="yes"/>
      <point x="242" y="-106"/>
      <point x="274" y="-109"/>
      <point x="274" y="-131" type="curve" smooth="yes"/>
      <point x="274" y="-150"/>
      <point x="251" y="-164"/>
      <point x="205" y="-164" type="curve" smooth="yes"/>
      <point x="171" y="-164"/>
      <point x="139" y="-156"/>
      <point x="108" y="-144" type="curve"/>
    </contour>
  </outline>
</glyph>
<glyph name="overlaystrokeshortcmb" format="2">
  <advance width="600"/>
  <unicode hex="0335"/>
  <outline>
    <contour>
      <point x="187" y="319" type="line"/>
      <point x="438" y="319" type="line"/>
      <point x="452" y="397" type="line"/>
      <point x="201" y="397" type="line"/>
    </contour>
  </outline>
</glyph>
<glyph name="lmacrondot" format="2">
  <advance width="300"/>
  <unicode hex="1E39"/>
  <outline>
    <contour>
      <point x="114" y="776" type="line"/>
      <point x="376" y="776" type="line"/>
      <point x="388" y="844" type="line"/>
      <point x="126" y="844" type="line"/>
    </contour>
    <component base="l" identifier="BD1E1060"/>
    <component base="dotbelowcmb" xOffset="-150" identifier="55B8B262"/>
  </outline>
</glyph>
<glyph name="rlinebelow" format="2">
  <advance width="450"/>
  <unicode hex="1E5F"/>
  <outline>
    <contour>
      <point x="-27" y="-152" type="line"/>
      <point x="181" y="-152" type="line"/>
      <point x="193" y="-86" type="line"/>
      <point x="-15" y="-86" type="line"/>
    </contour>
    <component base="r" identifier="8E93B961"/>
  </outline>
</glyph>
<glyph name="Uhorngrave" format="2">
  <advance width="760"/>
  <unicode hex="1EEA"/>
  <outline>
    <contour>
      <point x="656" y="248" type="curve" smooth="yes"/>
      <point x="736" y="700" type="line"/>
      <point x="646" y="700" type="line"/>
      <point x="568" y="257" type="line" smooth="yes"/>
      <point x="548" y="141"/>
      <point x="477" y="71"/>
      <point x="360" y="71" type="curve" smooth="yes"/>
      <point x="255" y="71"/>
      <point x="195" y="128"/>
      <point x="195" y="223" type="curve" smooth="yes"/>
      <point x="195" y="238"/>
      <point x="196" y="253"/>
      <point x="199" y="270" type="curve" smooth="yes"/>
      <point x="275" y="700" type="line"/>
      <point x="184" y="700" type="line"/>
      <point x="107" y="267" type="line" smooth="yes"/>
      <point x="104" y="247"/>
      <point x="102" y="229"/>
      <point x="102" y="211" type="curve" smooth="yes"/>
      <point x="102" y="77"/>
      <point x="195" y="-12"/>
      <point x="352" y="-12" type="curve" smooth="yes"/>
      <point x="522" y="-12"/>
      <point x="627" y="84"/>
    </contour>
    <contour>
      <point x="797" y="791" type="line"/>
      <point x="797" y="786"/>
      <point x="797" y="781"/>
      <point x="797" y="776" type="curve" smooth="yes"/>
      <point x="797" y="724"/>
      <point x="787" y="700"/>
      <point x="740" y="700" type="curve" smooth="yes"/>
      <point x="647" y="700" type="line"/>
      <point x="636" y="638" type="line"/>
      <point x="741" y="638" type="line" smooth="yes"/>
      <point x="844" y="638"/>
      <point x="866" y="696"/>
      <point x="866" y="773" type="curve" smooth="yes"/>
      <point x="866" y="780"/>
      <point x="866" y="786"/>
      <point x="865" y="791" type="curve"/>
    </contour>
    <component base="gravecmb.uc" xOffset="50" identifier="6E6F590D"/>
  </outline>
</glyph>
<glyph name="endash" format="2">
  <advance width="680"/>
  <unicode hex="2013"/>
  <outline>
    <contour>
      <point x="122" y="260" type="line"/>
      <point x="564" y="260" type="line"/>
      <point x="576" y="332" type="line"/>
      <point x="134" y="332" type="line"/>
    </contour>
  </outline>
</glyph>
<glyph name="emdash" format="2">
  <advance width="880"/>
  <unicode hex="2014"/>
  <outline>
    <contour>
      <point x="60" y="260" type="line"/>
      <point x="826" y="260" type="line"/>
      <point x="838" y="332" type="line"/>
      <point x="72" y="332" type="line"/>
    </contour>
  </outline>
</glyph>
<glyph name="quotedblleft" format="2">
  <advance width="500"/>
  <unicode hex="201C"/>
  <outline>
    <contour>
      <point x="416" y="446" type="line"/>
      <point x="438" y="574" type="line"/>
      <point x="385" y="574" type="line"/>
      <point x="388" y="588" type="line" smooth="yes"/>
      <point x="400" y="643"/>
      <point x="427" y="665"/>
      <point x="473" y="665" type="curve"/>
      <point x="482" y="714" type="line"/>
      <point x="381" y="714"/>
      <point x="343" y="645"/>
      <point x="333" y="588" type="curve" smooth="yes"/>
      <point x="308" y="446" type="line"/>
    </contour>
    <contour>
      <point x="236" y="446" type="line"/>
      <point x="258" y="574" type="line"/>
      <point x="205" y="574" type="line"/>
      <point x="208" y="588" type="line" smooth="yes"/>
      <point x="220" y="643"/>
      <point x="247" y="665"/>
      <point x="293" y="665" type="curve"/>
      <point x="302" y="714" type="line"/>
      <point x="201" y="714"/>
      <point x="163" y="645"/>
      <point x="153" y="588" type="curve" smooth="yes"/>
      <point x="128" y="446" type="line"/>
    </contour>
  </outline>
</glyph>
<glyph name="quotedblright" format="2">
  <advance width="500"/>
  <unicode hex="201D"/>
  <outline>
    <contour>
      <point x="199" y="700" type="line"/>
      <point x="177" y="572" type="line"/>
      <point x="230" y="572" type="line"/>
      <point x="227" y="558" type="line" smooth="yes"/>
      <point x="215" y="503"/>
      <point x="188" y="481"/>
      <point x="142" y="481" type="curve"/>
      <point x="133" y="432" type="line"/>
      <point x="234" y="432"/>
      <point x="272" y="501"/>
      <point x="282" y="558" type="curve" smooth="yes"/>
      <point x="307" y="700" type="line"/>
    </contour>
    <contour>
      <point x="379" y="700" type="line"/>
      <point x="357" y="572" type="line"/>
      <point x="410" y="572" type="line"/>
      <point x="407" y="558" type="line" smooth="yes"/>
      <point x="395" y="503"/>
      <point x="368" y="481"/>
      <point x="322" y="481" type="curve"/>
      <point x="313" y="432" type="line"/>
      <point x="414" y="432"/>
      <point x="452" y="501"/>
      <point x="462" y="558" type="curve" smooth="yes"/>
      <point x="487" y="700" type="line"/>
    </contour>
  </outline>
</glyph>
<glyph name="quotedblbase" format="2">
  <advance width="500"/>
  <unicode hex="201E"/>
  <outline>
    <contour>
      <point x="100" y="135" type="line"/>
      <point x="78" y="7" type="line"/>
      <point x="131" y="7" type="line"/>
      <point x="128" y="-7" type="line" smooth="yes"/>
      <point x="116" y="-62"/>
      <point x="89" y="-84"/>
      <point x="43" y="-84" type="curve"/>
      <point x="34" y="-133" type="line"/>
      <point x="135" y="-133"/>
      <point x="173" y="-64"/>
      <point x="183" y="-7" type="curve" smooth="yes"/>
      <point x="208" y="135" type="line"/>
    </contour>
    <contour>
      <point x="280" y="135" type="line"/>
      <point x="258" y="7" type="line"/>
      <point x="311" y="7" type="line"/>
      <point x="308" y="-7" type="line" smooth="yes"/>
      <point x="296" y="-62"/>
      <point x="269" y="-84"/>
      <point x="223" y="-84" type="curve"/>
      <point x="214" y="-133" type="line"/>
      <point x="315" y="-133"/>
      <point x="353" y="-64"/>
      <point x="363" y="-7" type="curve" smooth="yes"/>
      <point x="388" y="135" type="line"/>
    </contour>
  </outline>
</glyph>
<glyph name="dagger" format="2">
  <advance width="300"/>
  <unicode hex="2020"/>
  <outline>
    <contour>
      <point x="132" y="349" type="line"/>
      <point x="204" y="349" type="line"/>
      <point x="266" y="700" type="line"/>
      <point x="194" y="700" type="line"/>
    </contour>
    <contour>
      <point x="98" y="611" type="line"/>
      <point x="86" y="544" type="line"/>
      <point x="320" y="544" type="line"/>
      <point x="332" y="611" type="line"/>
    </contour>
  </outline>
</glyph>
<glyph name="daggerdbl" format="2">
  <advance width="300"/>
  <unicode hex="2021"/>
  <outline>
    <contour>
      <point x="132" y="349" type="line"/>
      <point x="204" y="349" type="line"/>
      <point x="266" y="700" type="line"/>
      <point x="194" y="700" type="line"/>
    </contour>
    <contour>
      <point x="100" y="624" type="line"/>
      <point x="88" y="557" type="line"/>
      <point x="322" y="557" type="line"/>
      <point x="334" y="624" type="line"/>
    </contour>
    <contour>
      <point x="78" y="500" type="line"/>
      <point x="66" y="433" type="line"/>
      <point x="300" y="433" type="line"/>
      <point x="312" y="500" type="line"/>
    </contour>
  </outline>
</glyph>
<glyph name="bullet" format="2">
  <advance width="500"/>
  <unicode hex="2022"/>
  <outline>
    <contour>
      <point x="252" y="134" type="curve" smooth="yes"/>
      <point x="364" y="134"/>
      <point x="438" y="230"/>
      <point x="438" y="321" type="curve" smooth="yes"/>
      <point x="438" y="410"/>
      <point x="367" y="484"/>
      <point x="272" y="484" type="curve" smooth="yes"/>
      <point x="160" y="484"/>
      <point x="86" y="388"/>
      <point x="86" y="297" type="curve" smooth="yes"/>
      <point x="86" y="208"/>
      <point x="157" y="134"/>
    </contour>
  </outline>
</glyph>
<glyph name="ellipsis" format="2">
  <advance width="760"/>
  <unicode hex="2026"/>
  <outline>
    <contour>
      <point x="50" y="134" type="line"/>
      <point x="27" y="0" type="line"/>
      <point x="141" y="0" type="line"/>
      <point x="164" y="134" type="line"/>
    </contour>
    <contour>
      <point x="303" y="134" type="line"/>
      <point x="280" y="0" type="line"/>
      <point x="394" y="0" type="line"/>
      <point x="417" y="134" type="line"/>
    </contour>
    <contour>
      <point x="556" y="134" type="line"/>
      <point x="533" y="0" type="line"/>
      <point x="647" y="0" type="line"/>
      <point x="670" y="134" type="line"/>
    </contour>
  </outline>
</glyph>
<glyph name="perthousand" format="2">
  <advance width="760"/>
  <unicode hex="2030"/>
  <outline>
    <contour>
      <point x="299" y="582" type="curve" smooth="yes"/>
      <point x="299" y="544"/>
      <point x="282" y="459"/>
      <point x="224" y="459" type="curve" smooth="yes"/>
      <point x="196" y="459"/>
      <point x="174" y="479"/>
      <point x="174" y="526" type="curve" smooth="yes"/>
      <point x="174" y="567"/>
      <point x="193" y="648"/>
      <point x="252" y="648" type="curve" smooth="yes"/>
      <point x="278" y="648"/>
      <point x="299" y="627"/>
    </contour>
    <contour>
      <point x="348" y="154" type="curve" smooth="yes"/>
      <point x="348" y="120"/>
      <point x="334" y="52"/>
      <point x="290" y="52" type="curve" smooth="yes"/>
      <point x="267" y="52"/>
      <point x="251" y="66"/>
      <point x="251" y="103" type="curve" smooth="yes"/>
      <point x="251" y="135"/>
      <point x="266" y="205"/>
      <point x="309" y="205" type="curve" smooth="yes"/>
      <point x="332" y="205"/>
      <point x="348" y="191"/>
    </contour>
    <contour>
      <point x="620" y="154" type="curve" smooth="yes"/>
      <point x="620" y="120"/>
      <point x="606" y="52"/>
      <point x="562" y="52" type="curve" smooth="yes"/>
      <point x="539" y="52"/>
      <point x="523" y="66"/>
      <point x="523" y="103" type="curve" smooth="yes"/>
      <point x="523" y="135"/>
      <point x="538" y="205"/>
      <point x="581" y="205" type="curve" smooth="yes"/>
      <point x="604" y="205"/>
      <point x="620" y="191"/>
    </contour>
    <contour>
      <point x="111" y="525" type="curve" smooth="yes"/>
      <point x="111" y="449"/>
      <point x="151" y="402"/>
      <point x="219" y="402" type="curve" smooth="yes"/>
      <point x="324" y="402"/>
      <point x="362" y="512"/>
      <point x="362" y="583" type="curve" smooth="yes"/>
      <point x="362" y="660"/>
      <point x="319" y="705"/>
      <point x="256" y="705" type="curve" smooth="yes"/>
      <point x="151" y="705"/>
      <point x="111" y="599"/>
    </contour>
    <contour>
      <point x="188" y="104" type="curve" smooth="yes"/>
      <point x="188" y="37"/>
      <point x="225" y="-5"/>
      <point x="285" y="-5" type="curve" smooth="yes"/>
      <point x="364" y="-5"/>
      <point x="411" y="70"/>
      <point x="411" y="150" type="curve" smooth="yes"/>
      <point x="411" y="217"/>
      <point x="375" y="262"/>
      <point x="314" y="262" type="curve" smooth="yes"/>
      <point x="221" y="262"/>
      <point x="188" y="163"/>
    </contour>
    <contour>
      <point x="460" y="104" type="curve" smooth="yes"/>
      <point x="460" y="37"/>
      <point x="497" y="-5"/>
      <point x="557" y="-5" type="curve" smooth="yes"/>
      <point x="636" y="-5"/>
      <point x="683" y="70"/>
      <point x="683" y="150" type="curve" smooth="yes"/>
      <point x="683" y="217"/>
      <point x="647" y="262"/>
      <point x="586" y="262" type="curve" smooth="yes"/>
      <point x="493" y="262"/>
      <point x="460" y="163"/>
    </contour>
    <contour>
      <point x="762" y="623" type="line"/>
      <point x="60" y="260" type="line"/>
      <point x="48" y="188" type="line"/>
      <point x="750" y="551" type="line"/>
    </contour>
  </outline>
</glyph>
<glyph name="minute" format="2">
  <advance width="300"/>
  <unicode hex="2032"/>
  <outline>
    <contour>
      <point x="198" y="700" type="line"/>
      <point x="99" y="412" type="line"/>
      <point x="169" y="412" type="line"/>
      <point x="311" y="700" type="line"/>
    </contour>
  </outline>
</glyph>
<glyph name="second" format="2">
  <advance width="450"/>
  <unicode hex="2033"/>
  <outline>
    <contour>
      <point x="186" y="700" type="line"/>
      <point x="87" y="412" type="line"/>
      <point x="157" y="412" type="line"/>
      <point x="298" y="700" type="line"/>
    </contour>
    <contour>
      <point x="360" y="700" type="line"/>
      <point x="261" y="412" type="line"/>
      <point x="331" y="412" type="line"/>
      <point x="472" y="700" type="line"/>
    </contour>
  </outline>
</glyph>
<glyph name="guilsinglleft" format="2">
  <advance width="300"/>
  <unicode hex="2039"/>
  <outline>
    <contour>
      <point x="307" y="450" type="line"/>
      <point x="205" y="450" type="line"/>
      <point x="35" y="276" type="line"/>
      <point x="27" y="234" type="line"/>
      <point x="137" y="60" type="line"/>
      <point x="227" y="60" type="line"/>
      <point x="88" y="280" type="line"/>
      <point x="92" y="230" type="line"/>
    </contour>
  </outline>
</glyph>
<glyph name="interrobang" format="2">
  <advance width="500"/>
  <unicode hex="203D"/>
  <outline>
    <contour>
      <point x="378" y="698" type="line"/>
      <point x="279" y="702" type="line"/>
      <point x="208" y="227" type="line"/>
      <point x="271" y="227" type="line"/>
    </contour>
    <contour>
      <point x="217" y="227" type="line"/>
      <point x="287" y="227" type="line"/>
      <point x="289" y="236" type="line" smooth="yes"/>
      <point x="299" y="280"/>
      <point x="324" y="311"/>
      <point x="376" y="346" type="curve" smooth="yes"/>
      <point x="438" y="388"/>
      <point x="517" y="443"/>
      <point x="517" y="551" type="curve" smooth="yes"/>
      <point x="517" y="652"/>
      <point x="437" y="712"/>
      <point x="322" y="712" type="curve" smooth="yes"/>
      <point x="207" y="712"/>
      <point x="121" y="650"/>
      <point x="83" y="546" type="curve"/>
      <point x="165" y="521" type="line"/>
      <point x="190" y="589"/>
      <point x="235" y="635"/>
      <point x="313" y="635" type="curve" smooth="yes"/>
      <point x="379" y="635"/>
      <point x="426" y="603"/>
      <point x="426" y="542" type="curve" smooth="yes"/>
      <point x="426" y="493"/>
      <point x="396" y="453"/>
      <point x="336" y="405" type="curve" smooth="yes"/>
      <point x="268" y="351"/>
      <point x="232" y="321"/>
      <point x="220" y="246" type="curve" smooth="yes"/>
    </contour>
    <contour>
      <point x="155" y="0" type="line"/>
      <point x="260" y="0" type="line"/>
      <point x="282" y="124" type="line"/>
      <point x="177" y="124" type="line"/>
    </contour>
  </outline>
</glyph>
<glyph name="dong" format="2">
  <advance width="600"/>
  <unicode hex="20AB"/>
  <outline>
    <contour>
      <point x="304" y="540" type="curve" smooth="yes"/>
      <point x="170" y="540"/>
      <point x="89" y="410"/>
      <point x="89" y="279" type="curve" smooth="yes"/>
      <point x="89" y="169"/>
      <point x="154" y="111"/>
      <point x="240" y="111" type="curve" smooth="yes"/>
      <point x="320" y="111"/>
      <point x="386" y="162"/>
      <point x="420" y="234" type="curve"/>
      <point x="391" y="235" type="line"/>
      <point x="371" y="122" type="line"/>
      <point x="457" y="122" type="line"/>
      <point x="559" y="700" type="line"/>
      <point x="473" y="700" type="line"/>
      <point x="421" y="404" type="line"/>
      <point x="450" y="403" type="line"/>
      <point x="441" y="482"/>
      <point x="385" y="540"/>
    </contour>
    <contour>
      <point x="177" y="295" type="curve" smooth="yes"/>
      <point x="177" y="389"/>
      <point x="236" y="469"/>
      <point x="317" y="469" type="curve" smooth="yes"/>
      <point x="376" y="469"/>
      <point x="415" y="428"/>
      <point x="415" y="354" type="curve" smooth="yes"/>
      <point x="415" y="260"/>
      <point x="355" y="180"/>
      <point x="274" y="180" type="curve" smooth="yes"/>
      <point x="215" y="180"/>
      <point x="177" y="221"/>
    </contour>
    <contour>
      <point x="599" y="586" type="line"/>
      <point x="610" y="649" type="line"/>
      <point x="303" y="649" type="line"/>
      <point x="292" y="586" type="line"/>
    </contour>
    <contour>
      <point x="465" y="0" type="line"/>
      <point x="476" y="63" type="line"/>
      <point x="70" y="63" type="line"/>
      <point x="59" y="0" type="line"/>
    </contour>
  </outline>
</glyph>
<glyph name="bitcoin" format="2">
  <advance width="600"/>
  <unicode hex="20BF"/>
  <outline>
    <contour>
      <point x="169" y="700" type="line"/>
      <point x="46" y="0" type="line"/>
      <point x="134" y="0" type="line"/>
      <point x="257" y="700" type="line"/>
    </contour>
    <contour>
      <point x="280" y="668" type="line"/>
      <point x="345" y="668" type="line"/>
      <point x="368" y="797" type="line"/>
      <point x="303" y="797" type="line"/>
    </contour>
    <contour>
      <point x="387" y="668" type="line"/>
      <point x="452" y="668" type="line"/>
      <point x="475" y="797" type="line"/>
      <point x="410" y="797" type="line"/>
    </contour>
    <contour>
      <point x="143" y="-112" type="line"/>
      <point x="208" y="-112" type="line"/>
      <point x="231" y="17" type="line"/>
      <point x="166" y="17" type="line"/>
    </contour>
    <contour>
      <point x="250" y="-112" type="line"/>
      <point x="315" y="-112" type="line"/>
      <point x="338" y="17" type="line"/>
      <point x="273" y="17" type="line"/>
    </contour>
    <contour>
      <point x="294" y="0" type="line" smooth="yes"/>
      <point x="452" y="0"/>
      <point x="544" y="113"/>
      <point x="544" y="225" type="curve" smooth="yes"/>
      <point x="544" y="302"/>
      <point x="498" y="348"/>
      <point x="448" y="371" type="curve"/>
      <point x="445" y="353" type="line"/>
      <point x="525" y="372"/>
      <point x="585" y="451"/>
      <point x="585" y="542" type="curve" smooth="yes"/>
      <point x="585" y="635"/>
      <point x="524" y="700"/>
      <point x="418" y="700" type="curve" smooth="yes"/>
      <point x="204" y="700" type="line"/>
      <point x="190" y="621" type="line"/>
      <point x="397" y="621" type="line" smooth="yes"/>
      <point x="461" y="621"/>
      <point x="498" y="583"/>
      <point x="498" y="527" type="curve" smooth="yes"/>
      <point x="498" y="464"/>
      <point x="454" y="398"/>
      <point x="361" y="398" type="curve" smooth="yes"/>
      <point x="149" y="398" type="line"/>
      <point x="136" y="320" type="line"/>
      <point x="345" y="320" type="line" smooth="yes"/>
      <point x="408" y="320"/>
      <point x="454" y="282"/>
      <point x="454" y="219" type="curve" smooth="yes"/>
      <point x="454" y="166"/>
      <point x="418" y="79"/>
      <point x="302" y="79" type="curve" smooth="yes"/>
      <point x="94" y="79" type="line"/>
      <point x="80" y="0" type="line"/>
    </contour>
  </outline>
</glyph>
<glyph name="onetenth" format="2">
  <advance width="760"/>
  <unicode hex="2152"/>
  <outline>
    <contour>
      <point x="335" y="0" type="line"/>
      <point x="400" y="0" type="line"/>
      <point x="448" y="274" type="line"/>
      <point x="389" y="274" type="line"/>
      <point x="381" y="226"/>
      <point x="365" y="212"/>
      <point x="304" y="212" type="curve"/>
      <point x="296" y="163" type="line"/>
      <point x="402" y="163" type="line"/>
      <point x="371" y="205" type="line"/>
    </contour>
    <contour>
      <point x="569" y="-5" type="curve" smooth="yes"/>
      <point x="666" y="-5"/>
      <point x="693" y="105"/>
      <point x="693" y="168" type="curve" smooth="yes"/>
      <point x="693" y="240"/>
      <point x="657" y="278"/>
      <point x="600" y="278" type="curve" smooth="yes"/>
      <point x="504" y="278"/>
      <point x="476" y="171"/>
      <point x="476" y="106" type="curve" smooth="yes"/>
      <point x="476" y="33"/>
      <point x="512" y="-5"/>
    </contour>
    <contour>
      <point x="153" y="386" type="line"/>
      <point x="220" y="386" type="line"/>
      <point x="275" y="700" type="line"/>
      <point x="216" y="700" type="line"/>
      <point x="207" y="646"/>
      <point x="188" y="629"/>
      <point x="118" y="629" type="curve"/>
      <point x="109" y="580" type="line"/>
      <point x="227" y="580" type="line"/>
      <point x="194" y="621" type="line"/>
    </contour>
    <contour>
      <point x="37" y="0" type="line"/>
      <point x="110" y="0" type="line"/>
      <point x="590" y="700" type="line"/>
      <point x="517" y="700" type="line"/>
    </contour>
    <contour>
      <point x="573" y="48" type="curve" smooth="yes"/>
      <point x="549" y="48"/>
      <point x="536" y="67"/>
      <point x="536" y="104" type="curve" smooth="yes"/>
      <point x="536" y="142"/>
      <point x="552" y="226"/>
      <point x="599" y="226" type="curve" smooth="yes"/>
      <point x="621" y="226"/>
      <point x="632" y="208"/>
      <point x="632" y="174" type="curve" smooth="yes"/>
      <point x="632" y="136"/>
      <point x="619" y="48"/>
    </contour>
  </outline>
</glyph>
<glyph name="circlewhite" format="2">
  <advance width="760"/>
  <unicode hex="25CB"/>
  <outline>
    <contour>
      <point x="709" y="399" type="curve" smooth="yes"/>
      <point x="709" y="211"/>
      <point x="559" y="38"/>
      <point x="357" y="38" type="curve" smooth="yes"/>
      <point x="197" y="38"/>
      <point x="87" y="147"/>
      <point x="87" y="301" type="curve" smooth="yes"/>
      <point x="87" y="489"/>
      <point x="237" y="662"/>
      <point x="439" y="662" type="curve" smooth="yes"/>
      <point x="599" y="662"/>
      <point x="709" y="553"/>
    </contour>
    <contour>
      <point x="33" y="301" type="curve" smooth="yes"/>
      <point x="33" y="124"/>
      <point x="161" y="-12"/>
      <point x="351" y="-12" type="curve" smooth="yes"/>
      <point x="580" y="-12"/>
      <point x="763" y="174"/>
      <point x="763" y="399" type="curve" smooth="yes"/>
      <point x="763" y="576"/>
      <point x="635" y="712"/>
      <point x="445" y="712" type="curve" smooth="yes"/>
      <point x="216" y="712"/>
      <point x="33" y="526"/>
    </contour>
  </outline>
</glyph>
<glyph name="circleblack" format="2">
  <advance width="760"/>
  <unicode hex="25CF"/>
  <outline>
    <contour>
      <point x="33" y="301" type="curve" smooth="yes"/>
      <point x="33" y="124"/>
      <point x="161" y="-12"/>
      <point x="351" y="-12" type="curve" smooth="yes"/>
      <point x="580" y="-12"/>
      <point x="763" y="174"/>
      <point x="763" y="399" type="curve" smooth="yes"/>
      <point x="763" y="576"/>
      <point x="635" y="712"/>
      <point x="445" y="712" type="curve" smooth="yes"/>
      <point x="216" y="712"/>
      <point x="33" y="526"/>
    </contour>
  </outline>
</glyph>
<glyph name="sixsanscircled" format="2">
  <advance width="760"/>
  <unicode hex="2785"/>
  <outline>
    <contour>
      <point x="363" y="148" type="curve" smooth="yes"/>
      <point x="467" y="148"/>
      <point x="524" y="234"/>
      <point x="524" y="308" type="curve" smooth="yes"/>
      <point x="524" y="375"/>
      <point x="478" y="414"/>
      <point x="419" y="414" type="curve" smooth="yes"/>
      <point x="386" y="414"/>
      <point x="355" y="402"/>
      <point x="332" y="380" type="curve"/>
      <point x="349" y="451"/>
      <point x="388" y="490"/>
      <point x="429" y="490" type="curve" smooth="yes"/>
      <point x="456" y="490"/>
      <point x="474" y="474"/>
      <point x="470" y="443" type="curve"/>
      <point x="541" y="435" type="line"/>
      <point x="542" y="439"/>
      <point x="543" y="447"/>
      <point x="543" y="454" type="curve" smooth="yes"/>
      <point x="543" y="510"/>
      <point x="507" y="551"/>
      <point x="437" y="551" type="curve" smooth="yes"/>
      <point x="346" y="551"/>
      <point x="270" y="470"/>
      <point x="248" y="344" type="curve" smooth="yes"/>
      <point x="243" y="317"/>
      <point x="241" y="295"/>
      <point x="241" y="275" type="curve" smooth="yes"/>
      <point x="241" y="197"/>
      <point x="283" y="148"/>
    </contour>
    <contour>
      <point x="315" y="267" type="curve" smooth="yes"/>
      <point x="315" y="313"/>
      <point x="346" y="357"/>
      <point x="394" y="357" type="curve" smooth="yes"/>
      <point x="431" y="357"/>
      <point x="447" y="331"/>
      <point x="447" y="297" type="curve" smooth="yes"/>
      <point x="447" y="251"/>
      <point x="417" y="207"/>
      <point x="369" y="207" type="curve" smooth="yes"/>
      <point x="332" y="207"/>
      <point x="315" y="233"/>
    </contour>
    <component base="circlewhite" identifier="B8E4D008"/>
  </outline>
</glyph>
<glyph name="sevensanscircled" format="2">
  <advance width="760"/>
  <unicode hex="2786"/>
  <outline>
    <contour>
      <point x="300" y="546" type="line"/>
      <point x="275" y="404" type="line"/>
      <point x="346" y="404" type="line"/>
      <point x="360" y="484" type="line"/>
      <point x="495" y="484" type="line"/>
      <point x="405" y="381"/>
      <point x="315" y="270"/>
      <point x="289" y="154" type="curve"/>
      <point x="367" y="154" type="line"/>
      <point x="400" y="284"/>
      <point x="499" y="399"/>
      <point x="588" y="508" type="curve"/>
      <point x="595" y="546" type="line"/>
    </contour>
    <component base="circlewhite" identifier="2AA3028B"/>
  </outline>
</glyph>
<glyph name="foursansnegativecircled" format="2">
  <advance width="760"/>
  <unicode hex="278D"/>
  <outline>
    <contour>
      <point x="516" y="546" type="line"/>
      <point x="473" y="306" type="line"/>
      <point x="540" y="306" type="line"/>
      <point x="529" y="245" type="line"/>
      <point x="462" y="245" type="line"/>
      <point x="446" y="154" type="line"/>
      <point x="373" y="154" type="line"/>
      <point x="389" y="245" type="line"/>
      <point x="207" y="245" type="line"/>
      <point x="219" y="308" type="line"/>
      <point x="435" y="546" type="line"/>
    </contour>
    <contour>
      <point x="297" y="306" type="line"/>
      <point x="400" y="306" type="line"/>
      <point x="425" y="446" type="line"/>
    </contour>
    <component base="circleblack" identifier="8C85D93F"/>
  </outline>
</glyph>
<glyph name="ninesansnegativecircled" format="2">
  <advance width="760"/>
  <unicode hex="2792"/>
  <outline>
    <contour>
      <point x="430" y="552" type="curve" smooth="yes"/>
      <point x="506" y="552"/>
      <point x="553" y="505"/>
      <point x="553" y="427" type="curve" smooth="yes"/>
      <point x="553" y="407"/>
      <point x="550" y="383"/>
      <point x="544" y="353" type="curve" smooth="yes"/>
      <point x="520" y="218"/>
      <point x="466" y="148"/>
      <point x="365" y="148" type="curve" smooth="yes"/>
      <point x="287" y="148"/>
      <point x="247" y="190"/>
      <point x="247" y="251" type="curve" smooth="yes"/>
      <point x="247" y="258"/>
      <point x="248" y="264"/>
      <point x="249" y="270" type="curve"/>
      <point x="325" y="258" type="line"/>
      <point x="324" y="223"/>
      <point x="343" y="206"/>
      <point x="373" y="206" type="curve" smooth="yes"/>
      <point x="422" y="206"/>
      <point x="449" y="253"/>
      <point x="463" y="318" type="curve"/>
      <point x="441" y="297"/>
      <point x="411" y="286"/>
      <point x="380" y="286" type="curve" smooth="yes"/>
      <point x="318" y="286"/>
      <point x="271" y="326"/>
      <point x="271" y="395" type="curve" smooth="yes"/>
      <point x="271" y="474"/>
      <point x="330" y="552"/>
    </contour>
    <contour>
      <point x="346" y="404" type="curve" smooth="yes"/>
      <point x="346" y="365"/>
      <point x="370" y="344"/>
      <point x="402" y="344" type="curve" smooth="yes"/>
      <point x="450" y="344"/>
      <point x="478" y="388"/>
      <point x="478" y="432" type="curve" smooth="yes"/>
      <point x="478" y="471"/>
      <point x="454" y="492"/>
      <point x="422" y="492" type="curve" smooth="yes"/>
      <point x="374" y="492"/>
      <point x="346" y="448"/>
    </contour>
    <component base="circleblack" identifier="9877450A"/>
  </outline>
</glyph>
<glyph name=".notdef" format="2">
  <advance width="600"/>
  <outline>
    <contour>
      <point x="164" y="650" type="line"/>
      <point x="583" y="650" type="line"/>
      <point x="592" y="700" type="line"/>
      <point x="173" y="700" type="line"/>
    </contour>
    <contour>
      <point x="58" y="50" type="line"/>
      <point x="49" y="0" type="line"/>
      <point x="468" y="0" type="line"/>
      <point x="477" y="50" type="line"/>
    </contour>
    <contour>
      <point x="556" y="700" type="line"/>
      <point x="432" y="0" type="line"/>
      <point x="482" y="0" type="line"/>
      <point x="606" y="700" type="line"/>
    </contour>
    <contour>
      <point x="32" y="0" type="line"/>
      <point x="82" y="0" type="line"/>
      <point x="206" y="700" type="line"/>
      <point x="156" y="700" type="line"/>
    </contour>
    <contour>
      <point x="189" y="269" type="line"/>
      <point x="217" y="235" type="line"/>
      <point x="448" y="431" type="line"/>
      <point x="420" y="465" type="line"/>
    </contour>
    <contour>
      <point x="254" y="465" type="line"/>
      <point x="218" y="435" type="line"/>
      <point x="382" y="235" type="line"/>
      <point x="418" y="265" type="line"/>
    </contour>
  </outline>
</glyph>
<glyph name="acutecmb.uc" format="2">
  <advance width="600"/>
  <outline>
    <contour>
      <point x="417" y="892" type="line"/>
      <point x="511" y="892" type="line"/>
      <point x="391" y="771" type="line"/>
      <point x="320" y="771" type="line"/>
    </contour>
  </outline>
</glyph>
<glyph name="bar.uc" format="2">
  <advance width="300"/>
  <outline>
    <contour>
      <point x="197" y="745" type="line"/>
      <point x="51" y="-83" type="line"/>
      <point x="134" y="-83" type="line"/>
      <point x="280" y="745" type="line"/>
    </contour>
  </outline>
</glyph>
<glyph name="bullet.medium" format="2">
  <advance width="550"/>
  <outline>
    <contour>
      <point x="298" y="528" type="curve" smooth="yes"/>
      <point x="161" y="528"/>
      <point x="66" y="414"/>
      <point x="66" y="295" type="curve" smooth="yes"/>
      <point x="66" y="183"/>
      <point x="154" y="90"/>
      <point x="274" y="90" type="curve" smooth="yes"/>
      <point x="411" y="90"/>
      <point x="506" y="204"/>
      <point x="506" y="323" type="curve" smooth="yes"/>
      <point x="506" y="435"/>
      <point x="417" y="528"/>
    </contour>
  </outline>
</glyph>
<glyph name="caroncmb.alt" format="2">
  <advance width="600"/>
  <outline>
    <contour>
      <point x="341" y="700" type="line"/>
      <point x="307" y="550" type="line"/>
      <point x="371" y="550" type="line"/>
      <point x="423" y="700" type="line"/>
    </contour>
  </outline>
</glyph>
<glyph name="cent.tab" format="2">
  <advance width="600"/>
  <outline>
    <contour>
      <point x="186" y="-112" type="line"/>
      <point x="254" y="-112" type="line"/>
      <point x="379" y="597" type="line"/>
      <point x="311" y="597" type="line"/>
    </contour>
    <contour>
      <point x="517" y="338" type="line"/>
      <point x="508" y="441"/>
      <point x="434" y="502"/>
      <point x="326" y="502" type="curve" smooth="yes"/>
      <point x="156" y="502"/>
      <point x="53" y="362"/>
      <point x="53" y="198" type="curve" smooth="yes"/>
      <point x="53" y="67"/>
      <point x="134" y="-12"/>
      <point x="260" y="-12" type="curve" smooth="yes"/>
      <point x="362" y="-12"/>
      <point x="443" y="38"/>
      <point x="486" y="133" type="curve"/>
      <point x="407" y="160" type="line"/>
      <point x="381" y="94"/>
      <point x="334" y="57"/>
      <point x="268" y="57" type="curve" smooth="yes"/>
      <point x="188" y="57"/>
      <point x="142" y="111"/>
      <point x="142" y="202" type="curve" smooth="yes"/>
      <point x="142" y="307"/>
      <point x="197" y="431"/>
      <point x="320" y="431" type="curve" smooth="yes"/>
      <point x="392" y="431"/>
      <point x="433" y="392"/>
      <point x="437" y="320" type="curve"/>
    </contour>
  </outline>
</glyph>
<glyph name="colon.tab" format="2">
  <advance width="600"/>
  <outline>
    <contour>
      <point x="219" y="149" type="line"/>
      <point x="193" y="0" type="line"/>
      <point x="319" y="0" type="line"/>
      <point x="345" y="149" type="line"/>
    </contour>
    <contour>
      <point x="279" y="490" type="line"/>
      <point x="253" y="341" type="line"/>
      <point x="379" y="341" type="line"/>
      <point x="405" y="490" type="line"/>
    </contour>
  </outline>
</glyph>
<glyph name="eight.den" format="2">
  <advance width="300"/>
  <outline>
    <contour>
      <point x="153" y="284" type="curve" smooth="yes"/>
      <point x="181" y="284"/>
      <point x="199" y="271"/>
      <point x="199" y="247" type="curve" smooth="yes"/>
      <point x="199" y="219"/>
      <point x="178" y="203"/>
      <point x="149" y="203" type="curve" smooth="yes"/>
      <point x="121" y="203"/>
      <point x="103" y="217"/>
      <point x="103" y="242" type="curve" smooth="yes"/>
      <point x="103" y="263"/>
      <point x="121" y="284"/>
    </contour>
    <contour>
      <point x="156" y="338" type="curve" smooth="yes"/>
      <point x="76" y="338"/>
      <point x="35" y="289"/>
      <point x="35" y="243" type="curve" smooth="yes"/>
      <point x="35" y="209"/>
      <point x="57" y="182"/>
      <point x="88" y="174" type="curve"/>
      <point x="90" y="182" type="line"/>
      <point x="38" y="172"/>
      <point x="-3" y="141"/>
      <point x="-3" y="90" type="curve" smooth="yes"/>
      <point x="-3" y="29"/>
      <point x="52" y="-5"/>
      <point x="118" y="-5" type="curve" smooth="yes"/>
      <point x="190" y="-5"/>
      <point x="252" y="40"/>
      <point x="252" y="103" type="curve" smooth="yes"/>
      <point x="252" y="147"/>
      <point x="223" y="168"/>
      <point x="189" y="178" type="curve"/>
      <point x="187" y="169" type="line"/>
      <point x="229" y="177"/>
      <point x="268" y="203"/>
      <point x="268" y="250" type="curve" smooth="yes"/>
      <point x="268" y="301"/>
      <point x="225" y="338"/>
    </contour>
    <contour>
      <point x="129" y="150" type="curve" smooth="yes"/>
      <point x="162" y="150"/>
      <point x="181" y="134"/>
      <point x="181" y="107" type="curve" smooth="yes"/>
      <point x="181" y="70"/>
      <point x="155" y="49"/>
      <point x="122" y="49" type="curve" smooth="yes"/>
      <point x="89" y="49"/>
      <point x="70" y="68"/>
      <point x="70" y="96" type="curve" smooth="yes"/>
      <point x="70" y="126"/>
      <point x="94" y="150"/>
    </contour>
  </outline>
</glyph>
<glyph name="eight.num" format="2">
  <advance width="300"/>
  <outline>
    <contour>
      <point x="218" y="651" type="curve" smooth="yes"/>
      <point x="246" y="651"/>
      <point x="264" y="638"/>
      <point x="264" y="614" type="curve" smooth="yes"/>
      <point x="264" y="586"/>
      <point x="243" y="570"/>
      <point x="214" y="570" type="curve" smooth="yes"/>
      <point x="186" y="570"/>
      <point x="168" y="584"/>
      <point x="168" y="609" type="curve" smooth="yes"/>
      <point x="168" y="630"/>
      <point x="186" y="651"/>
    </contour>
    <contour>
      <point x="221" y="705" type="curve" smooth="yes"/>
      <point x="141" y="705"/>
      <point x="100" y="656"/>
      <point x="100" y="610" type="curve" smooth="yes"/>
      <point x="100" y="576"/>
      <point x="122" y="549"/>
      <point x="153" y="541" type="curve"/>
      <point x="155" y="549" type="line"/>
      <point x="103" y="539"/>
      <point x="62" y="508"/>
      <point x="62" y="457" type="curve" smooth="yes"/>
      <point x="62" y="396"/>
      <point x="117" y="362"/>
      <point x="183" y="362" type="curve" smooth="yes"/>
      <point x="255" y="362"/>
      <point x="317" y="407"/>
      <point x="317" y="470" type="curve" smooth="yes"/>
      <point x="317" y="514"/>
      <point x="288" y="535"/>
      <point x="254" y="545" type="curve"/>
      <point x="252" y="536" type="line"/>
      <point x="294" y="544"/>
      <point x="333" y="570"/>
      <point x="333" y="617" type="curve" smooth="yes"/>
      <point x="333" y="668"/>
      <point x="290" y="705"/>
    </contour>
    <contour>
      <point x="194" y="517" type="curve" smooth="yes"/>
      <point x="227" y="517"/>
      <point x="246" y="501"/>
      <point x="246" y="474" type="curve" smooth="yes"/>
      <point x="246" y="437"/>
      <point x="220" y="416"/>
      <point x="187" y="416" type="curve" smooth="yes"/>
      <point x="154" y="416"/>
      <point x="135" y="435"/>
      <point x="135" y="463" type="curve" smooth="yes"/>
      <point x="135" y="493"/>
      <point x="159" y="517"/>
    </contour>
  </outline>
</glyph>
<glyph name="eight.sub" format="2">
  <advance width="300"/>
  <outline>
    <contour>
      <point x="95" y="199" type="curve" smooth="yes"/>
      <point x="95" y="220"/>
      <point x="113" y="241"/>
      <point x="145" y="241" type="curve" smooth="yes"/>
      <point x="173" y="241"/>
      <point x="191" y="228"/>
      <point x="191" y="204" type="curve" smooth="yes"/>
      <point x="191" y="176"/>
      <point x="170" y="160"/>
      <point x="141" y="160" type="curve" smooth="yes"/>
      <point x="113" y="160"/>
      <point x="95" y="174"/>
    </contour>
    <contour>
      <point x="80" y="131" type="curve"/>
      <point x="82" y="139" type="line"/>
      <point x="30" y="129"/>
      <point x="-11" y="98"/>
      <point x="-11" y="47" type="curve" smooth="yes"/>
      <point x="-11" y="-14"/>
      <point x="44" y="-48"/>
      <point x="110" y="-48" type="curve" smooth="yes"/>
      <point x="182" y="-48"/>
      <point x="244" y="-3"/>
      <point x="244" y="60" type="curve" smooth="yes"/>
      <point x="244" y="104"/>
      <point x="215" y="125"/>
      <point x="181" y="135" type="curve"/>
      <point x="179" y="126" type="line"/>
      <point x="221" y="134"/>
      <point x="260" y="160"/>
      <point x="260" y="207" type="curve" smooth="yes"/>
      <point x="260" y="258"/>
      <point x="217" y="295"/>
      <point x="148" y="295" type="curve" smooth="yes"/>
      <point x="68" y="295"/>
      <point x="27" y="246"/>
      <point x="27" y="200" type="curve" smooth="yes"/>
      <point x="27" y="166"/>
      <point x="49" y="139"/>
    </contour>
    <contour>
      <point x="114" y="6" type="curve" smooth="yes"/>
      <point x="81" y="6"/>
      <point x="62" y="25"/>
      <point x="62" y="53" type="curve" smooth="yes"/>
      <point x="62" y="83"/>
      <point x="86" y="107"/>
      <point x="121" y="107" type="curve" smooth="yes"/>
      <point x="154" y="107"/>
      <point x="173" y="91"/>
      <point x="173" y="64" type="curve" smooth="yes"/>
      <point x="173" y="27"/>
      <point x="147" y="6"/>
    </contour>
  </outline>
</glyph>
<glyph name="eight.sup" format="2">
  <advance width="300"/>
  <outline>
    <contour>
      <point x="235" y="751" type="curve" smooth="yes"/>
      <point x="263" y="751"/>
      <point x="281" y="738"/>
      <point x="281" y="714" type="curve" smooth="yes"/>
      <point x="281" y="686"/>
      <point x="260" y="670"/>
      <point x="231" y="670" type="curve" smooth="yes"/>
      <point x="203" y="670"/>
      <point x="185" y="684"/>
      <point x="185" y="709" type="curve" smooth="yes"/>
      <point x="185" y="730"/>
      <point x="203" y="751"/>
    </contour>
    <contour>
      <point x="238" y="805" type="curve" smooth="yes"/>
      <point x="158" y="805"/>
      <point x="117" y="756"/>
      <point x="117" y="710" type="curve" smooth="yes"/>
      <point x="117" y="676"/>
      <point x="139" y="649"/>
      <point x="170" y="641" type="curve"/>
      <point x="172" y="649" type="line"/>
      <point x="120" y="639"/>
      <point x="79" y="608"/>
      <point x="79" y="557" type="curve" smooth="yes"/>
      <point x="79" y="496"/>
      <point x="134" y="462"/>
      <point x="200" y="462" type="curve" smooth="yes"/>
      <point x="272" y="462"/>
      <point x="334" y="507"/>
      <point x="334" y="570" type="curve" smooth="yes"/>
      <point x="334" y="614"/>
      <point x="305" y="635"/>
      <point x="271" y="645" type="curve"/>
      <point x="269" y="636" type="line"/>
      <point x="311" y="644"/>
      <point x="350" y="670"/>
      <point x="350" y="717" type="curve" smooth="yes"/>
      <point x="350" y="768"/>
      <point x="307" y="805"/>
    </contour>
    <contour>
      <point x="211" y="617" type="curve" smooth="yes"/>
      <point x="244" y="617"/>
      <point x="263" y="601"/>
      <point x="263" y="574" type="curve" smooth="yes"/>
      <point x="263" y="537"/>
      <point x="237" y="516"/>
      <point x="204" y="516" type="curve" smooth="yes"/>
      <point x="171" y="516"/>
      <point x="152" y="535"/>
      <point x="152" y="563" type="curve" smooth="yes"/>
      <point x="152" y="593"/>
      <point x="176" y="617"/>
    </contour>
  </outline>
</glyph>
<glyph name="emdash.uc" format="2">
  <advance width="880"/>
  <outline>
    <contour>
      <point x="66" y="298" type="line"/>
      <point x="832" y="298" type="line"/>
      <point x="846" y="374" type="line"/>
      <point x="80" y="374" type="line"/>
    </contour>
  </outline>
</glyph>
<glyph name="endash.uc" format="2">
  <advance width="680"/>
  <outline>
    <contour>
      <point x="128" y="298" type="line"/>
      <point x="570" y="298" type="line"/>
      <point x="584" y="374" type="line"/>
      <point x="142" y="374" type="line"/>
    </contour>
  </outline>
</glyph>
<glyph name="equal.tab" format="2">
  <advance width="600"/>
  <outline>
    <contour>
      <point x="555" y="402" type="line"/>
      <point x="568" y="478" type="line"/>
      <point x="112" y="478" type="line"/>
      <point x="99" y="402" type="line"/>
    </contour>
    <contour>
      <point x="520" y="202" type="line"/>
      <point x="533" y="278" type="line"/>
      <point x="77" y="278" type="line"/>
      <point x="64" y="202" type="line"/>
    </contour>
  </outline>
</glyph>
<glyph name="five.den" format="2">
  <advance width="300"/>
  <outline>
    <contour>
      <point x="136" y="314" type="line"/>
      <point x="93" y="273" type="line"/>
      <point x="271" y="273" type="line"/>
      <point x="281" y="333" type="line"/>
      <point x="75" y="333" type="line"/>
      <point x="27" y="146" type="line"/>
      <point x="93" y="141" type="line"/>
      <point x="104" y="159"/>
      <point x="119" y="171"/>
      <point x="141" y="171" type="curve" smooth="yes"/>
      <point x="167" y="171"/>
      <point x="181" y="154"/>
      <point x="181" y="125" type="curve" smooth="yes"/>
      <point x="181" y="85"/>
      <point x="160" y="51"/>
      <point x="126" y="51" type="curve" smooth="yes"/>
      <point x="95" y="51"/>
      <point x="79" y="72"/>
      <point x="83" y="102" type="curve"/>
      <point x="8" y="111" type="line"/>
      <point x="8" y="107"/>
      <point x="7" y="102"/>
      <point x="7" y="98" type="curve" smooth="yes"/>
      <point x="7" y="40"/>
      <point x="52" y="-5"/>
      <point x="125" y="-5" type="curve" smooth="yes"/>
      <point x="206" y="-5"/>
      <point x="255" y="56"/>
      <point x="255" y="131" type="curve" smooth="yes"/>
      <point x="255" y="189"/>
      <point x="219" y="226"/>
      <point x="165" y="226" type="curve" smooth="yes"/>
      <point x="120" y="226"/>
      <point x="93" y="196"/>
      <point x="77" y="166" type="curve"/>
      <point x="98" y="168" type="line"/>
    </contour>
  </outline>
</glyph>
<glyph name="five.sub" format="2">
  <advance width="300"/>
  <outline>
    <contour>
      <point x="129" y="271" type="line"/>
      <point x="86" y="230" type="line"/>
      <point x="264" y="230" type="line"/>
      <point x="274" y="290" type="line"/>
      <point x="68" y="290" type="line"/>
      <point x="20" y="103" type="line"/>
      <point x="86" y="98" type="line"/>
      <point x="97" y="116"/>
      <point x="112" y="128"/>
      <point x="134" y="128" type="curve" smooth="yes"/>
      <point x="160" y="128"/>
      <point x="174" y="111"/>
      <point x="174" y="82" type="curve" smooth="yes"/>
      <point x="174" y="42"/>
      <point x="153" y="8"/>
      <point x="119" y="8" type="curve" smooth="yes"/>
      <point x="88" y="8"/>
      <point x="72" y="29"/>
      <point x="76" y="59" type="curve"/>
      <point x="1" y="68" type="line"/>
      <point x="1" y="64"/>
      <point x="0" y="59"/>
      <point x="0" y="55" type="curve" smooth="yes"/>
      <point x="0" y="-3"/>
      <point x="45" y="-48"/>
      <point x="118" y="-48" type="curve" smooth="yes"/>
      <point x="199" y="-48"/>
      <point x="248" y="13"/>
      <point x="248" y="88" type="curve" smooth="yes"/>
      <point x="248" y="146"/>
      <point x="212" y="183"/>
      <point x="158" y="183" type="curve" smooth="yes"/>
      <point x="113" y="183"/>
      <point x="86" y="153"/>
      <point x="70" y="123" type="curve"/>
      <point x="91" y="125" type="line"/>
    </contour>
  </outline>
</glyph>
<glyph name="five.sup" format="2">
  <advance width="300"/>
  <outline>
    <contour>
      <point x="219" y="781" type="line"/>
      <point x="176" y="740" type="line"/>
      <point x="354" y="740" type="line"/>
      <point x="364" y="800" type="line"/>
      <point x="158" y="800" type="line"/>
      <point x="110" y="613" type="line"/>
      <point x="176" y="608" type="line"/>
      <point x="187" y="626"/>
      <point x="202" y="638"/>
      <point x="224" y="638" type="curve" smooth="yes"/>
      <point x="250" y="638"/>
      <point x="264" y="621"/>
      <point x="264" y="592" type="curve" smooth="yes"/>
      <point x="264" y="552"/>
      <point x="243" y="518"/>
      <point x="209" y="518" type="curve" smooth="yes"/>
      <point x="178" y="518"/>
      <point x="162" y="539"/>
      <point x="166" y="569" type="curve"/>
      <point x="91" y="578" type="line"/>
      <point x="91" y="574"/>
      <point x="90" y="569"/>
      <point x="90" y="565" type="curve" smooth="yes"/>
      <point x="90" y="507"/>
      <point x="135" y="462"/>
      <point x="208" y="462" type="curve" smooth="yes"/>
      <point x="289" y="462"/>
      <point x="338" y="523"/>
      <point x="338" y="598" type="curve" smooth="yes"/>
      <point x="338" y="656"/>
      <point x="302" y="693"/>
      <point x="248" y="693" type="curve" smooth="yes"/>
      <point x="203" y="693"/>
      <point x="176" y="663"/>
      <point x="160" y="633" type="curve"/>
      <point x="181" y="635" type="line"/>
    </contour>
  </outline>
</glyph>
<glyph name="five.tab" format="2">
  <advance width="600"/>
  <outline>
    <contour>
      <point x="280" y="664" type="line"/>
      <point x="224" y="621" type="line"/>
      <point x="588" y="621" type="line"/>
      <point x="602" y="700" type="line"/>
      <point x="210" y="700" type="line"/>
      <point x="109" y="321" type="line"/>
      <point x="186" y="309" type="line"/>
      <point x="213" y="352"/>
      <point x="268" y="395"/>
      <point x="339" y="395" type="curve" smooth="yes"/>
      <point x="405" y="395"/>
      <point x="460" y="355"/>
      <point x="460" y="266" type="curve" smooth="yes"/>
      <point x="460" y="167"/>
      <point x="404" y="61"/>
      <point x="282" y="61" type="curve" smooth="yes"/>
      <point x="196" y="61"/>
      <point x="153" y="110"/>
      <point x="153" y="174" type="curve" smooth="yes"/>
      <point x="153" y="181"/>
      <point x="153" y="188"/>
      <point x="154" y="195" type="curve"/>
      <point x="61" y="210" type="line"/>
      <point x="60" y="198"/>
      <point x="59" y="187"/>
      <point x="59" y="177" type="curve" smooth="yes"/>
      <point x="59" y="55"/>
      <point x="151" y="-12"/>
      <point x="273" y="-12" type="curve" smooth="yes"/>
      <point x="465" y="-12"/>
      <point x="553" y="132"/>
      <point x="553" y="275" type="curve" smooth="yes"/>
      <point x="553" y="401"/>
      <point x="471" y="465"/>
      <point x="366" y="465" type="curve" smooth="yes"/>
      <point x="275" y="465"/>
      <point x="201" y="417"/>
      <point x="175" y="363" type="curve"/>
      <point x="198" y="363" type="line"/>
    </contour>
  </outline>
</glyph>
<glyph name="four.den" format="2">
  <advance width="300"/>
  <outline>
    <contour>
      <point x="123" y="1" type="line"/>
      <point x="192" y="1" type="line"/>
      <point x="250" y="334" type="line"/>
      <point x="171" y="334" type="line"/>
      <point x="-9" y="136" type="line"/>
      <point x="-19" y="76" type="line"/>
      <point x="261" y="76" type="line"/>
      <point x="271" y="133" type="line"/>
      <point x="19" y="133" type="line"/>
      <point x="37" y="105" type="line"/>
      <point x="227" y="314" type="line"/>
      <point x="178" y="315" type="line"/>
    </contour>
  </outline>
</glyph>
<glyph name="four.num" format="2">
  <advance width="300"/>
  <outline>
    <contour>
      <point x="187" y="368" type="line"/>
      <point x="256" y="368" type="line"/>
      <point x="314" y="701" type="line"/>
      <point x="235" y="701" type="line"/>
      <point x="55" y="503" type="line"/>
      <point x="45" y="443" type="line"/>
      <point x="325" y="443" type="line"/>
      <point x="335" y="500" type="line"/>
      <point x="83" y="500" type="line"/>
      <point x="101" y="472" type="line"/>
      <point x="291" y="681" type="line"/>
      <point x="242" y="682" type="line"/>
    </contour>
  </outline>
</glyph>
<glyph name="four.sub" format="2">
  <advance width="300"/>
  <outline>
    <contour>
      <point x="115" y="-42" type="line"/>
      <point x="184" y="-42" type="line"/>
      <point x="242" y="291" type="line"/>
      <point x="163" y="291" type="line"/>
      <point x="-17" y="93" type="line"/>
      <point x="-27" y="33" type="line"/>
      <point x="253" y="33" type="line"/>
      <point x="263" y="90" type="line"/>
      <point x="11" y="90" type="line"/>
      <point x="29" y="62" type="line"/>
      <point x="219" y="271" type="line"/>
      <point x="170" y="272" type="line"/>
    </contour>
  </outline>
</glyph>
<glyph name="four.sup" format="2">
  <advance width="300"/>
  <outline>
    <contour>
      <point x="205" y="468" type="line"/>
      <point x="274" y="468" type="line"/>
      <point x="332" y="801" type="line"/>
      <point x="253" y="801" type="line"/>
      <point x="73" y="603" type="line"/>
      <point x="63" y="543" type="line"/>
      <point x="343" y="543" type="line"/>
      <point x="353" y="600" type="line"/>
      <point x="101" y="600" type="line"/>
      <point x="119" y="572" type="line"/>
      <point x="309" y="781" type="line"/>
      <point x="260" y="782" type="line"/>
    </contour>
  </outline>
</glyph>
<glyph name="gravecmb.uc" format="2">
  <advance width="600"/>
  <outline>
    <contour>
      <point x="403" y="892" type="line"/>
      <point x="456" y="771" type="line"/>
      <point x="392" y="771" type="line"/>
      <point x="316" y="892" type="line"/>
    </contour>
  </outline>
</glyph>
<glyph name="greaterequal.tab" format="2">
  <advance width="600"/>
  <outline>
    <contour>
      <point x="28" y="0" type="line"/>
      <point x="42" y="76" type="line"/>
      <point x="498" y="76" type="line"/>
      <point x="484" y="0" type="line"/>
    </contour>
    <contour>
      <point x="545" y="342" type="line"/>
      <point x="560" y="428" type="line"/>
      <point x="137" y="619" type="line"/>
      <point x="123" y="538" type="line"/>
      <point x="488" y="374" type="line"/>
      <point x="493" y="403" type="line"/>
      <point x="70" y="239" type="line"/>
      <point x="55" y="151" type="line"/>
    </contour>
  </outline>
</glyph>
<glyph name="hookabovecmb.uc" format="2">
  <advance width="600"/>
  <outline>
    <contour>
      <point x="474" y="859" type="curve" smooth="yes"/>
      <point x="474" y="903"/>
      <point x="443" y="936"/>
      <point x="393" y="936" type="curve" smooth="yes"/>
      <point x="352" y="936"/>
      <point x="315" y="914"/>
      <point x="291" y="882" type="curve"/>
      <point x="328" y="851" type="line"/>
      <point x="339" y="864"/>
      <point x="355" y="881"/>
      <point x="380" y="881" type="curve" smooth="yes"/>
      <point x="401" y="881"/>
      <point x="412" y="869"/>
      <point x="412" y="850" type="curve" smooth="yes"/>
      <point x="412" y="823"/>
      <point x="391" y="806"/>
      <point x="343" y="794" type="curve"/>
      <point x="372" y="753" type="line"/>
      <point x="421" y="762"/>
      <point x="474" y="800"/>
    </contour>
  </outline>
</glyph>
<glyph name="hungarumlautcmb.uc" format="2">
  <advance width="600"/>
  <outline>
    <contour>
      <point x="319" y="892" type="line"/>
      <point x="407" y="892" type="line"/>
      <point x="321" y="771" type="line"/>
      <point x="242" y="771" type="line"/>
    </contour>
    <contour>
      <point x="466" y="892" type="line"/>
      <point x="554" y="892" type="line"/>
      <point x="468" y="771" type="line"/>
      <point x="389" y="771" type="line"/>
    </contour>
  </outline>
</glyph>
<glyph name="hyphen.uc" format="2">
  <advance width="600"/>
  <outline>
    <contour>
      <point x="156" y="296" type="line"/>
      <point x="462" y="296" type="line"/>
      <point x="476" y="376" type="line"/>
      <point x="170" y="376" type="line"/>
    </contour>
  </outline>
</glyph>
<glyph name="indianrupee.tab" format="2">
  <advance width="600"/>
  <outline>
    <contour>
      <point x="153" y="336" type="line"/>
      <point x="195" y="242"/>
      <point x="270" y="79"/>
      <point x="326" y="0" type="curve"/>
      <point x="419" y="0" type="line"/>
      <point x="419" y="7" type="line"/>
      <point x="364" y="82"/>
      <point x="287" y="243"/>
      <point x="246" y="336" type="curve"/>
    </contour>
    <contour>
      <point x="99" y="463" type="line"/>
      <point x="591" y="463" type="line"/>
      <point x="605" y="540" type="line"/>
      <point x="113" y="540" type="line"/>
    </contour>
    <contour>
      <point x="247" y="381" type="curve" smooth="yes"/>
      <point x="79" y="381" type="line"/>
      <point x="66" y="304" type="line"/>
      <point x="236" y="304" type="line" smooth="yes"/>
      <point x="390" y="304"/>
      <point x="491" y="402"/>
      <point x="491" y="521" type="curve" smooth="yes"/>
      <point x="491" y="567"/>
      <point x="476" y="607"/>
      <point x="433" y="638" type="curve"/>
      <point x="430" y="623" type="line"/>
      <point x="619" y="623" type="line"/>
      <point x="633" y="700" type="line"/>
      <point x="141" y="700" type="line"/>
      <point x="127" y="622" type="line"/>
      <point x="290" y="622" type="line" smooth="yes"/>
      <point x="358" y="622"/>
      <point x="402" y="591"/>
      <point x="402" y="520" type="curve" smooth="yes"/>
      <point x="402" y="448"/>
      <point x="358" y="381"/>
    </contour>
  </outline>
</glyph>
<glyph name="lessequal.tab" format="2">
  <advance width="600"/>
  <outline>
    <contour>
      <point x="484" y="0" type="line"/>
      <point x="498" y="76" type="line"/>
      <point x="42" y="76" type="line"/>
      <point x="28" y="0" type="line"/>
    </contour>
    <contour>
      <point x="104" y="428" type="line"/>
      <point x="89" y="342" type="line"/>
      <point x="511" y="151" type="line"/>
      <point x="525" y="230" type="line"/>
      <point x="160" y="394" type="line"/>
      <point x="155" y="365" type="line"/>
      <point x="578" y="529" type="line"/>
      <point x="593" y="619" type="line"/>
    </contour>
  </outline>
</glyph>
<glyph name="macronbelowcmb.uc" format="2">
  <advance width="600"/>
  <outline>
    <contour>
      <point x="93" y="-152" type="line"/>
      <point x="367" y="-152" type="line"/>
      <point x="379" y="-84" type="line"/>
      <point x="105" y="-84" type="line"/>
    </contour>
  </outline>
</glyph>
<glyph name="minus.tab" format="2">
  <advance width="600"/>
  <outline>
    <contour>
      <point x="538" y="302" type="line"/>
      <point x="552" y="378" type="line"/>
      <point x="96" y="378" type="line"/>
      <point x="82" y="302" type="line"/>
    </contour>
  </outline>
</glyph>
<glyph name="multiply.tab" format="2">
  <advance width="600"/>
  <outline>
    <contour>
      <point x="82" y="186" type="line"/>
      <point x="130" y="129" type="line"/>
      <point x="560" y="494" type="line"/>
      <point x="512" y="551" type="line"/>
    </contour>
    <contour>
      <point x="442" y="133" type="line"/>
      <point x="500" y="182" type="line"/>
      <point x="200" y="547" type="line"/>
      <point x="142" y="498" type="line"/>
    </contour>
  </outline>
</glyph>
<glyph name="nine.den" format="2">
  <advance width="300"/>
  <outline>
    <contour>
      <point x="155" y="338" type="curve" smooth="yes"/>
      <point x="84" y="338"/>
      <point x="26" y="288"/>
      <point x="26" y="206" type="curve" smooth="yes"/>
      <point x="26" y="142"/>
      <point x="71" y="112"/>
      <point x="122" y="112" type="curve" smooth="yes"/>
      <point x="170" y="112"/>
      <point x="200" y="139"/>
      <point x="217" y="189" type="curve"/>
      <point x="197" y="189" type="line"/>
      <point x="191" y="158" type="line" smooth="yes"/>
      <point x="181" y="98"/>
      <point x="164" y="50"/>
      <point x="122" y="50" type="curve" smooth="yes"/>
      <point x="95" y="50"/>
      <point x="80" y="64"/>
      <point x="81" y="90" type="curve"/>
      <point x="6" y="101" type="line"/>
      <point x="5" y="97"/>
      <point x="5" y="93"/>
      <point x="5" y="89" type="curve" smooth="yes"/>
      <point x="5" y="39"/>
      <point x="45" y="-5"/>
      <point x="115" y="-5" type="curve" smooth="yes"/>
      <point x="212" y="-5"/>
      <point x="251" y="82"/>
      <point x="264" y="155" type="curve" smooth="yes"/>
      <point x="267" y="178"/>
      <point x="269" y="199"/>
      <point x="269" y="216" type="curve" smooth="yes"/>
      <point x="269" y="290"/>
      <point x="232" y="338"/>
    </contour>
    <contour>
      <point x="157" y="282" type="curve" smooth="yes"/>
      <point x="181" y="282"/>
      <point x="200" y="267"/>
      <point x="200" y="237" type="curve" smooth="yes"/>
      <point x="200" y="194"/>
      <point x="174" y="166"/>
      <point x="142" y="166" type="curve" smooth="yes"/>
      <point x="118" y="166"/>
      <point x="98" y="181"/>
      <point x="98" y="211" type="curve" smooth="yes"/>
      <point x="98" y="241"/>
      <point x="116" y="282"/>
    </contour>
  </outline>
</glyph>
<glyph name="nine.num" format="2">
  <advance width="300"/>
  <outline>
    <contour>
      <point x="219" y="705" type="curve" smooth="yes"/>
      <point x="148" y="705"/>
      <point x="90" y="655"/>
      <point x="90" y="573" type="curve" smooth="yes"/>
      <point x="90" y="509"/>
      <point x="135" y="479"/>
      <point x="186" y="479" type="curve" smooth="yes"/>
      <point x="234" y="479"/>
      <point x="264" y="506"/>
      <point x="281" y="556" type="curve"/>
      <point x="261" y="556" type="line"/>
      <point x="255" y="525" type="line" smooth="yes"/>
      <point x="245" y="465"/>
      <point x="228" y="417"/>
      <point x="186" y="417" type="curve" smooth="yes"/>
      <point x="159" y="417"/>
      <point x="144" y="431"/>
      <point x="145" y="457" type="curve"/>
      <point x="70" y="468" type="line"/>
      <point x="69" y="464"/>
      <point x="69" y="460"/>
      <point x="69" y="456" type="curve" smooth="yes"/>
      <point x="69" y="406"/>
      <point x="109" y="362"/>
      <point x="179" y="362" type="curve" smooth="yes"/>
      <point x="276" y="362"/>
      <point x="315" y="449"/>
      <point x="328" y="522" type="curve" smooth="yes"/>
      <point x="331" y="545"/>
      <point x="333" y="566"/>
      <point x="333" y="583" type="curve" smooth="yes"/>
      <point x="333" y="657"/>
      <point x="296" y="705"/>
    </contour>
    <contour>
      <point x="221" y="649" type="curve" smooth="yes"/>
      <point x="245" y="649"/>
      <point x="264" y="634"/>
      <point x="264" y="604" type="curve" smooth="yes"/>
      <point x="264" y="561"/>
      <point x="238" y="533"/>
      <point x="206" y="533" type="curve" smooth="yes"/>
      <point x="182" y="533"/>
      <point x="162" y="548"/>
      <point x="162" y="578" type="curve" smooth="yes"/>
      <point x="162" y="608"/>
      <point x="180" y="649"/>
    </contour>
  </outline>
</glyph>
<glyph name="nine.sub" format="2">
  <advance width="300"/>
  <outline>
    <contour>
      <point x="147" y="295" type="curve" smooth="yes"/>
      <point x="76" y="295"/>
      <point x="18" y="245"/>
      <point x="18" y="163" type="curve" smooth="yes"/>
      <point x="18" y="99"/>
      <point x="63" y="69"/>
      <point x="114" y="69" type="curve" smooth="yes"/>
      <point x="162" y="69"/>
      <point x="192" y="96"/>
      <point x="209" y="146" type="curve"/>
      <point x="189" y="146" type="line"/>
      <point x="183" y="115" type="line" smooth="yes"/>
      <point x="173" y="55"/>
      <point x="156" y="7"/>
      <point x="114" y="7" type="curve" smooth="yes"/>
      <point x="87" y="7"/>
      <point x="72" y="21"/>
      <point x="73" y="47" type="curve"/>
      <point x="-2" y="58" type="line"/>
      <point x="-3" y="54"/>
      <point x="-3" y="50"/>
      <point x="-3" y="46" type="curve" smooth="yes"/>
      <point x="-3" y="-4"/>
      <point x="37" y="-48"/>
      <point x="107" y="-48" type="curve" smooth="yes"/>
      <point x="204" y="-48"/>
      <point x="243" y="39"/>
      <point x="256" y="112" type="curve" smooth="yes"/>
      <point x="259" y="135"/>
      <point x="261" y="156"/>
      <point x="261" y="173" type="curve" smooth="yes"/>
      <point x="261" y="247"/>
      <point x="224" y="295"/>
    </contour>
    <contour>
      <point x="149" y="239" type="curve" smooth="yes"/>
      <point x="173" y="239"/>
      <point x="192" y="224"/>
      <point x="192" y="194" type="curve" smooth="yes"/>
      <point x="192" y="151"/>
      <point x="166" y="123"/>
      <point x="134" y="123" type="curve" smooth="yes"/>
      <point x="110" y="123"/>
      <point x="90" y="138"/>
      <point x="90" y="168" type="curve" smooth="yes"/>
      <point x="90" y="198"/>
      <point x="108" y="239"/>
    </contour>
  </outline>
</glyph>
<glyph name="nine.sup" format="2">
  <advance width="300"/>
  <outline>
    <contour>
      <point x="237" y="805" type="curve" smooth="yes"/>
      <point x="166" y="805"/>
      <point x="108" y="755"/>
      <point x="108" y="673" type="curve" smooth="yes"/>
      <point x="108" y="609"/>
      <point x="153" y="579"/>
      <point x="204" y="579" type="curve" smooth="yes"/>
      <point x="252" y="579"/>
      <point x="282" y="606"/>
      <point x="299" y="656" type="curve"/>
      <point x="279" y="656" type="line"/>
      <point x="273" y="625" type="line" smooth="yes"/>
      <point x="263" y="565"/>
      <point x="246" y="517"/>
      <point x="204" y="517" type="curve" smooth="yes"/>
      <point x="177" y="517"/>
      <point x="162" y="531"/>
      <point x="163" y="557" type="curve"/>
      <point x="88" y="568" type="line"/>
      <point x="87" y="564"/>
      <point x="87" y="560"/>
      <point x="87" y="556" type="curve" smooth="yes"/>
      <point x="87" y="506"/>
      <point x="127" y="462"/>
      <point x="197" y="462" type="curve" smooth="yes"/>
      <point x="294" y="462"/>
      <point x="333" y="549"/>
      <point x="346" y="622" type="curve" smooth="yes"/>
      <point x="349" y="645"/>
      <point x="351" y="666"/>
      <point x="351" y="683" type="curve" smooth="yes"/>
      <point x="351" y="757"/>
      <point x="314" y="805"/>
    </contour>
    <contour>
      <point x="239" y="749" type="curve" smooth="yes"/>
      <point x="263" y="749"/>
      <point x="282" y="734"/>
      <point x="282" y="704" type="curve" smooth="yes"/>
      <point x="282" y="661"/>
      <point x="256" y="633"/>
      <point x="224" y="633" type="curve" smooth="yes"/>
      <point x="200" y="633"/>
      <point x="180" y="648"/>
      <point x="180" y="678" type="curve" smooth="yes"/>
      <point x="180" y="708"/>
      <point x="198" y="749"/>
    </contour>
  </outline>
</glyph>
<glyph name="one.den" format="2">
  <advance width="300"/>
  <outline>
    <contour>
      <point x="153" y="333" type="line"/>
      <point x="143" y="275"/>
      <point x="124" y="257"/>
      <point x="49" y="257" type="curve"/>
      <point x="39" y="204" type="line"/>
      <point x="165" y="204" type="line"/>
      <point x="131" y="249" type="line"/>
      <point x="88" y="0" type="line"/>
      <point x="160" y="0" type="line"/>
      <point x="218" y="333" type="line"/>
    </contour>
  </outline>
</glyph>
<glyph name="one.sub" format="2">
  <advance width="300"/>
  <outline>
    <contour>
      <point x="145" y="290" type="line"/>
      <point x="135" y="232"/>
      <point x="116" y="214"/>
      <point x="41" y="214" type="curve"/>
      <point x="31" y="161" type="line"/>
      <point x="157" y="161" type="line"/>
      <point x="123" y="206" type="line"/>
      <point x="80" y="-43" type="line"/>
      <point x="152" y="-43" type="line"/>
      <point x="210" y="290" type="line"/>
    </contour>
  </outline>
</glyph>
<glyph name="one.sup" format="2">
  <advance width="300"/>
  <outline>
    <contour>
      <point x="235" y="800" type="line"/>
      <point x="225" y="742"/>
      <point x="206" y="724"/>
      <point x="131" y="724" type="curve"/>
      <point x="121" y="671" type="line"/>
      <point x="247" y="671" type="line"/>
      <point x="213" y="716" type="line"/>
      <point x="170" y="467" type="line"/>
      <point x="242" y="467" type="line"/>
      <point x="300" y="800" type="line"/>
    </contour>
  </outline>
</glyph>
<glyph name="one.tab" format="2">
  <advance width="600"/>
  <outline>
    <contour>
      <point x="373" y="700" type="line"/>
      <point x="353" y="591"/>
      <point x="321" y="555"/>
      <point x="141" y="555" type="curve"/>
      <point x="130" y="490" type="line"/>
      <point x="382" y="490" type="line"/>
      <point x="334" y="540" type="line"/>
      <point x="238" y="0" type="line"/>
      <point x="328" y="0" type="line"/>
      <point x="452" y="700" type="line"/>
    </contour>
    <contour>
      <point x="43" y="0" type="line"/>
      <point x="498" y="0" type="line"/>
      <point x="512" y="75" type="line"/>
      <point x="57" y="75" type="line"/>
    </contour>
  </outline>
</glyph>
<glyph name="parenleft.uc" format="2">
  <advance width="600"/>
  <outline>
    <contour>
      <point x="574" y="745" type="curve"/>
      <point x="465" y="745" type="line"/>
      <point x="294" y="630"/>
      <point x="169" y="471"/>
      <point x="169" y="270" type="curve" smooth="yes"/>
      <point x="169" y="129"/>
      <point x="226" y="9"/>
      <point x="330" y="-83" type="curve"/>
      <point x="428" y="-83" type="line"/>
      <point x="318" y="17"/>
      <point x="262" y="130"/>
      <point x="262" y="251" type="curve" smooth="yes"/>
      <point x="262" y="462"/>
      <point x="383" y="616"/>
    </contour>
  </outline>
</glyph>
<glyph name="plus.sup" format="2">
  <advance width="450"/>
  <outline>
    <contour>
      <point x="162" y="606" type="line"/>
      <point x="416" y="606" type="line"/>
      <point x="426" y="662" type="line"/>
      <point x="172" y="662" type="line"/>
    </contour>
    <contour>
      <point x="287" y="768" type="line"/>
      <point x="240" y="500" type="line"/>
      <point x="300" y="500" type="line"/>
      <point x="347" y="768" type="line"/>
    </contour>
  </outline>
</glyph>
<glyph name="plus.tab" format="2">
  <advance width="600"/>
  <outline>
    <contour>
      <point x="538" y="302" type="line"/>
      <point x="552" y="378" type="line"/>
      <point x="96" y="378" type="line"/>
      <point x="82" y="302" type="line"/>
    </contour>
    <contour>
      <point x="398" y="578" type="line"/>
      <point x="320" y="578" type="line"/>
      <point x="236" y="102" type="line"/>
      <point x="314" y="102" type="line"/>
    </contour>
  </outline>
</glyph>
<glyph name="plusminus.tab" format="2">
  <advance width="600"/>
  <outline>
    <contour>
      <point x="545" y="347" type="line"/>
      <point x="559" y="423" type="line"/>
      <point x="103" y="423" type="line"/>
      <point x="89" y="347" type="line"/>
    </contour>
    <contour>
      <point x="403" y="613" type="line"/>
      <point x="325" y="613" type="line"/>
      <point x="245" y="157" type="line"/>
      <point x="323" y="157" type="line"/>
    </contour>
    <contour>
      <point x="484" y="0" type="line"/>
      <point x="497" y="76" type="line"/>
      <point x="41" y="76" type="line"/>
      <point x="28" y="0" type="line"/>
    </contour>
  </outline>
</glyph>
<glyph name="seven.den" format="2">
  <advance width="300"/>
  <outline>
    <contour>
      <point x="57" y="333" type="line"/>
      <point x="35" y="207" type="line"/>
      <point x="103" y="207" type="line"/>
      <point x="120" y="303" type="line"/>
      <point x="90" y="273" type="line"/>
      <point x="262" y="273" type="line"/>
      <point x="246" y="311" type="line"/>
      <point x="165" y="214"/>
      <point x="82" y="113"/>
      <point x="58" y="0" type="curve"/>
      <point x="136" y="0" type="line"/>
      <point x="162" y="111"/>
      <point x="230" y="202"/>
      <point x="300" y="294" type="curve"/>
      <point x="307" y="333" type="line"/>
    </contour>
  </outline>
</glyph>
<glyph name="seven.num" format="2">
  <advance width="300"/>
  <outline>
    <contour>
      <point x="121" y="700" type="line"/>
      <point x="99" y="574" type="line"/>
      <point x="167" y="574" type="line"/>
      <point x="184" y="670" type="line"/>
      <point x="154" y="640" type="line"/>
      <point x="326" y="640" type="line"/>
      <point x="310" y="678" type="line"/>
      <point x="229" y="581"/>
      <point x="146" y="480"/>
      <point x="122" y="367" type="curve"/>
      <point x="200" y="367" type="line"/>
      <point x="226" y="478"/>
      <point x="294" y="569"/>
      <point x="364" y="661" type="curve"/>
      <point x="371" y="700" type="line"/>
    </contour>
  </outline>
</glyph>
<glyph name="seven.sub" format="2">
  <advance width="300"/>
  <outline>
    <contour>
      <point x="49" y="290" type="line"/>
      <point x="27" y="164" type="line"/>
      <point x="95" y="164" type="line"/>
      <point x="112" y="260" type="line"/>
      <point x="82" y="230" type="line"/>
      <point x="254" y="230" type="line"/>
      <point x="238" y="268" type="line"/>
      <point x="157" y="171"/>
      <point x="74" y="70"/>
      <point x="50" y="-43" type="curve"/>
      <point x="128" y="-43" type="line"/>
      <point x="154" y="68"/>
      <point x="222" y="159"/>
      <point x="292" y="251" type="curve"/>
      <point x="299" y="290" type="line"/>
    </contour>
  </outline>
</glyph>
<glyph name="seven.sup" format="2">
  <advance width="300"/>
  <outline>
    <contour>
      <point x="139" y="800" type="line"/>
      <point x="117" y="674" type="line"/>
      <point x="185" y="674" type="line"/>
      <point x="202" y="770" type="line"/>
      <point x="172" y="740" type="line"/>
      <point x="344" y="740" type="line"/>
      <point x="328" y="778" type="line"/>
      <point x="247" y="681"/>
      <point x="164" y="580"/>
      <point x="140" y="467" type="curve"/>
      <point x="218" y="467" type="line"/>
      <point x="244" y="578"/>
      <point x="312" y="669"/>
      <point x="382" y="761" type="curve"/>
      <point x="389" y="800" type="line"/>
    </contour>
  </outline>
</glyph>
<glyph name="six.den" format="2">
  <advance width="300"/>
  <outline>
    <contour>
      <point x="4" y="118" type="curve" smooth="yes"/>
      <point x="4" y="44"/>
      <point x="40" y="-5"/>
      <point x="116" y="-5" type="curve" smooth="yes"/>
      <point x="193" y="-5"/>
      <point x="246" y="59"/>
      <point x="246" y="133" type="curve" smooth="yes"/>
      <point x="246" y="194"/>
      <point x="207" y="221"/>
      <point x="156" y="221" type="curve" smooth="yes"/>
      <point x="109" y="221"/>
      <point x="73" y="189"/>
      <point x="55" y="145" type="curve"/>
      <point x="75" y="149" type="line"/>
      <point x="80" y="178" type="line" smooth="yes"/>
      <point x="92" y="247"/>
      <point x="131" y="279"/>
      <point x="164" y="279" type="curve" smooth="yes"/>
      <point x="185" y="279"/>
      <point x="196" y="264"/>
      <point x="193" y="243" type="curve"/>
      <point x="262" y="235" type="line"/>
      <point x="263" y="242"/>
      <point x="264" y="249"/>
      <point x="264" y="255" type="curve" smooth="yes"/>
      <point x="264" y="304"/>
      <point x="234" y="338"/>
      <point x="175" y="338" type="curve" smooth="yes"/>
      <point x="92" y="338"/>
      <point x="25" y="267"/>
      <point x="10" y="182" type="curve" smooth="yes"/>
      <point x="6" y="159"/>
      <point x="4" y="137"/>
    </contour>
    <contour>
      <point x="73" y="96" type="curve" smooth="yes"/>
      <point x="73" y="126"/>
      <point x="90" y="167"/>
      <point x="131" y="167" type="curve" smooth="yes"/>
      <point x="158" y="167"/>
      <point x="174" y="150"/>
      <point x="174" y="121" type="curve" smooth="yes"/>
      <point x="174" y="90"/>
      <point x="154" y="50"/>
      <point x="115" y="50" type="curve" smooth="yes"/>
      <point x="88" y="50"/>
      <point x="73" y="67"/>
    </contour>
  </outline>
</glyph>
<glyph name="six.num" format="2">
  <advance width="300"/>
  <outline>
    <contour>
      <point x="69" y="485" type="curve" smooth="yes"/>
      <point x="69" y="411"/>
      <point x="105" y="362"/>
      <point x="181" y="362" type="curve" smooth="yes"/>
      <point x="258" y="362"/>
      <point x="311" y="426"/>
      <point x="311" y="500" type="curve" smooth="yes"/>
      <point x="311" y="561"/>
      <point x="272" y="588"/>
      <point x="221" y="588" type="curve" smooth="yes"/>
      <point x="174" y="588"/>
      <point x="138" y="556"/>
      <point x="120" y="512" type="curve"/>
      <point x="140" y="516" type="line"/>
      <point x="145" y="545" type="line" smooth="yes"/>
      <point x="157" y="614"/>
      <point x="196" y="646"/>
      <point x="229" y="646" type="curve" smooth="yes"/>
      <point x="250" y="646"/>
      <point x="261" y="631"/>
      <point x="258" y="610" type="curve"/>
      <point x="327" y="602" type="line"/>
      <point x="328" y="609"/>
      <point x="329" y="616"/>
      <point x="329" y="622" type="curve" smooth="yes"/>
      <point x="329" y="671"/>
      <point x="299" y="705"/>
      <point x="240" y="705" type="curve" smooth="yes"/>
      <point x="157" y="705"/>
      <point x="90" y="634"/>
      <point x="75" y="549" type="curve" smooth="yes"/>
      <point x="71" y="526"/>
      <point x="69" y="504"/>
    </contour>
    <contour>
      <point x="138" y="463" type="curve" smooth="yes"/>
      <point x="138" y="493"/>
      <point x="155" y="534"/>
      <point x="196" y="534" type="curve" smooth="yes"/>
      <point x="223" y="534"/>
      <point x="239" y="517"/>
      <point x="239" y="488" type="curve" smooth="yes"/>
      <point x="239" y="457"/>
      <point x="219" y="417"/>
      <point x="180" y="417" type="curve" smooth="yes"/>
      <point x="153" y="417"/>
      <point x="138" y="434"/>
    </contour>
  </outline>
</glyph>
<glyph name="six.sub" format="2">
  <advance width="300"/>
  <outline>
    <contour>
      <point x="-4" y="75" type="curve" smooth="yes"/>
      <point x="-4" y="1"/>
      <point x="32" y="-48"/>
      <point x="108" y="-48" type="curve" smooth="yes"/>
      <point x="185" y="-48"/>
      <point x="238" y="16"/>
      <point x="238" y="90" type="curve" smooth="yes"/>
      <point x="238" y="151"/>
      <point x="199" y="178"/>
      <point x="148" y="178" type="curve" smooth="yes"/>
      <point x="101" y="178"/>
      <point x="65" y="146"/>
      <point x="47" y="102" type="curve"/>
      <point x="67" y="106" type="line"/>
      <point x="72" y="135" type="line" smooth="yes"/>
      <point x="84" y="204"/>
      <point x="123" y="236"/>
      <point x="156" y="236" type="curve" smooth="yes"/>
      <point x="177" y="236"/>
      <point x="188" y="221"/>
      <point x="185" y="200" type="curve"/>
      <point x="254" y="192" type="line"/>
      <point x="255" y="199"/>
      <point x="256" y="206"/>
      <point x="256" y="212" type="curve" smooth="yes"/>
      <point x="256" y="261"/>
      <point x="226" y="295"/>
      <point x="167" y="295" type="curve" smooth="yes"/>
      <point x="84" y="295"/>
      <point x="17" y="224"/>
      <point x="2" y="139" type="curve" smooth="yes"/>
      <point x="-2" y="116"/>
      <point x="-4" y="94"/>
    </contour>
    <contour>
      <point x="65" y="53" type="curve" smooth="yes"/>
      <point x="65" y="83"/>
      <point x="82" y="124"/>
      <point x="123" y="124" type="curve" smooth="yes"/>
      <point x="150" y="124"/>
      <point x="166" y="107"/>
      <point x="166" y="78" type="curve" smooth="yes"/>
      <point x="166" y="47"/>
      <point x="146" y="7"/>
      <point x="107" y="7" type="curve" smooth="yes"/>
      <point x="80" y="7"/>
      <point x="65" y="24"/>
    </contour>
  </outline>
</glyph>
